<?xml version="1.0" encoding="UTF-8"?>
<svg version="1.1" xmlns="http://www.w3.org/2000/svg" width="472" height="498">
<path d="M0 0 C0.9070572 -0.00260775 1.8141144 -0.00521549 2.74865818 -0.00790226 C3.75670978 -0.00567154 4.76476137 -0.00344082 5.80335999 -0.0011425 C6.86523246 -0.00270249 7.92710493 -0.00426248 9.02115536 -0.00586975 C12.6088083 -0.00988476 16.19641955 -0.00668817 19.78407288 -0.00355339 C22.3441419 -0.00490721 24.90421072 -0.00668703 27.46427917 -0.00886345 C33.71363177 -0.01296396 39.96296871 -0.01234442 46.21232152 -0.00945081 C51.28904523 -0.00719701 56.36576556 -0.00688415 61.44248962 -0.00797462 C62.16365933 -0.00812786 62.88482904 -0.00828109 63.62785238 -0.00843897 C65.09266512 -0.00875868 66.55747785 -0.00908289 68.02229059 -0.00941156 C81.77401455 -0.01226653 95.52573186 -0.00897907 109.27745473 -0.00361119 C121.08988547 0.00085686 132.90230638 0.00008093 144.71473694 -0.00452995 C158.41557381 -0.00987542 172.11640485 -0.01199183 185.81724262 -0.00891769 C187.27681796 -0.00859912 188.73639329 -0.00828475 190.19596863 -0.00797462 C190.9142016 -0.00782035 191.63243457 -0.00766607 192.37243217 -0.00750712 C197.44599766 -0.00664188 202.51955947 -0.00810499 207.59312439 -0.01045418 C214.41543689 -0.01354349 221.23772789 -0.01135985 228.06003952 -0.00555992 C230.57198429 -0.00423155 233.08393062 -0.00462773 235.59587479 -0.00682259 C239.00897087 -0.00953109 242.42200612 -0.00615666 245.83509827 -0.0011425 C246.84314986 -0.00337322 247.85120146 -0.00560395 248.88980007 -0.00790226 C249.79685727 -0.00529452 250.70391447 -0.00268677 251.63845825 0 C252.42735475 0.00016235 253.21625124 0.0003247 254.02905369 0.00049198 C255.81922913 0.12584114 255.81922913 0.12584114 256.81922913 1.12584114 C256.91935314 3.3323477 256.95004092 5.54206501 256.95204163 7.75084114 C256.95347672 8.74398323 256.95347672 8.74398323 256.9549408 9.7571888 C256.95562239 11.15937075 256.95376954 12.56155584 256.94960022 13.96373177 C256.94425159 16.11679827 256.94954582 18.26965616 256.95594788 20.42271614 C256.95528709 21.7820916 256.95400592 23.14146694 256.95204163 24.50084114 C256.9509137 25.74607552 256.94978577 26.99130989 256.94862366 28.27427864 C256.81922913 31.12584114 256.81922913 31.12584114 255.81922913 32.12584114 C253.72620761 32.42180247 251.63226364 32.71228244 249.5348053 32.97496223 C239.12912515 34.30212453 229.72330891 36.78458538 219.89491272 40.38365364 C217.93955965 41.08281541 215.97712512 41.72598576 213.99501038 42.34459114 C193.4308664 48.81322729 174.33689147 57.67940009 160.81922913 75.12584114 C160.31649475 75.69818489 159.81376038 76.27052864 159.29579163 76.86021614 C155.4987965 81.40053835 153.02920273 86.49861066 150.50672913 91.81334114 C150.15674866 92.55068489 149.80676819 93.28802864 149.44618225 94.04771614 C144.50276907 104.79257083 143.95656126 117.94067579 147.96766663 129.14927864 C151.11588655 136.45661481 155.93868582 141.62163135 162.38172913 146.18834114 C163.00378235 146.63097298 163.62583557 147.07360481 164.26673889 147.52964973 C168.63309383 150.53610261 172.80359518 152.49153778 177.88172913 154.06334114 C183.03525398 155.92738205 187.74081077 158.68698996 192.53407288 161.32115364 C194.94465317 162.64539632 197.3555383 163.90790447 199.81922913 165.12584114 C199.84388658 169.23756674 199.86206871 173.34926392 199.87416077 177.46104622 C199.87919992 178.86079342 199.88603129 180.26053534 199.89466858 181.66026497 C199.90675232 183.66829891 199.91192719 185.67637072 199.91688538 187.68443489 C199.92212219 188.89413948 199.92735901 190.10384407 199.93275452 191.35020638 C199.81922913 194.12584114 199.81922913 194.12584114 198.81922913 195.12584114 C196.12821396 195.22590376 193.46279432 195.26024076 190.77125549 195.25282478 C189.91764419 195.25438477 189.06403289 195.25594476 188.18455458 195.25755203 C185.30169456 195.26156575 182.41888648 195.25837095 179.536026 195.25523567 C177.47841358 195.25658955 175.42080141 195.2583694 173.3631897 195.26054573 C167.75798262 195.26512169 162.15279386 195.26332984 156.54758644 195.26016665 C150.69570998 195.25764388 144.84383514 195.25998035 138.99195862 195.26155281 C129.16273211 195.26337475 119.33351309 195.26096755 109.50428772 195.25621223 C98.12251862 195.25076957 86.74076744 195.25253221 75.35899878 195.25803864 C65.60617592 195.26256907 55.85335848 195.26322066 46.10053492 195.26059997 C40.26713422 195.25903681 34.43374196 195.25884449 28.6003418 195.26213646 C23.11753433 195.26501416 17.63475006 195.26304135 12.15194511 195.2572422 C10.13344295 195.25591406 8.11493886 195.25630963 6.09643745 195.25850487 C3.35333238 195.26121426 0.61030293 195.25783785 -2.13279724 195.25282478 C-3.34721709 195.25617087 -3.34721709 195.25617087 -4.58617067 195.25958455 C-10.06662104 195.23999097 -10.06662104 195.23999097 -11.18077087 194.12584114 C-11.26852693 191.98025287 -11.28772306 189.83179693 -11.27842712 187.68443489 C-11.27520447 186.37925911 -11.27198181 185.07408333 -11.2686615 183.72935677 C-11.26030489 182.34068424 -11.25183992 180.95201237 -11.24327087 179.56334114 C-11.23825753 178.17076458 -11.23369434 176.77818633 -11.229599 175.38560677 C-11.21776521 171.96564244 -11.20127968 168.5457627 -11.18077087 165.12584114 C-9.62325134 164.34708137 -8.06572353 163.56833817 -6.50816345 162.7896595 C-5.09901685 162.0850034 -3.69000426 161.38007925 -2.28111267 160.67491341 C1.76880074 158.64842579 5.82124868 156.62724691 9.87782288 154.61412239 C14.09951267 152.51855599 18.30906355 150.39974972 22.51600647 148.27476692 C24.61234175 147.2290436 26.72118063 146.2174527 28.83876038 145.21568489 C36.78401781 141.35274979 36.78401781 141.35274979 41.25672913 134.08287239 C41.44235413 133.43705208 41.62797913 132.79123177 41.81922913 132.12584114 C42.21110413 131.03271614 42.60297913 129.93959114 43.00672913 128.81334114 C44.82696126 120.55228763 45.77047094 113.81694147 41.81922913 106.12584114 C41.36483459 105.16484505 41.36483459 105.16484505 40.90126038 104.18443489 C38.16538987 98.83552889 35.18548011 96.89942319 29.56922913 95.06334114 C20.61816225 92.82557442 11.71799678 91.25068315 2.56336975 90.07701302 C1.70034241 89.96550911 0.83731506 89.8540052 -0.05186462 89.73912239 C-1.21093323 89.5966407 -1.21093323 89.5966407 -2.39341736 89.45128059 C-4.18077087 89.12584114 -4.18077087 89.12584114 -5.18077087 88.12584114 C-5.28123891 85.42283815 -5.3169354 82.74535768 -5.31016541 80.04185677 C-5.31191772 79.19475639 -5.31367004 78.34765602 -5.31547546 77.47488594 C-5.31989497 74.66060048 -5.31695565 71.8463773 -5.31358337 69.03209114 C-5.31425639 67.08535436 -5.31522639 65.13861767 -5.31648254 63.19188118 C-5.31795965 59.10622039 -5.31580455 55.02058143 -5.31114197 50.93492317 C-5.30544467 45.68537599 -5.30872361 40.43587992 -5.31471443 35.18633461 C-5.3183197 31.16475727 -5.31718162 27.14319215 -5.31458664 23.12161446 C-5.31391728 21.18542665 -5.31474612 19.24923775 -5.31706619 17.31305122 C-5.31959216 14.6119459 -5.31575292 11.91092455 -5.31016541 9.20982552 C-5.31320175 7.99730362 -5.31320175 7.99730362 -5.31629944 6.76028633 C-5.29026014 0.00108872 -5.29026014 0.00108872 0 0 Z " fill="#F6A31A" transform="translate(167.18077087402344,270.87415885925293)"/>
<path d="M0 0 C10.48961938 6.23296224 18.19464659 14.73797082 25.71484375 24.234375 C28.03388653 27.04101139 30.51445506 29.58888317 33.0625 32.1875 C38.52158392 38.13596084 41.69988315 44.58127898 45.00146484 51.85888672 C46.02518254 54.05399777 47.1200595 56.1993034 48.23828125 58.34765625 C52.16734775 66.02069957 54.89030916 72.34705659 54.8671875 81.16796875 C55.01905725 84.40636789 55.96028926 86.94178832 57 90 C57.1953125 92.5546875 57.1953125 92.5546875 57.125 94.875 C57.10695313 95.65617187 57.08890625 96.43734375 57.0703125 97.2421875 C57.04710937 97.82226562 57.02390625 98.40234375 57 99 C58.32 99 59.64 99 61 99 C61.27070313 98.41089844 61.54140625 97.82179688 61.8203125 97.21484375 C62.98309728 95.03173458 64.26811965 93.4316432 65.875 91.5625 C69.3877117 87.04127253 70.64764106 82.24992424 72.04296875 76.7578125 C73 74 73 74 76 72 C76.33 72.99 76.66 73.98 77 75 C77.5775 75.268125 78.155 75.53625 78.75 75.8125 C81.97161437 77.51279647 83.84103801 80.1509347 86 83 C86.44641846 83.58378418 86.89283691 84.16756836 87.3527832 84.76904297 C90.37411344 88.84691885 92.37670603 92.7604985 94.02734375 97.57421875 C95.12915209 100.32210219 96.57497448 102.4980333 98.25 104.9375 C101.54160667 109.92822977 103.9788841 115.07871653 106.3125 120.5625 C106.64991211 121.34165771 106.98732422 122.12081543 107.33496094 122.92358398 C109.39972708 127.90543252 110.69414709 132.72862268 111.59448242 138.04663086 C111.81279497 139.99566659 111.81279497 139.99566659 113 141 C116.58984722 166.58720889 113.66153085 192.89798848 98.17578125 214.27734375 C90.11119468 224.36893592 81.35117364 232.31119826 71 240 C70.11957031 240.66644531 69.23914063 241.33289063 68.33203125 242.01953125 C66.56254944 243.35682104 64.78290065 244.68065352 63 246 C62.01 245.34 61.02 244.68 60 244 C61.3282382 240.45170652 62.90343771 237.29565785 64.875 234.0625 C65.40609375 233.18851563 65.9371875 232.31453125 66.484375 231.4140625 C67.64995246 229.55754994 68.87533629 227.73848593 70.125 225.9375 C74.9717637 218.34423687 77.05859463 210.93767994 78 202 C78.09667969 201.08734375 78.19335938 200.1746875 78.29296875 199.234375 C79.01175475 185.32489453 73.92346807 170.85993185 67 159 C66.64325195 158.37544922 66.28650391 157.75089844 65.91894531 157.10742188 C64.74985598 155.06421949 63.56652842 153.03019239 62.375 151 C61.8166748 150.04625488 61.8166748 150.04625488 61.24707031 149.07324219 C59.15765334 145.60573864 57.00448111 142.71898743 54 140 C53.649375 141.175625 53.29875 142.35125 52.9375 143.5625 C51.11448656 148.52711428 47.91568058 151.56707456 44 155 C43.34 154.67 42.68 154.34 42 154 C41.39331055 152.08569336 41.39331055 152.08569336 40.88671875 149.58984375 C40.69013672 148.68169922 40.49355469 147.77355469 40.29101562 146.83789062 C39.89460997 144.93283432 39.50380545 143.02660227 39.11914062 141.11914062 C37.93028239 135.67944522 36.43036175 131.4753399 33.2824707 126.87475586 C32.0161575 125.02361954 30.92858587 123.14625227 29.859375 121.17578125 C29.51511475 120.54542969 29.17085449 119.91507812 28.81616211 119.265625 C28.28841187 118.29882812 28.28841187 118.29882812 27.75 117.3125 C23.62645377 109.85327895 18.99880968 102.90142991 14 96 C11.00522289 96.3181635 9.45316924 96.49115886 7.41015625 98.78515625 C6.96542969 99.53667969 6.52070313 100.28820312 6.0625 101.0625 C4.13659834 104.18344833 2.18236161 107.16144807 -0.0625 110.0625 C-2.97455939 113.89734184 -5.51088896 117.88192944 -8 122 C-8.70962891 123.12341797 -8.70962891 123.12341797 -9.43359375 124.26953125 C-12.95423218 129.92998628 -15.82257571 135.7370191 -18.55078125 141.81640625 C-19.87876484 144.73367478 -21.2877109 147.58582184 -22.75 150.4375 C-24.49989955 153.88665892 -25.92096675 157.27243058 -27 161 C-30.06527514 158.64209605 -31.72042487 157.2895895 -32.5546875 153.44140625 C-32.78736655 150.9559709 -32.94670013 148.49540286 -33 146 C-35.40459331 148.22652438 -37.05837278 150.51054509 -38.7421875 153.31640625 C-39.50595703 154.58774414 -39.50595703 154.58774414 -40.28515625 155.88476562 C-40.80980469 156.76841797 -41.33445313 157.65207031 -41.875 158.5625 C-42.39191406 159.41908203 -42.90882813 160.27566406 -43.44140625 161.15820312 C-50.86945022 173.31682277 -50.86945022 173.31682277 -54.3125 186.9375 C-54.38170654 187.62424805 -54.45091309 188.31099609 -54.5222168 189.01855469 C-55.53441679 199.76673551 -56.26021544 211.60967684 -50 221 C-49.54835288 222.32189401 -49.13506764 223.65720002 -48.75 225 C-46.56763302 231.7920605 -43.38590394 239.15909824 -38 244 C-39.6875 244.8125 -39.6875 244.8125 -42 245 C-43.16224447 243.87193919 -44.31209719 242.72788185 -45.390625 241.51953125 C-47.37748528 239.64358793 -49.49448664 238.46313705 -51.875 237.125 C-56.71087779 234.31660875 -60.29704088 231.16033174 -64 227 C-64.57363281 226.35933594 -65.14726562 225.71867188 -65.73828125 225.05859375 C-66.92013556 223.71950827 -68.09064872 222.37033354 -69.25 221.01171875 C-70.38099583 219.71157846 -71.5463599 218.44022501 -72.75 217.20703125 C-78.40933698 211.28241285 -81.64881379 204.37093825 -85 197 C-85.40347656 196.13117188 -85.80695313 195.26234375 -86.22265625 194.3671875 C-92.08102261 180.86844221 -92.42765502 168.3672708 -91 154 C-90.9270874 153.26048096 -90.8541748 152.52096191 -90.77905273 151.7590332 C-90.27435577 147.18857683 -89.15408515 144.04968009 -87 140 C-85.63628852 136.06038906 -84.95273765 132.54021644 -84.75390625 128.41015625 C-84.17758111 122.43624057 -81.92998997 117.89284395 -79.0625 112.6875 C-78.57177002 111.77613281 -78.08104004 110.86476563 -77.57543945 109.92578125 C-72.07417207 99.94949029 -65.96944252 91.14449101 -57 84 C-55.34851401 87.89016699 -54.17279855 91.7994463 -53.0625 95.875 C-50.87088877 104.63629305 -50.87088877 104.63629305 -46 112 C-45.76216797 110.38544922 -45.76216797 110.38544922 -45.51953125 108.73828125 C-42.98330609 92.45057953 -37.64708063 75.40627987 -25.49609375 63.55859375 C-22.25765338 60.23906567 -20.25388343 56.62338328 -18.0625 52.5625 C-17.6279248 51.76408691 -17.19334961 50.96567383 -16.74560547 50.14306641 C-8.6359424 35.03742307 -3.83801258 20.12750795 -1.39453125 3.16015625 C-1 1 -1 1 0 0 Z " fill="#F4A31D" transform="translate(262,9)"/>
<path d="M0 0 C1.48919952 -0.00422974 1.48919952 -0.00422974 3.00848389 -0.00854492 C4.10670471 -0.00652069 5.20492554 -0.00449646 6.33642578 -0.00241089 C8.06061737 -0.00503937 8.06061737 -0.00503937 9.81964111 -0.00772095 C13.64035528 -0.01214226 17.4610236 -0.00920048 21.28173828 -0.00582886 C23.9235027 -0.00650182 26.56526705 -0.00747177 29.20703125 -0.00872803 C34.75212099 -0.01054957 40.29719743 -0.00814383 45.84228516 -0.00338745 C52.26168572 0.00205514 58.68105453 0.00029247 65.10045433 -0.00521386 C71.26474811 -0.01029062 77.42902776 -0.00976347 83.59332275 -0.00683212 C86.22170008 -0.00616257 88.8500782 -0.00699224 91.47845459 -0.00931168 C95.14467551 -0.01183655 98.8108345 -0.00799993 102.47705078 -0.00241089 C103.57527161 -0.00443512 104.67349243 -0.00645935 105.80499268 -0.00854492 C106.79779236 -0.0057251 107.79059204 -0.00290527 108.81347656 0 C109.68142853 0.00037703 110.54938049 0.00075405 111.44363403 0.0011425 C113.40673828 0.12698364 113.40673828 0.12698364 114.40673828 1.12698364 C114.50099423 3.27441913 114.52416476 5.4249939 114.52026367 7.57449341 C114.5204097 8.2476358 114.52055573 8.9207782 114.52070618 9.61431885 C114.52000707 11.84904149 114.5122148 14.08368174 114.50439453 16.31838989 C114.50253034 17.86395726 114.50110644 19.40952522 114.50010681 20.95509338 C114.49628168 25.03055441 114.48645145 29.10598001 114.47540283 33.181427 C114.4651886 37.33710246 114.46060917 41.49278363 114.45556641 45.64846802 C114.44482917 53.80798951 114.42775282 61.96748218 114.40673828 70.12698364 C106.17364696 72.87134742 94.93604171 68.35629881 86.78173828 66.25198364 C85.3523291 65.88544678 85.3523291 65.88544678 83.89404297 65.51150513 C78.11217348 63.98051303 72.54753064 62.13089038 66.95166016 60.02297974 C64.72924773 59.24053023 62.58766588 58.65760107 60.28955078 58.15823364 C55.58213787 57.05736433 51.52065892 54.90348136 47.28173828 52.62698364 C46.45714111 52.18918579 45.63254395 51.75138794 44.78295898 51.30032349 C38.2912203 47.77560803 32.28437343 43.79072549 26.38720703 39.35354614 C23.4757266 37.11025563 23.4757266 37.11025563 20.48486328 35.32229614 C16.4496957 32.44442282 13.3022728 29.02535103 9.96923828 25.37698364 C9.33953125 24.69893677 8.70982422 24.02088989 8.06103516 23.32229614 C6.16236834 21.26947241 4.28434296 19.19906669 2.40673828 17.12698364 C1.41843018 16.06628662 1.41843018 16.06628662 0.41015625 14.98416138 C-0.22132324 14.29265991 -0.85280273 13.60115845 -1.50341797 12.88870239 C-2.07326416 12.27212769 -2.64311035 11.65555298 -3.23022461 11.02029419 C-5.55032767 7.79758253 -5.59326172 5.04059137 -5.59326172 1.12698364 C-3.9789629 -0.48731518 -2.23262273 0.00096982 0 0 Z " fill="#F8A31B" transform="translate(34.59326171875,285.8730163574219)"/>
<path d="M0 0 C1.875 0.671875 1.875 0.671875 4 2 C5.125 4.390625 5.125 4.390625 6 7.25 C7.1276463 10.68235767 8.1689851 13.58305189 10.3125 16.5 C10.869375 17.325 11.42625 18.15 12 19 C11.67 19.99 11.34 20.98 11 22 C9.35 22 7.7 22 6 22 C6.11752011 29.06596142 6.24235309 36.13176629 6.37231445 43.19750977 C6.41567409 45.60210223 6.4573484 48.00672569 6.49731445 50.41137695 C6.55499189 53.86419016 6.61869385 57.31684719 6.68359375 60.76953125 C6.70030624 61.84773636 6.71701874 62.92594147 6.73423767 64.03681946 C6.75418289 65.03763046 6.77412811 66.03844147 6.79467773 67.06958008 C6.81799416 68.39195427 6.81799416 68.39195427 6.84178162 69.74104309 C6.9174752 72.1677108 6.9174752 72.1677108 8 75 C20.87 75.495 20.87 75.495 34 76 C34 73.69 34 71.38 34 69 C34.99 68.67 35.98 68.34 37 68 C39.12724659 69.25700935 41.02703957 70.53175038 43 72 C48.25426261 75.90271882 48.25426261 75.90271882 54 79 C53.375 80.875 53.375 80.875 52 83 C50 83.66666667 48 84.33333333 46 85 C43.89589011 86.46883056 41.91235903 88.03181758 39.9296875 89.66015625 C37.91246315 91.06077964 36.42296109 91.66203332 34 92 C33.67 91.67 33.34 91.34 33 91 C33 89.02 33 87.04 33 85 C25.08 85 17.16 85 9 85 C8.67 85.99 8.34 86.98 8 88 C3.65902932 89.96377245 -0.27723462 90.69966894 -5 90 C-8.29028048 86.36337421 -10 82.9260727 -10 78 C-9.35256836 77.01700928 -8.70513672 76.03401855 -8.03808594 75.02124023 C-5.12550617 70.11410671 -5.39723791 65.17204417 -5.390625 59.59765625 C-5.37408875 58.51995468 -5.35755249 57.44225311 -5.34051514 56.33189392 C-5.29214794 52.90870397 -5.27068845 49.48595796 -5.25 46.0625 C-5.22183101 43.73370176 -5.19190229 41.4049241 -5.16015625 39.07617188 C-5.08639201 33.38419487 -5.03468341 27.69234213 -5 22 C-6.32 21.34 -7.64 20.68 -9 20 C-9.50911708 14.67447374 -7.93873582 11.49939541 -5.0625 7.1875 C-4.68931641 6.60291016 -4.31613281 6.01832031 -3.93164062 5.41601562 C-1.25687399 1.25687399 -1.25687399 1.25687399 0 0 Z " fill="#F4A623" transform="translate(273,126)"/>
<path d="M0 0 C6.63878311 1.11769947 11.96373156 3.21039619 17.8125 6.5 C19.27726601 7.3022253 20.74210723 8.10431328 22.20703125 8.90625 C22.8410083 9.26009766 23.47498535 9.61394531 24.12817383 9.97851562 C26.06313339 11.03445286 28.02303268 12.02534224 30 13 C30.02465746 17.1117256 30.04283959 21.22342278 30.05493164 25.33520508 C30.0599708 26.73495228 30.06680216 28.1346942 30.07543945 29.53442383 C30.0875232 31.54245777 30.09269807 33.55052957 30.09765625 35.55859375 C30.10289307 36.76829834 30.10812988 37.97800293 30.11352539 39.22436523 C30 42 30 42 29 43 C26.30898483 43.10006262 23.64356519 43.13439962 20.95202637 43.12698364 C20.09841506 43.12854363 19.24480376 43.13010362 18.36532545 43.13171089 C15.48246544 43.13572461 12.59965735 43.13252981 9.71679688 43.12939453 C7.65918446 43.13074841 5.60157228 43.13252826 3.54396057 43.13470459 C-2.06124651 43.13928055 -7.66643527 43.1374887 -13.27164268 43.1343255 C-19.12351915 43.13180274 -24.97539399 43.13413921 -30.82727051 43.13571167 C-40.65649702 43.13753361 -50.48571603 43.13512641 -60.31494141 43.13037109 C-71.6967105 43.12492843 -83.07846169 43.12669107 -94.46023035 43.1321975 C-104.2130532 43.13672793 -113.96587065 43.13737952 -123.71869421 43.13475883 C-129.5520949 43.13319567 -135.38548717 43.13300335 -141.21888733 43.13629532 C-146.7016948 43.13917302 -152.18447906 43.1372002 -157.66728401 43.13140106 C-159.68578617 43.13007292 -161.70429027 43.13046849 -163.72279167 43.13266373 C-166.46589674 43.13537312 -169.20892619 43.13199671 -171.95202637 43.12698364 C-173.16644622 43.13032973 -173.16644622 43.13032973 -174.4053998 43.13374341 C-179.88585017 43.11414983 -179.88585017 43.11414983 -181 42 C-181.08775605 39.85441173 -181.10695219 37.70595579 -181.09765625 35.55859375 C-181.09443359 34.25341797 -181.09121094 32.94824219 -181.08789062 31.60351562 C-181.07953401 30.2148431 -181.07106905 28.82617123 -181.0625 27.4375 C-181.05748666 26.04492344 -181.05292347 24.65234519 -181.04882812 23.25976562 C-181.03699434 19.8398013 -181.0205088 16.41992156 -181 13 C-180.34 13 -179.68 13 -179 13 C-179 22.24 -179 31.48 -179 41 C-110.69 41 -42.38 41 28 41 C29.13583586 16.64744466 29.13583586 16.64744466 20.37109375 9.94140625 C16.99675973 8.53781067 16.99675973 8.53781067 13.4375 7.5625 C11.12166169 6.71518011 8.80774095 5.86259438 6.49609375 5.00390625 C5.46669678 4.68236572 4.4372998 4.3608252 3.37670898 4.02954102 C2.59239502 3.68979248 1.80808105 3.35004395 1 3 C0.67 2.01 0.34 1.02 0 0 Z " fill="#7F602B" transform="translate(337,423)"/>
<path d="M0 0 C1.48919952 -0.00422974 1.48919952 -0.00422974 3.00848389 -0.00854492 C4.10670471 -0.00652069 5.20492554 -0.00449646 6.33642578 -0.00241089 C8.06061737 -0.00503937 8.06061737 -0.00503937 9.81964111 -0.00772095 C13.64035528 -0.01214226 17.4610236 -0.00920048 21.28173828 -0.00582886 C23.9235027 -0.00650182 26.56526705 -0.00747177 29.20703125 -0.00872803 C34.75212099 -0.01054957 40.29719743 -0.00814383 45.84228516 -0.00338745 C52.26168572 0.00205514 58.68105453 0.00029247 65.10045433 -0.00521386 C71.26474811 -0.01029062 77.42902776 -0.00976347 83.59332275 -0.00683212 C86.22170008 -0.00616257 88.8500782 -0.00699224 91.47845459 -0.00931168 C95.14467551 -0.01183655 98.8108345 -0.00799993 102.47705078 -0.00241089 C103.57527161 -0.00443512 104.67349243 -0.00645935 105.80499268 -0.00854492 C106.79779236 -0.0057251 107.79059204 -0.00290527 108.81347656 0 C109.68142853 0.00037703 110.54938049 0.00075405 111.44363403 0.0011425 C113.40673828 0.12698364 113.40673828 0.12698364 114.40673828 1.12698364 C114.50099423 3.27441913 114.52416476 5.4249939 114.52026367 7.57449341 C114.5204097 8.2476358 114.52055573 8.9207782 114.52070618 9.61431885 C114.52000707 11.84904149 114.5122148 14.08368174 114.50439453 16.31838989 C114.50253034 17.86395726 114.50110644 19.40952522 114.50010681 20.95509338 C114.49628168 25.03055441 114.48645145 29.10598001 114.47540283 33.181427 C114.4651886 37.33710246 114.46060917 41.49278363 114.45556641 45.64846802 C114.44482917 53.80798951 114.42775282 61.96748218 114.40673828 70.12698364 C110.80599392 71.32723176 108.70158548 70.90335567 104.96923828 70.31448364 C103.83615234 70.14303833 102.70306641 69.97159302 101.53564453 69.79495239 C98.40673828 69.12698364 98.40673828 69.12698364 94.40673828 67.12698364 C99.68673828 67.12698364 104.96673828 67.12698364 110.40673828 67.12698364 C110.43179443 65.44217896 110.45685059 63.75737427 110.48266602 62.02151489 C110.56685929 56.42956653 110.65511141 50.83769187 110.74607754 45.24584961 C110.80103637 41.85843906 110.85441012 38.47101957 110.90405273 35.08352661 C110.96204959 31.18126875 111.02565868 27.27913587 111.09033203 23.37698364 C111.10704453 22.17146851 111.12375702 20.96595337 111.14097595 19.72390747 C111.16092117 18.58332886 111.18086639 17.44275024 111.20141602 16.26760864 C111.2169603 15.27277466 111.23250458 14.27794067 111.2485199 13.25296021 C111.43700329 9.52902724 111.94424998 5.82689003 112.40673828 2.12698364 C56.47173828 2.62198364 56.47173828 2.62198364 -0.59326172 3.12698364 C-0.26326172 5.10698364 0.06673828 7.08698364 0.40673828 9.12698364 C2.27316008 10.28427248 2.27316008 10.28427248 4.40673828 11.12698364 C6.03955078 13.15042114 6.03955078 13.15042114 7.53173828 15.50198364 C8.02931641 16.27284302 8.52689453 17.04370239 9.03955078 17.83792114 C10.40673828 20.12698364 10.40673828 20.12698364 11.34033203 22.19338989 C12.66080532 24.58765465 14.24783734 25.94443482 16.34423828 27.68948364 C21.66164771 32.15213193 21.66164771 32.15213193 23.40673828 34.12698364 C23.40673828 34.78698364 23.40673828 35.44698364 23.40673828 36.12698364 C19.62296131 34.83637409 17.36706786 33.42764776 14.66455078 30.49417114 C13.99037109 29.76971802 13.31619141 29.04526489 12.62158203 28.29885864 C11.93193359 27.54088989 11.24228516 26.78292114 10.53173828 26.00198364 C9.84982422 25.26721802 9.16791016 24.53245239 8.46533203 23.77542114 C6.42989264 21.57326957 4.41793238 19.35126972 2.40673828 17.12698364 C1.40078613 16.04646729 1.40078613 16.04646729 0.37451172 14.94412231 C-0.25680664 14.25294312 -0.888125 13.56176392 -1.53857422 12.84963989 C-2.10334473 12.23870483 -2.66811523 11.62776978 -3.25 10.99832153 C-5.55370977 7.78895486 -5.59326172 5.01959711 -5.59326172 1.12698364 C-3.9789629 -0.48731518 -2.23262273 0.00096982 0 0 Z " fill="#9D7534" transform="translate(34.59326171875,285.8730163574219)"/>
<path d="M0 0 C1.66611905 -0.042721 3.33382885 -0.04063832 5 0 C6.61842198 1.61842198 6.15180148 3.40261939 6.17700195 5.63989258 C6.18983719 6.62794388 6.20267242 7.61599518 6.21589661 8.63398743 C6.22328354 9.70996689 6.23067047 10.78594635 6.23828125 11.89453125 C6.25038887 13.54288216 6.25038887 13.54288216 6.26274109 15.22453308 C6.27660139 17.55567843 6.28731479 19.88684424 6.29516602 22.21801758 C6.31237709 25.78701181 6.35624675 29.35507971 6.40039062 32.92382812 C6.41051707 35.184889 6.41903332 37.44595777 6.42578125 39.70703125 C6.44328934 40.77693802 6.46079742 41.84684479 6.47883606 42.94917297 C6.45691799 50.42240351 6.45691799 50.42240351 3.99780273 53.53100586 C3.33852783 54.01577393 2.67925293 54.50054199 2 55 C1.51882987 57.81474607 1.51882987 57.81474607 1.75 60.75 C1.8325 62.4825 1.915 64.215 2 66 C8.93 66.495 8.93 66.495 16 67 C13.02007371 69.97992629 10.64328165 69.91958979 6.5 70.4375 C3 70 3 70 0.625 67.375 C-1.02398689 63.95018108 -2 61.79736529 -2 58 C-1.35256836 57.01700928 -0.70513672 56.03401855 -0.03808594 55.02124023 C2.87449383 50.11410671 2.60276209 45.17204417 2.609375 39.59765625 C2.62591125 38.51995468 2.64244751 37.44225311 2.65948486 36.33189392 C2.70785206 32.90870397 2.72931155 29.48595796 2.75 26.0625 C2.77816899 23.73370176 2.80809771 21.4049241 2.83984375 19.07617188 C2.91360799 13.38419487 2.96531659 7.69234213 3 2 C2.01 1.67 1.02 1.34 0 1 C0 0.67 0 0.34 0 0 Z " fill="#AE7D29" transform="translate(265,146)"/>
<path d="M0 0 C6.63878311 1.11769947 11.96373156 3.21039619 17.8125 6.5 C19.27726601 7.3022253 20.74210723 8.10431328 22.20703125 8.90625 C22.8410083 9.26009766 23.47498535 9.61394531 24.12817383 9.97851562 C26.06038957 11.03295552 28.03118286 12.01559143 30 13 C30 22.57 30 32.14 30 42 C29.34 42 28.68 42 28 42 C27.34 33.09 26.68 24.18 26 15 C23.31037109 13.75283203 23.31037109 13.75283203 20.56640625 12.48046875 C18.23151717 11.38335219 15.89689545 10.2856665 13.5625 9.1875 C12.37849609 8.64029297 11.19449219 8.09308594 9.97460938 7.52929688 C8.84990234 6.99755859 7.72519531 6.46582031 6.56640625 5.91796875 C5.52427979 5.43094482 4.48215332 4.9439209 3.40844727 4.44213867 C1 3 1 3 0 0 Z " fill="#B3802E" transform="translate(337,423)"/>
<path d="M0 0 C2.4375 0.625 2.4375 0.625 5 2 C5.37366113 3.99285937 5.70740515 5.99363529 6 8 C6.60457031 8.30164063 7.20914063 8.60328125 7.83203125 8.9140625 C10.56903663 10.28503096 11.49560689 11.80721295 13.125 14.375 C13.87136719 15.53128906 13.87136719 15.53128906 14.6328125 16.7109375 C16 19 16 19 16.93359375 21.06640625 C18.25406704 23.46067101 19.84109906 24.81745117 21.9375 26.5625 C27.25490943 31.02514828 27.25490943 31.02514828 29 33 C29 33.66 29 34.32 29 35 C25.21622302 33.70939044 22.96032958 32.30066411 20.2578125 29.3671875 C19.58363281 28.64273437 18.90945312 27.91828125 18.21484375 27.171875 C17.52519531 26.41390625 16.83554687 25.6559375 16.125 24.875 C15.44308594 24.14023437 14.76117188 23.40546875 14.05859375 22.6484375 C12.02315711 20.44628891 10.01144909 18.22404928 8 16 C7.32864014 15.28038086 6.65728027 14.56076172 5.96557617 13.81933594 C5.33369385 13.1287207 4.70181152 12.43810547 4.05078125 11.7265625 C3.48528564 11.11635254 2.91979004 10.50614258 2.3371582 9.87744141 C0.07397435 6.69981062 0.0684991 3.83594971 0 0 Z " fill="#C89237" transform="translate(29,287)"/>
<path d="M0 0 C0.33 0 0.66 0 1 0 C1 22.77 1 45.54 1 69 C-2.60074437 70.20024812 -4.70515281 69.77637203 -8.4375 69.1875 C-9.57058594 69.01605469 -10.70367187 68.84460938 -11.87109375 68.66796875 C-15 68 -15 68 -19 66 C-13.72 66 -8.44 66 -3 66 C-2.71082605 60.7796934 -2.71082605 60.7796934 -2.43188477 55.55883789 C-2.11111111 50.11111111 -2.11111111 50.11111111 -1 49 C-0.8774645 47.46617321 -0.82222062 45.92689481 -0.79467773 44.38842773 C-0.77473251 43.40748642 -0.75478729 42.4265451 -0.73423767 41.4158783 C-0.71752518 40.3492244 -0.70081268 39.2825705 -0.68359375 38.18359375 C-0.66281265 37.0974025 -0.64203156 36.01121124 -0.62062073 34.8921051 C-0.55500558 31.40730373 -0.49618489 27.92242432 -0.4375 24.4375 C-0.39432615 22.08137199 -0.35071224 19.72525201 -0.30664062 17.36914062 C-0.19931208 11.57951063 -0.09756835 5.78980225 0 0 Z " fill="#664F26" transform="translate(148,287)"/>
<path d="M0 0 C4.55700425 0.52484692 7.192874 2.31507303 10.8125 5.0625 C11.78832031 5.79597656 12.76414063 6.52945313 13.76953125 7.28515625 C14.87361328 8.13400391 14.87361328 8.13400391 16 9 C16.66 8.01 17.32 7.02 18 6 C18.48919922 6.92232422 18.48919922 6.92232422 18.98828125 7.86328125 C19.42527344 8.67152344 19.86226562 9.47976562 20.3125 10.3125 C20.74175781 11.11300781 21.17101562 11.91351563 21.61328125 12.73828125 C22.90059554 14.83787272 24.18406708 16.35447721 26 18 C24.3125 18.8125 24.3125 18.8125 22 19 C20.83775553 17.87193919 19.68790281 16.72788185 18.609375 15.51953125 C16.62251472 13.64358793 14.50551336 12.46313705 12.125 11.125 C7.36724002 8.38287786 3.517717 5.22824924 0 1 C0 0.67 0 0.34 0 0 Z " fill="#B08336" transform="translate(198,235)"/>
<path d="M0 0 C0.33 0 0.66 0 1 0 C1.07516846 0.73001221 1.15033691 1.46002441 1.2277832 2.2121582 C1.57998037 5.5799937 1.94615925 8.94617479 2.3125 12.3125 C2.43044922 13.46041016 2.54839844 14.60832031 2.66992188 15.79101562 C3.66023775 24.75464389 5.41474119 33.11114643 8.75 41.5 C10 45 10 45 9 48 C-0.62042346 33.09622923 -1.62878854 17.1649254 0 0 Z " fill="#B2812F" transform="translate(171,163)"/>
<path d="M0 0 C0.66 0.33 1.32 0.66 2 1 C2.78208372 3.42003263 3.45246626 5.78666983 4.0625 8.25 C4.23587891 8.91902344 4.40925781 9.58804688 4.58789062 10.27734375 C5.49951662 13.8330344 6.32185652 17.39255632 7 21 C6.01 21 5.02 21 4 21 C3.67386719 20.07316406 3.34773437 19.14632812 3.01171875 18.19140625 C2.57472656 16.99386719 2.13773438 15.79632813 1.6875 14.5625 C1.25824219 13.36753906 0.82898438 12.17257813 0.38671875 10.94140625 C-0.07089844 9.97074219 -0.52851563 9.00007813 -1 8 C-1.99 7.67 -2.98 7.34 -4 7 C-4.33 7.66 -4.66 8.32 -5 9 C-7.0625 10.125 -7.0625 10.125 -9 11 C-6.36113346 6.7973607 -3.63559661 3.43361902 0 0 Z " fill="#BB8834" transform="translate(204,93)"/>
<path d="M0 0 C0.99 0.66 1.98 1.32 3 2 C3.36328125 5.265625 3.36328125 5.265625 3.3125 9.25 C3.30863281 10.55453125 3.30476562 11.8590625 3.30078125 13.203125 C3.01480864 16.81306502 2.309026 19.64138348 1 23 C0.34 23 -0.32 23 -1 23 C-1 23.99 -1 24.98 -1 26 C-1.99 26.33 -2.98 26.66 -4 27 C-3.79503906 26.30777344 -3.59007812 25.61554688 -3.37890625 24.90234375 C-1.0759135 16.53884377 -0.34192932 8.63076758 0 0 Z " fill="#A97726" transform="translate(212,381)"/>
<path d="M0 0 C5.59282842 1.36410449 8.91193811 4.15383526 13 8 C10 9 10 9 7.95703125 8.22265625 C7.24933594 7.83980469 6.54164063 7.45695313 5.8125 7.0625 C4.73935547 6.49208984 4.73935547 6.49208984 3.64453125 5.91015625 C3.10183594 5.60980469 2.55914062 5.30945313 2 5 C1.34 6.32 0.68 7.64 0 9 C-8.91 9 -17.82 9 -27 9 C-27 8.67 -27 8.34 -27 8 C-18.42 8 -9.84 8 -1 8 C-1 5.69 -1 3.38 -1 1 C-0.67 0.67 -0.34 0.34 0 0 Z " fill="#BF8833" transform="translate(308,194)"/>
<path d="M0 0 C0.99 0 1.98 0 3 0 C3 9.57 3 19.14 3 29 C2.34 29 1.68 29 1 29 C0.69009554 25.03117457 0.38709344 21.06188972 0.09057617 17.09204102 C-0.01135057 15.74065828 -0.11518726 14.38941822 -0.22094727 13.03833008 C-0.37233388 11.10015495 -0.51636126 9.16140939 -0.66015625 7.22265625 C-0.74918213 6.05484619 -0.83820801 4.88703613 -0.92993164 3.68383789 C-0.9530542 2.79817139 -0.97617676 1.91250488 -1 1 C-0.67 0.67 -0.34 0.34 0 0 Z " fill="#916522" transform="translate(364,436)"/>
<path d="M0 0 C0.66 1.32 1.32 2.64 2 4 C1.67 4.33 1.34 4.66 1 5 C-0.65 5 -2.3 5 -4 5 C-4 21.5 -4 38 -4 55 C-4.33 55 -4.66 55 -5 55 C-5 38.17 -5 21.34 -5 4 C-3.68 3.34 -2.36 2.68 -1 2 C-0.67 1.34 -0.34 0.68 0 0 Z " fill="#AB782D" transform="translate(283,143)"/>
<path d="M0 0 C3.465 1.485 3.465 1.485 7 3 C3.88983545 6.28788824 0.98381075 8.83735988 -3 11 C-3.66 9.68 -4.32 8.36 -5 7 C-3.35 4.69 -1.7 2.38 0 0 Z " fill="#AE8239" transform="translate(327,244)"/>
<path d="M0 0 C1.32 0.33 2.64 0.66 4 1 C4 1.66 4 2.32 4 3 C4.66 3 5.32 3 6 3 C6 3.99 6 4.98 6 6 C6.99 6.33 7.98 6.66 9 7 C10.203125 8.70703125 10.203125 8.70703125 11.25 10.8125 C11.60578125 11.49957031 11.9615625 12.18664062 12.328125 12.89453125 C13.11193544 15.35077442 12.84119973 16.60042386 12 19 C8.75073415 16.23097155 6.91724922 12.61429667 4.875 8.9375 C4.51535156 8.30005859 4.15570313 7.66261719 3.78515625 7.00585938 C2.48201721 4.6899812 1.18857356 2.37714712 0 0 Z " fill="#BC8934" transform="translate(321,154)"/>
<path d="M0 0 C4.94427173 6.16263095 7.68790946 13.0890412 7 21 C5 20 5 20 3.7109375 16.54296875 C3.25760271 15.09363077 2.81264522 13.64165256 2.375 12.1875 C2.14554687 11.46240234 1.91609375 10.73730469 1.6796875 9.99023438 C0.60153622 6.48303394 0 3.69863288 0 0 Z " fill="#B9842C" transform="translate(366,128)"/>
<path d="M0 0 C0.66 0.33 1.32 0.66 2 1 C0.47970107 5.86495658 -2.32652819 10.45835134 -6 14 C-7.32 14 -8.64 14 -10 14 C-8.62408555 9.49700726 -6.64846718 7.84758414 -3 5 C-1.21037181 2.38142305 -1.21037181 2.38142305 0 0 Z " fill="#C68D2E" transform="translate(241,67)"/>
<path d="M0 0 C4.2829452 0.5479083 6.85135641 2.02432804 10.3125 4.5625 C11.19550781 5.20316406 12.07851562 5.84382812 12.98828125 6.50390625 C13.65214844 6.99761719 14.31601563 7.49132812 15 8 C14.67 8.66 14.34 9.32 14 10 C7.56596618 8.81823869 4.14404677 6.02575885 0 1 C0 0.67 0 0.34 0 0 Z " fill="#C48F34" transform="translate(198,235)"/>
<path d="M0 0 C4.25809108 1.74805844 5.42315316 3.91268904 7.31640625 7.95703125 C8.20234642 10.60472672 7.97365381 12.40358984 7 15 C3.49221789 10.79066147 0 5.5744558 0 0 Z " fill="#C38D30" transform="translate(291,125)"/>
<path d="M0 0 C1.44319692 0.90767102 2.87934106 1.82656106 4.3125 2.75 C5.11300781 3.26046875 5.91351563 3.7709375 6.73828125 4.296875 C9.00368861 6.00277761 10.42684167 7.65808145 12 10 C9.525 9.01 9.525 9.01 7 8 C7 7.34 7 6.68 7 6 C4.36 6.33 1.72 6.66 -1 7 C-1.04254356 5.00045254 -1.04080783 2.99958364 -1 1 C-0.67 0.67 -0.34 0.34 0 0 Z " fill="#B5832F" transform="translate(262,9)"/>
<path d="M0 0 C0.33 0 0.66 0 1 0 C1.42337709 3.41384105 1.80884836 6.8309325 2.1875 10.25 C2.30802734 11.21808594 2.42855469 12.18617188 2.55273438 13.18359375 C2.65263672 14.11816406 2.75253906 15.05273438 2.85546875 16.015625 C3.00471802 17.30388184 3.00471802 17.30388184 3.15698242 18.61816406 C2.9617724 21.5800131 1.94737192 22.82106063 0 25 C-1.12298921 16.53438902 -0.80542989 8.48799189 0 0 Z " fill="#9B6F27" transform="translate(171,163)"/>
<path d="M0 0 C1.9375 0.625 1.9375 0.625 4 2 C4.75 5.125 4.75 5.125 5 8 C2.69 7.67 0.38 7.34 -2 7 C-2 7.66 -2 8.32 -2 9 C-2.99 9 -3.98 9 -5 9 C-3.7508258 5.54074837 -2.32472205 2.85306797 0 0 Z " fill="#AD7D2C" transform="translate(273,126)"/>
<path d="M0 0 C3.97968575 1.33817805 6.38748762 3.00337714 9.3125 6 C10.00988281 6.70125 10.70726562 7.4025 11.42578125 8.125 C13 10 13 10 13 12 C8.74551682 10.63647912 6.56990605 8.81930597 3.6875 5.4375 C2.99011719 4.63183594 2.29273438 3.82617188 1.57421875 2.99609375 C0 1 0 1 0 0 Z " fill="#B98531" transform="translate(45,310)"/>
<path d="M0 0 C0.99 0.33 1.98 0.66 3 1 C2.13375 2.2684375 2.13375 2.2684375 1.25 3.5625 C-1.01231071 6.94788639 -3.01094809 10.44812159 -5 14 C-5.33 14 -5.66 14 -6 14 C-6.48792229 10.74718472 -6.40014561 8.65286916 -4.6640625 5.8203125 C-3.15782398 3.8332091 -1.61782175 1.8970886 0 0 Z " fill="#AA7A28" transform="translate(255,124)"/>
<path d="M0 0 C2.22280977 2.60605283 3.98829549 4.97610328 5.5 8.0625 C7.00146739 11.00287365 8.55889886 12.81142657 11 15 C8.05922993 15 6.43493525 14.42678658 4.33203125 12.36328125 C1.63031842 8.99416193 0.09254182 6.86372362 -0.375 2.5 C-0.25125 1.675 -0.1275 0.85 0 0 Z " fill="#B57F2A" transform="translate(314,399)"/>
<path d="M0 0 C2.475 0.495 2.475 0.495 5 1 C5 1.66 5 2.32 5 3 C6.65 3.33 8.3 3.66 10 4 C7.84832931 6.47442129 6.28212246 7.56238367 3 8 C2 7 2 7 1.9375 3.9375 C1.958125 2.968125 1.97875 1.99875 2 1 C1.34 0.67 0.68 0.34 0 0 Z " fill="#A0732A" transform="translate(304,210)"/>
<path d="M0 0 C1.58409994 0.11487748 3.16728963 0.24234508 4.75 0.375 C6.07257813 0.47941406 6.07257813 0.47941406 7.421875 0.5859375 C9.99066382 0.99850055 11.75841015 1.71160957 14 3 C14 3.66 14 4.32 14 5 C8.34388537 5.56561146 4.77357872 3.71391278 0 1 C0 0.67 0 0.34 0 0 Z " fill="#BA832C" transform="translate(85,339)"/>
<path d="M0 0 C0.99 0 1.98 0 3 0 C3.103125 0.61875 3.20625 1.2375 3.3125 1.875 C3.87525373 4.36526484 3.87525373 4.36526484 7 6 C5.35 7.32 3.7 8.64 2 10 C0.39644899 6.49223216 -0.22036864 3.85645121 0 0 Z " fill="#B18233" transform="translate(303,154)"/>
<path d="M0 0 C3.55007718 3.9050849 4.81819916 6.97734643 6 12 C4.125 11.875 4.125 11.875 2 11 C0.30273706 7.26602153 -0.23990744 4.07842654 0 0 Z " fill="#BE852B" transform="translate(309,68)"/>
<path d="M0 0 C0.99 0 1.98 0 3 0 C2.85816304 1.75032844 2.71136571 3.50025534 2.5625 5.25 C2.48128906 6.22453125 2.40007812 7.1990625 2.31640625 8.203125 C2.04925416 10.56461753 1.64628032 12.71901065 1 15 C0.34 15 -0.32 15 -1 15 C-0.67 10.05 -0.34 5.1 0 0 Z " fill="#E7A639" transform="translate(261,16)"/>
<path d="M0 0 C5.28 0 10.56 0 16 0 C16 0.99 16 1.98 16 3 C10.21101581 3.20674944 5.57067277 2.59162079 0 1 C0 0.67 0 0.34 0 0 Z " fill="#AB7929" transform="translate(129,353)"/>
<path d="M0 0 C3.16115776 1.36983503 3.9927092 1.9890638 6 5 C6.125 7.6875 6.125 7.6875 6 10 C2.46413986 6.82679218 0.41421969 4.83256305 0 0 Z " fill="#B68531" transform="translate(183,215)"/>
<path d="M0 0 C0.66 0.33 1.32 0.66 2 1 C0.90716423 2.03295436 -0.19970579 3.05107835 -1.3125 4.0625 C-1.92738281 4.63097656 -2.54226563 5.19945312 -3.17578125 5.78515625 C-3.77777344 6.18605469 -4.37976563 6.58695313 -5 7 C-5.99 6.67 -6.98 6.34 -8 6 C-3.375 1.125 -3.375 1.125 0 0 Z " fill="#C89032" transform="translate(342,239)"/>
<path d="M0 0 C3.63094642 2.64960955 5.89851796 5.01824456 8 9 C6.68 9 5.36 9 4 9 C0 4 0 4 0 0 Z " fill="#BF872F" transform="translate(291,38)"/>
<path d="M0 0 C1.485 0.99 1.485 0.99 3 2 C3.29296875 4.3828125 3.29296875 4.3828125 3.1875 7.125 C3.16042969 8.03507812 3.13335937 8.94515625 3.10546875 9.8828125 C3.07066406 10.58148438 3.03585938 11.28015625 3 12 C2.01 12.495 2.01 12.495 1 13 C0.67 8.71 0.34 4.42 0 0 Z " fill="#C58C2D" transform="translate(212,381)"/>
<path d="M0 0 C2.5 2.3125 2.5 2.3125 5 5 C5 5.99 5 6.98 5 8 C1.74456771 7.65120368 0.98126893 6.97866739 -1.25 4.4375 C-2.11625 3.2309375 -2.11625 3.2309375 -3 2 C-2.01 2 -1.02 2 0 2 C0 1.34 0 0.68 0 0 Z " fill="#956E2D" transform="translate(218,246)"/>
<path d="M0 0 C0.33 0 0.66 0 1 0 C1.02693575 2.12493141 1.04636628 4.24995912 1.0625 6.375 C1.07410156 7.55835938 1.08570313 8.74171875 1.09765625 9.9609375 C1 13 1 13 0 15 C-0.66 15 -1.32 15 -2 15 C-1.47462276 9.9697924 -0.89405214 4.98114761 0 0 Z " fill="#996C20" transform="translate(260,16)"/>
<path d="M0 0 C0.66 0.33 1.32 0.66 2 1 C1.01 3.64 0.02 6.28 -1 9 C-3 7.625 -3 7.625 -5 6 C-5 5.34 -5 4.68 -5 4 C-4.360625 3.71125 -3.72125 3.4225 -3.0625 3.125 C-0.84793921 2.17176549 -0.84793921 2.17176549 0 0 Z " fill="#9D7531" transform="translate(236,161)"/>
<path d="M0 0 C1.65 0.33 3.3 0.66 5 1 C5.33 2.65 5.66 4.3 6 6 C3.69 5.67 1.38 5.34 -1 5 C-0.67 3.35 -0.34 1.7 0 0 Z " fill="#C18829" transform="translate(272,100)"/>
<path d="M0 0 C0.33 0 0.66 0 1 0 C1.33 3.63 1.66 7.26 2 11 C1.01 10.34 0.02 9.68 -1 9 C-1.47114738 6.2572492 -1.17805784 3.80441103 -1 1 C-0.67 0.67 -0.34 0.34 0 0 Z " fill="#C48F34" transform="translate(173,184)"/>
<path d="M0 0 C0.99 0.33 1.98 0.66 3 1 C4.25 7.625 4.25 7.625 2 11 C1.34 7.37 0.68 3.74 0 0 Z " fill="#B38130" transform="translate(300,142)"/>
<path d="M0 0 C2.475 0.99 2.475 0.99 5 2 C4.34 3.32 3.68 4.64 3 6 C1.68 5.67 0.36 5.34 -1 5 C-0.67 3.35 -0.34 1.7 0 0 Z " fill="#9F732C" transform="translate(322,203)"/>
<path d="M0 0 C2.45823172 3.68734758 3.01242616 6.69699971 4 11 C3.01 11 2.02 11 1 11 C0.4254048 7.26513121 0 3.78706732 0 0 Z " fill="#A17326" transform="translate(207,103)"/>
<path d="M0 0 C0.99 0.33 1.98 0.66 3 1 C1.515 4.96 1.515 4.96 0 9 C-0.66 8.01 -1.32 7.02 -2 6 C-1.125 2.8125 -1.125 2.8125 0 0 Z " fill="#A77426" transform="translate(314,147)"/>
<path d="M0 0 C0.99 0.33 1.98 0.66 3 1 C2.34 2.32 1.68 3.64 1 5 C-0.32 5 -1.64 5 -3 5 C-1.125 1.125 -1.125 1.125 0 0 Z " fill="#BF8A2F" transform="translate(255,124)"/>
<path d="M0 0 C1.32 0.33 2.64 0.66 4 1 C4 1.66 4 2.32 4 3 C4.66 3 5.32 3 6 3 C5.67 4.32 5.34 5.64 5 7 C1.125 2.25 1.125 2.25 0 0 Z " fill="#A97A2D" transform="translate(321,154)"/>
</svg>
