<?xml version="1.0" encoding="UTF-8"?>
<svg version="1.1" xmlns="http://www.w3.org/2000/svg" width="1283" height="1289">
<path d="M0 0 C0.71688185 0.00514356 1.4337637 0.01028713 2.17236924 0.01558656 C2.93286962 0.01317214 3.69336999 0.01075772 4.47691584 0.00827014 C7.04030142 0.00260882 9.60344043 0.01131551 12.16681504 0.01990479 C14.00018467 0.01883226 15.83355396 0.01689401 17.66692185 0.01415223 C22.66662534 0.00928656 27.66624012 0.01698847 32.66593289 0.02710527 C37.91966422 0.03589452 43.17339281 0.03412791 48.42712998 0.03374451 C57.28129132 0.03468313 66.13541854 0.04338033 74.98956895 0.05701417 C85.15120868 0.07260604 95.31281071 0.07801701 105.47446156 0.07727861 C116.35313307 0.07659541 127.23179047 0.08359453 138.11045766 0.09272522 C141.20678665 0.094832 144.30311327 0.0955631 147.39944291 0.09596413 C166.14079317 0.10069549 184.87676894 0.11113721 203.61017442 0.71082276 C204.86184278 0.74941061 206.11351113 0.78799845 207.40310884 0.82775563 C215.7545579 1.13474726 215.7545579 1.13474726 216.88263535 2.26282471 C216.98149624 4.81667004 217.01440849 7.34347748 217.00568318 9.8978278 C217.00683703 10.71108939 217.00799087 11.52435098 217.00917968 12.36225685 C217.01185382 15.12275759 217.00731768 17.8832015 217.00288987 20.64369935 C217.00332541 22.62859152 217.0042 24.61348363 217.00547904 26.59837544 C217.00772739 32.08028036 217.00369809 37.56216594 216.99870098 43.0440684 C216.99440152 48.94526478 216.99584254 54.84645997 216.99660325 60.74765748 C216.99716311 71.64892948 216.99326364 82.5501944 216.98726237 93.45146461 C216.98176652 103.52005904 216.97853308 113.58865136 216.9775126 123.65724725 C216.97744386 124.32401131 216.97737512 124.99077537 216.9773043 125.6777444 C216.97696598 129.06369704 216.97666459 132.44964969 216.97637742 135.83560234 C216.97427522 159.8382817 216.96753288 183.84095776 216.95807481 207.84363526 C216.94889518 231.16655175 216.94180921 254.48946733 216.937567 277.81238526 C216.93743547 278.53089463 216.93730394 279.249404 216.93716843 279.98968637 C216.93584995 287.20504211 216.93457413 294.42039785 216.93332957 301.6357536 C216.93079314 316.33516941 216.92797189 331.03458515 216.92497849 345.73400086 C216.9248412 346.40990374 216.92470391 347.08580663 216.92456246 347.78219141 C216.91535683 392.94240417 216.89887186 438.10261383 216.88263535 483.26282471 C254.83263535 483.26282471 292.78263535 483.26282471 331.88263535 483.26282471 C333.41288855 480.20231832 333.01590199 477.00675929 333.00288987 473.64926594 C333.00374412 472.85045468 333.00459837 472.05164341 333.0054785 471.22862574 C333.00713682 468.5232318 333.00159802 465.81789872 332.99616075 463.11251038 C332.99588101 461.16474256 332.99604316 459.21697464 332.99661183 457.26920688 C332.99690871 451.89428649 332.99095352 446.51938796 332.98404193 441.14447266 C332.97769014 435.35631838 332.97710054 429.56816334 332.97586656 423.78000611 C332.97297438 413.74255046 332.96652602 403.70510212 332.95780015 393.66764992 C332.9452699 379.14740221 332.93917485 364.62715723 332.93486679 350.10690501 C332.93286018 343.34585014 332.93053274 336.58479539 332.92812181 329.82374066 C332.92788079 329.14682873 332.92763978 328.46991681 332.92739146 327.7724924 C332.92157698 311.65134866 332.91262082 295.5302069 332.90314317 279.40906495 C332.90272952 278.70348544 332.90231588 277.99790593 332.9018897 277.27094523 C332.89517376 265.8225472 332.88826768 254.37414929 332.88133335 242.92575139 C332.87484219 232.20664763 332.86841839 221.48754383 332.86212754 210.76843995 C332.86171295 210.063996 332.86129836 209.35955205 332.86087121 208.63376131 C332.85142305 192.55113289 332.84287397 176.46850467 332.8371489 160.38587445 C332.83690791 159.70991054 332.83666692 159.03394664 332.83641862 158.33749898 C332.83403322 151.58895609 332.8318053 144.84041316 332.82981237 138.09187014 C332.8253014 122.93970479 332.81726106 107.78754982 332.80407238 92.63538947 C332.79565617 82.71025888 332.79075809 72.78513064 332.78864717 62.85999671 C332.78730005 57.12963078 332.78427801 51.399278 332.77688813 45.6689164 C332.77015125 40.42514317 332.76800054 35.181389 332.76952374 29.93761184 C332.76925179 28.0385007 332.76727209 26.13938889 332.76343095 24.24028162 C332.75845741 21.66202694 332.75964851 19.08384555 332.76238084 16.50558919 C332.75946798 15.76569458 332.75655512 15.02579998 332.75355399 14.26348433 C332.76632042 9.81863025 333.16131338 5.63458312 333.88263535 1.26282471 C337.22063308 0.15015881 339.70430963 0.13583997 343.2224791 0.13343018 C343.87354316 0.13172601 344.52460721 0.13002185 345.19540048 0.12826604 C347.40366891 0.12392205 349.61186556 0.12696246 351.82013535 0.13001221 C353.43078225 0.1286076 355.04142888 0.12685232 356.65207505 0.12477845 C372.19034834 0.11187859 387.72883586 0.16609752 403.26700425 0.21822327 C416.84461406 0.26081203 430.4213387 0.25616423 443.99888778 0.21341342 C456.70134263 0.17386578 469.40350006 0.16870892 482.10599732 0.19087571 C489.55523893 0.20278387 497.00380104 0.19852893 504.45294785 0.15607423 C510.87276642 0.1195137 517.29170544 0.11370667 523.71155798 0.14679468 C527.03089659 0.16287253 530.34817987 0.1590687 533.66744447 0.12609261 C537.30397675 0.0923384 540.93615387 0.11397784 544.57257676 0.14929932 C545.63788117 0.12629195 546.70318559 0.10328458 547.80077195 0.07958001 C554.85384687 0.22870381 554.85384687 0.22870381 557.85302091 3.24342316 C559.39479022 5.52551815 560.67211682 7.79199039 561.88263535 10.26282471 C562.43314561 11.17628663 562.98365586 12.08974854 563.55084825 13.03089112 C564.19654771 14.18597169 564.19654771 14.18597169 564.8552916 15.36438721 C565.60588853 16.7002588 565.60588853 16.7002588 566.37164903 18.06311768 C567.15052476 19.46134766 567.15052476 19.46134766 567.94513535 20.88782471 C569.0883221 22.92430686 570.23155253 24.96076448 571.37482285 26.99719971 C571.95457871 28.03296143 572.53433457 29.06872315 573.13165879 30.13587159 C575.93487328 35.14194676 578.75031486 40.14108772 581.57013535 45.13782471 C582.11355577 46.10091553 582.65697618 47.06400635 583.21686387 48.05628175 C586.38542571 53.6576668 589.60146846 59.22673249 592.88263535 64.76282471 C600.25075042 77.19829763 607.29497111 89.82136406 614.3318541 102.44641846 C620.74221628 113.94244255 627.24550215 125.37175676 633.90704942 136.7242505 C637.79207014 143.35686493 641.57089513 150.03845202 645.27960801 156.77088135 C648.56267326 162.71951787 651.9512798 168.60198633 655.36701035 174.47522706 C659.46773396 181.5314653 663.52397101 188.6126864 667.57013535 195.70032471 C668.07761308 196.58914338 668.07761308 196.58914338 668.59534287 197.49591798 C670.33123211 200.53636796 672.0667503 203.57702951 673.80206895 206.61780518 C677.15973099 212.50092178 680.52140154 218.38174835 683.88263535 224.26282471 C685.21471069 226.59352869 686.54675052 228.92425295 687.8787291 231.25501221 C688.20854783 231.83214463 688.53836656 232.40927705 688.87817979 233.00389832 C690.88926857 236.52336506 692.89920898 240.04348493 694.90827012 243.5641095 C696.58685226 246.50556084 698.26592451 249.44673225 699.94513535 252.38782471 C700.27608201 252.96755036 700.60702867 253.54727601 700.94800401 254.1445691 C705.77365061 262.59585325 710.63297003 271.027227 715.50763535 279.45032471 C720.98876633 288.92346017 726.36126811 298.452343 731.68610215 308.01404542 C735.64641572 315.10628794 739.70435678 322.13482371 743.82013535 329.13782471 C748.79988266 337.61253548 753.63331271 346.15693688 758.38263535 354.76282471 C764.78235826 366.35391969 771.39932757 377.80265038 778.10138535 389.22083253 C786.15047536 402.9669484 794.07980422 416.77807407 801.82013535 430.70032471 C808.07572386 441.94481885 814.59632464 453.01618796 821.1912291 464.06360596 C821.79692735 465.08792725 822.40262559 466.11224854 823.02667832 467.16760987 C824.30474352 469.29906351 825.61301938 471.41259611 826.94562364 473.51038331 C827.59643907 474.55661866 828.2472545 475.60285401 828.9177916 476.68079346 C829.51084092 477.61044923 830.10389024 478.54010499 830.71491075 479.49793214 C832.18409505 482.97660918 831.92574791 484.66223316 830.88263535 488.26282471 C829.61432481 490.93396729 829.61432481 490.93396729 827.9959166 493.65735596 C827.09377427 495.19480469 827.09377427 495.19480469 826.17340684 496.763313 C825.19416245 498.4027588 825.19416245 498.4027588 824.19513535 500.07532471 C823.16498864 501.82420944 822.13847121 503.57518835 821.11232591 505.32642335 C820.40893889 506.52678002 819.70457328 507.72656376 818.99925828 508.92578858 C815.51345172 514.86164961 812.16093698 520.86933584 808.82013535 526.88782471 C803.67896866 536.12062999 798.40953062 545.26975257 793.06207871 554.38440675 C789.10347138 561.14133041 785.22002309 567.93639976 781.38263535 574.76282471 C776.97752961 582.59917742 772.49420538 590.38418758 767.94513535 598.13782471 C763.16153874 606.29433424 758.48155903 614.50081979 753.88263535 622.76282471 C748.19730528 632.9728092 742.35847881 643.08358962 736.4490416 653.16516846 C732.72928624 659.51329086 729.05368286 665.88644584 725.38263535 672.26282471 C720.57431336 680.61092442 715.74327961 688.94508237 710.88263535 697.26282471 C700.22741596 715.51197107 689.65577436 733.79341324 679.43976426 752.29285401 C674.77480148 760.71695564 669.9612839 769.04421097 665.08160996 777.34534425 C660.92340003 784.43473215 656.87922068 791.58122547 652.88263535 798.76282471 C647.13034496 809.08895418 641.26989235 819.34328624 635.2381041 829.50891846 C633.02957962 833.24433961 630.93964259 837.0128964 628.9334166 840.86048096 C622.82333263 852.3239337 617.22755487 858.27800057 605.57843614 863.90735596 C600.64748989 866.38667253 595.90326441 869.20607352 591.1278441 871.96958131 C588.70660212 873.36689973 586.27738621 874.75002851 583.84816575 876.13341492 C576.7267086 880.19018687 569.64166523 884.30707304 562.57013535 888.45032471 C553.97644834 893.48307214 545.33453034 898.42126226 536.65558457 903.30530518 C528.37895073 907.96801951 520.14970889 912.71025654 511.92609239 917.46570557 C503.92584357 922.08987066 495.90875148 926.6837861 487.88263535 931.26282471 C478.86891567 936.40585841 469.86808884 941.57050062 460.88263535 946.76282471 C451.89717973 951.95515004 442.89618238 957.11948634 433.88263535 962.26282471 C418.31764324 971.14547966 402.79780719 980.10583269 387.2849791 989.07923096 C372.20716389 997.79628455 357.07500544 1006.41121037 341.8919127 1014.94348878 C327.18703332 1023.20215342 327.18703332 1023.20215342 312.67951035 1031.79968995 C304.03212329 1037.03332009 295.18749787 1041.94179801 286.3552916 1046.85510987 C284.82275026 1047.72760527 283.30563231 1048.62863265 281.8162291 1049.57288331 C277.45879955 1052.3174522 277.45879955 1052.3174522 274.53424668 1052.04016846 C271.51836149 1051.15603455 269.07379852 1049.9139983 266.3318541 1048.37610596 C265.25363389 1047.77483887 264.17541368 1047.17357178 263.06452012 1046.55408448 C261.89955943 1045.89479071 260.73476895 1045.23519612 259.57013535 1044.57532471 C258.35410523 1043.8926005 257.13787498 1043.21023264 255.92145371 1042.52820557 C247.23086735 1037.64306377 238.60577587 1032.64700532 230.00739121 1027.60144776 C222.41210841 1023.14457787 214.78200887 1018.75099431 207.13263535 1014.38782471 C206.54813615 1014.05437043 205.96363694 1013.72091614 205.36142564 1013.37735718 C202.39034688 1011.682611 199.41882657 1009.98864099 196.44708848 1008.29505128 C191.17106114 1005.28775176 185.89900924 1002.27349612 180.62668443 999.25971192 C177.72128116 997.59900214 174.81561702 995.93874891 171.9099791 994.27844971 C170.74445051 993.61243628 169.57892317 992.94642065 168.41339707 992.28040284 C167.83321824 991.94887208 167.25303941 991.61734132 166.6552794 991.27576417 C154.91726263 984.56832602 143.17924587 977.86088787 131.4412291 971.15344971 C130.59834336 970.67182374 129.75545762 970.19019776 128.88702989 969.69397706 C127.21995753 968.74131785 125.55296509 967.78851879 123.88605332 966.83557862 C118.99491529 964.0397047 114.10172524 961.24747096 109.2068541 958.45813721 C98.06966416 952.1090011 86.9466474 945.73907096 75.88263535 939.26282471 C58.76726191 929.24640886 41.53175725 919.43995718 24.25763535 909.70032471 C12.86050317 903.27328828 1.52884485 896.73478433 -9.79705215 890.18323487 C-15.33956102 886.97754554 -20.88444643 883.77597804 -26.42986465 880.57532471 C-27.50341201 879.95552735 -28.57695937 879.33572999 -29.68303847 878.69715089 C-37.47233504 874.20330311 -45.27526815 869.73377649 -53.09514785 865.29334229 C-54.65405763 864.40586883 -56.20950734 863.51228556 -57.76116347 862.61218995 C-59.4129409 861.66623887 -61.08118286 860.74873492 -62.76067519 859.8529126 C-68.61717777 856.61464927 -71.89437988 853.77020158 -74.92986465 847.82532471 C-75.33181045 847.09434571 -75.73375625 846.36336671 -76.14788222 845.61023682 C-77.02416236 844.01541693 -77.89028671 842.41498338 -78.74724746 840.80969971 C-80.67144936 837.23285114 -82.68023327 833.70600304 -84.68645644 830.17468995 C-86.34115032 827.26144025 -87.98535601 824.34242993 -89.6290834 821.42298096 C-93.2494102 815.01162162 -96.92973082 808.63564258 -100.61736465 802.26282471 C-105.32797029 794.12042111 -110.00167866 785.95941372 -114.61736465 777.76282471 C-119.79208585 768.57557249 -125.04213979 759.43384889 -130.32048965 750.30579346 C-134.94463422 742.30573965 -139.53814966 734.28863229 -144.11736465 726.26282471 C-154.0740581 708.81757335 -164.09779936 691.41207972 -174.24236465 674.07532471 C-179.3198441 665.39662486 -184.29822605 656.66693082 -189.22551894 647.90222901 C-193.10061992 641.02338273 -197.05965333 634.19750337 -201.05486465 627.38782471 C-205.89944661 619.12662979 -210.64187579 610.8153551 -215.30486465 602.45032471 C-221.13573932 591.99039546 -227.07736326 581.60317702 -233.11736465 571.26282471 C-234.20592301 569.39825113 -235.29446385 567.53366732 -236.38298965 565.66907471 C-237.23618789 564.20764039 -237.23618789 564.20764039 -238.10662246 562.71668214 C-260.69484893 524.02040675 -260.69484893 524.02040675 -268.59807754 509.56336182 C-270.64358078 505.83949694 -272.75852816 502.17903331 -274.98455215 498.55969971 C-275.69164321 497.40063111 -275.69164321 497.40063111 -276.41301894 496.21814698 C-277.31579751 494.74719274 -278.23067141 493.28356765 -279.15960097 491.82898682 C-280.82863464 489.10273143 -282.110516 486.99677152 -282.14080215 483.75110596 C-280.70673379 480.26445887 -278.94441757 477.01652723 -277.05486465 473.76282471 C-276.51829238 472.81536378 -276.51829238 472.81536378 -275.97088027 471.84876221 C-273.49421898 467.51566698 -270.88838632 463.27124094 -268.2540834 459.03235596 C-264.28979548 452.61398505 -260.61301111 446.06697878 -256.99236465 439.45032471 C-251.52505652 429.51883959 -245.91646338 419.6797049 -240.17742324 409.90222901 C-235.94508114 402.69146137 -231.78041562 395.44516074 -227.64690566 388.1773755 C-224.5085474 382.66961617 -221.32232684 377.19231949 -218.10955215 371.72766846 C-211.93160026 361.21406873 -205.96044456 350.60670344 -200.10399795 339.91233033 C-194.8798796 330.37838527 -189.49388109 320.95430774 -183.98235488 311.58264893 C-180.63843618 305.89085205 -177.36124432 300.17197106 -174.17986465 294.38782471 C-167.67722522 282.57404423 -160.87492923 270.93192766 -154.11736465 259.26282471 C-143.47080541 240.8664542 -132.90347627 222.42984777 -122.54705215 203.86829346 C-117.11928184 194.14164708 -111.68588656 184.42753768 -106.00628066 174.84534425 C-96.59553385 158.96317021 -87.45121692 142.92732197 -78.46038222 126.80432862 C-73.70603266 118.28742428 -68.87865349 109.81367372 -64.03075576 101.34986085 C-59.51207615 93.46075496 -55.01744474 85.55881824 -50.55486465 77.63782471 C-44.13565508 66.25357939 -37.60400699 54.93538625 -31.05974746 43.622688 C-29.06343228 40.16953447 -27.07022132 36.7146087 -25.07830215 33.25891846 C-24.74504928 32.68084946 -24.41179641 32.10278046 -24.06844497 31.50719422 C-22.47989492 28.75161886 -20.89152769 25.99593832 -19.3033998 23.24011964 C-18.15413073 21.2472723 -17.00361408 19.25514383 -15.85173965 17.26380128 C-14.62906931 15.1482236 -13.41071975 13.03014589 -12.19548965 10.91028565 C-11.5715834 9.82779542 -10.94767715 8.74530518 -10.30486465 7.63001221 C-9.74154433 6.64887452 -9.17822402 5.66773682 -8.5978334 4.65686768 C-6.07194188 0.57228784 -4.73864597 0.03348454 0 0 Z " fill="#F2A70F" transform="translate(358.1173646450043,193.7371752858162)"/>
<path d="M0 0 C24.38518342 -0.02349522 48.77036512 -0.04106001 73.15555763 -0.05181217 C84.48131313 -0.05694015 95.80706155 -0.06391507 107.1328125 -0.07543945 C117.01922529 -0.08549435 126.90563295 -0.09187877 136.79205072 -0.09408849 C142.01326597 -0.09537751 147.23446655 -0.0983458 152.45567703 -0.10573006 C190.06566744 -0.15673785 190.06566744 -0.15673785 208.73193359 0.44360352 C209.98333445 0.48245887 211.2347353 0.52131422 212.52405739 0.56134701 C220.87101407 0.87101407 220.87101407 0.87101407 222 2 C222.09886089 4.55384532 222.13177314 7.08065277 222.12304783 9.63500309 C222.12420167 10.44826468 222.12535552 11.26152626 222.12654433 12.09943214 C222.12921846 14.85993287 222.12468233 17.62037678 222.12025452 20.38087463 C222.12069006 22.3657668 222.12156464 24.35065892 222.12284368 26.33555073 C222.12509204 31.81745565 222.12106273 37.29934123 222.11606562 42.78124368 C222.11176616 48.68244006 222.11320718 54.58363526 222.1139679 60.48483276 C222.11452775 71.38610477 222.11062828 82.28736968 222.10462701 93.1886399 C222.09913117 103.25723432 222.09589773 113.32582665 222.09487724 123.39442253 C222.0948085 124.06118659 222.09473976 124.72795065 222.09466894 125.41491969 C222.09433062 128.80087233 222.09402923 132.18682497 222.09374207 135.57277762 C222.09163986 159.57545699 222.08489752 183.57813305 222.07543945 207.58081055 C222.06625982 230.90372703 222.05917386 254.22664262 222.05493164 277.54956055 C222.05480011 278.26806991 222.05466859 278.98657928 222.05453308 279.72686166 C222.05321459 286.9422174 222.05193877 294.15757314 222.05069422 301.37292889 C222.04815779 316.07234469 222.04533653 330.77176043 222.04234314 345.47117615 C222.0421372 346.48503047 222.0421372 346.48503047 222.04192711 347.5193667 C222.03272147 392.67957946 222.0162365 437.83978911 222 483 C255.99 483 289.98 483 325 483 C325 483.33 325 483.66 325 484 C290.68 484 256.36 484 221 484 C220.67 484.66 220.34 485.32 220 486 C218.26035851 484.26035851 218.87650891 482.00339665 218.86899152 479.68473557 C218.87161854 478.91406808 218.87424555 478.14340059 218.87695217 477.34937954 C218.87579833 476.53442958 218.87464448 475.71947962 218.87345567 474.8798342 C218.87078153 472.11359011 218.87531768 469.34740272 218.87974548 466.5811615 C218.87930994 464.59214453 218.87843536 462.60312761 218.87715632 460.61411101 C218.87490796 455.12080453 218.87893727 449.62751735 218.88393438 444.13421333 C218.88823383 438.2207469 218.88679282 432.30728164 218.8860321 426.39381409 C218.88547225 415.46987186 218.88937172 404.5459367 218.89537299 393.62199625 C218.90086883 383.53246244 218.90410227 373.44293072 218.90512276 363.35339546 C218.9051915 362.68524505 218.90526024 362.01709465 218.90533106 361.32869726 C218.90566938 357.93570457 218.90597077 354.54271188 218.90625793 351.14971919 C218.90836014 327.09712552 218.91510248 303.04453516 218.92456055 278.99194336 C218.93374017 255.62052426 218.94080924 232.24910608 218.94506836 208.87768555 C218.945339 207.40882852 218.94560971 205.93997149 218.94588047 204.47111446 C218.94796595 193.0993635 218.94991674 181.72761253 218.95183504 170.35586154 C218.9612768 114.57057126 218.98139319 58.78528944 219 3 C146.4 3 73.8 3 -1 3 C-0.67 2.01 -0.34 1.02 0 0 Z " fill="#C3922C" transform="translate(353,194)"/>
<path d="M0 0 C72.93 0 145.86 0 221 0 C221 0.33 221 0.66 221 1 C148.4 1 75.8 1 1 1 C1.02320313 35.69898438 1.04640625 70.39796875 1.0703125 106.1484375 C1.080525 128.05989603 1.09024715 149.97135311 1.09765625 171.8828125 C1.10131733 182.65484588 1.1050716 193.42687923 1.10905199 204.1989125 C1.10959167 205.66010249 1.11012841 207.12129247 1.11066218 208.58248246 C1.11920253 231.89490486 1.13421505 255.20731759 1.15259444 278.51973414 C1.17144296 302.47056688 1.18376701 326.42139427 1.18782998 350.37223431 C1.18840633 353.75172296 1.1890576 357.1312116 1.18975449 360.51070023 C1.18995676 361.50844103 1.18995676 361.50844103 1.19016311 362.52633821 C1.19238376 372.58733279 1.20037665 382.64831257 1.21146011 392.70930099 C1.22401417 404.14642789 1.22995105 415.58353295 1.22700275 427.02066682 C1.2257159 432.86180224 1.2277521 438.70288902 1.23841095 444.54401588 C1.24808332 449.88323342 1.24867442 455.22236923 1.24179779 460.56159039 C1.24094684 462.50104951 1.24353466 464.44051355 1.24976636 466.37996285 C1.2577028 469.00072724 1.25352171 471.6211901 1.24609566 474.24194908 C1.25134968 475.00838521 1.25660371 475.77482134 1.26201695 476.56448281 C1.2282916 481.7717084 1.2282916 481.7717084 -1 484 C-3.08894539 484.24609566 -3.08894539 484.24609566 -5.72024536 484.24050903 C-6.71586487 484.24325836 -7.71148438 484.24600769 -8.73727417 484.24884033 C-9.83347076 484.24164978 -10.92966736 484.23445923 -12.05908203 484.22705078 C-13.21029541 484.22734283 -14.36150879 484.22763489 -15.54760742 484.22793579 C-19.36775142 484.22653807 -23.18770241 484.21095592 -27.0078125 484.1953125 C-29.65054213 484.19158395 -32.29327314 484.18873623 -34.93600464 484.18673706 C-41.19043134 484.18051494 -47.44478833 484.16409429 -53.6991843 484.14403808 C-60.8187952 484.12170179 -67.93840938 484.11069137 -75.05804658 484.10064721 C-89.70540039 484.07972866 -104.35269922 484.04453851 -119 484 C-119 483.34 -119 482.68 -119 482 C-80.72 481.67 -42.44 481.34 -3 481 C-1.7391254 478.8509288 -1.7391254 478.8509288 -2 475.5 C-2 472 -2 472 -1 470 C-0.8983935 467.46233657 -0.85786834 464.95185336 -0.8613348 462.41374016 C-0.85849258 461.61789684 -0.85565036 460.82205352 -0.85272202 460.00209373 C-0.84432958 457.30687674 -0.84310326 454.61170248 -0.84178162 451.91647339 C-0.83721936 449.97609006 -0.83221984 448.03570772 -0.82681805 446.09532654 C-0.81318923 440.74110771 -0.80580492 435.38689526 -0.79939139 430.03266358 C-0.7914082 424.2671294 -0.77770331 418.50160858 -0.76467896 412.73608398 C-0.74288658 402.73954561 -0.72475222 392.74300591 -0.70907402 382.74645615 C-0.68640048 368.29296681 -0.65825421 353.83949225 -0.62875474 339.38601543 C-0.58104791 315.93850248 -0.5377836 292.49098351 -0.49731445 269.04345703 C-0.45798246 246.26090016 -0.41654745 223.47834869 -0.37231445 200.69580078 C-0.36953711 199.26379025 -0.36675983 197.83177972 -0.36398262 196.39976919 C-0.34247072 185.31316642 -0.32082469 174.22656392 -0.29914629 163.13996148 C-0.19284463 108.75998518 -0.09717359 54.37999486 0 0 Z " fill="#F2B73F" transform="translate(693,196)"/>
<path d="M0 0 C24.38518342 -0.02349522 48.77036512 -0.04106001 73.15555763 -0.05181217 C84.48131313 -0.05694015 95.80706155 -0.06391507 107.1328125 -0.07543945 C117.01922529 -0.08549435 126.90563295 -0.09187877 136.79205072 -0.09408849 C142.01326597 -0.09537751 147.23446655 -0.0983458 152.45567703 -0.10573006 C175.32609633 -0.13686291 198.14853867 -0.00875436 221 1 C220.34 2.32 219.68 3.64 219 5 C219 4.34 219 3.68 219 3 C146.4 3 73.8 3 -1 3 C-0.67 2.01 -0.34 1.02 0 0 Z " fill="#C7923C" transform="translate(353,194)"/>
<path d="M0 0 C0.33 0 0.66 0 1 0 C1.04666815 20.56608928 1.08196335 41.13216987 1.10362434 61.69830132 C1.1139481 71.24696495 1.12802936 80.79559573 1.15087891 90.34423828 C1.17077921 98.66436443 1.18370843 106.9844668 1.18817699 115.30461609 C1.19079008 119.71230203 1.19695466 124.1199199 1.21146011 128.52758408 C1.22499102 132.6725337 1.2292318 136.81738695 1.22621536 140.96235657 C1.22676755 142.48700102 1.23077167 144.01164855 1.23841095 145.53627396 C1.24830216 147.61136938 1.24599054 149.68609673 1.24050903 151.76119995 C1.24235262 152.9245027 1.24419621 154.08780544 1.24609566 155.28635979 C1 158 1 158 -1 160 C-3.08894539 160.24609566 -3.08894539 160.24609566 -5.72024536 160.24050903 C-6.71586487 160.24325836 -7.71148438 160.24600769 -8.73727417 160.24884033 C-9.83347076 160.24164978 -10.92966736 160.23445923 -12.05908203 160.22705078 C-13.21029541 160.22734283 -14.36150879 160.22763489 -15.54760742 160.22793579 C-19.36775142 160.22653807 -23.18770241 160.21095592 -27.0078125 160.1953125 C-29.65054213 160.19158395 -32.29327314 160.18873623 -34.93600464 160.18673706 C-41.19043134 160.18051494 -47.44478833 160.16409429 -53.6991843 160.14403808 C-60.8187952 160.12170179 -67.93840938 160.11069137 -75.05804658 160.10064721 C-89.70540039 160.07972866 -104.35269922 160.04453851 -119 160 C-119 159.34 -119 158.68 -119 158 C-80.72 157.67 -42.44 157.34 -3 157 C-1.7391254 154.8509288 -1.7391254 154.8509288 -2 151.5 C-2 148 -2 148 -1 146 C-0.89430536 144.07443278 -0.85335882 142.14519745 -0.84178162 140.21676636 C-0.8319928 138.98555054 -0.82220398 137.75433472 -0.81211853 136.48580933 C-0.80621397 135.1140751 -0.80040355 133.74234046 -0.79467773 132.37060547 C-0.78510169 130.93190223 -0.77509177 129.49320182 -0.76467896 128.05450439 C-0.73759412 124.14154255 -0.71660397 120.2285686 -0.69667697 116.31556463 C-0.67483945 112.22891873 -0.64743985 108.14231028 -0.62062073 104.05569458 C-0.57066357 96.31385121 -0.52573598 88.57198708 -0.48259836 80.83010304 C-0.43325179 72.01762406 -0.37832411 63.20518266 -0.32291877 54.39274001 C-0.20905233 36.26186155 -0.10222347 18.13094765 0 0 Z " fill="#E6B14E" transform="translate(693,520)"/>
<path d="M0 0 C2.64 0 5.28 0 8 0 C5.94766315 2.2477975 4.99332739 3.0022242 2 4 C2.00037972 4.67087241 2.00075944 5.34174483 2.00115067 6.03294671 C2.02357281 45.87432023 2.04070876 85.71569294 2.05106533 125.55707151 C2.0523159 130.35054769 2.05361024 135.14402385 2.05493164 139.9375 C2.05519395 140.89171651 2.05545626 141.84593302 2.05572652 142.82906519 C2.0600671 158.24010361 2.06794573 173.65113826 2.0771528 189.06217445 C2.08653427 204.89827424 2.09206509 220.73437206 2.09408849 236.57047451 C2.09545442 246.32681239 2.09975425 256.08313964 2.10791647 265.83947425 C2.11323946 272.54747488 2.11479179 279.25547009 2.11350138 285.96347268 C2.1128666 289.82231317 2.11377639 293.68113518 2.11920547 297.53997231 C2.14133463 314.05191459 1.95997392 330.51124336 1 347 C0.67 347 0.34 347 0 347 C0 232.49 0 117.98 0 0 Z " fill="#F2B01C" transform="translate(694,197)"/>
<path d="M0 0 C56.76 0 113.52 0 172 0 C171.67 0.66 171.34 1.32 171 2 C170.31292969 1.98839844 169.62585938 1.97679687 168.91796875 1.96484375 C168.01691406 1.95582031 167.11585938 1.94679687 166.1875 1.9375 C165.29417969 1.92589844 164.40085937 1.91429687 163.48046875 1.90234375 C160.86586209 1.88990033 160.86586209 1.88990033 158 3 C155.99643813 2.68879115 153.99677728 2.3521244 152 2 C149.73830563 1.91077133 147.47439025 1.86939206 145.2109375 1.8671875 C143.30441406 1.86525391 143.30441406 1.86525391 141.359375 1.86328125 C139.38710938 1.86908203 139.38710938 1.86908203 137.375 1.875 C136.03906155 1.8714349 134.70312395 1.86753166 133.3671875 1.86328125 C132.09875 1.86457031 130.8303125 1.86585938 129.5234375 1.8671875 C128.36763184 1.86831543 127.21182617 1.86944336 126.02099609 1.87060547 C123.11555286 1.88703426 123.11555286 1.88703426 120.84228516 2.57080078 C118.55928299 3.10267433 117.25062582 2.6066089 115 2 C113.08344665 1.91945799 111.1643128 1.8923714 109.24609375 1.90234375 C108.14458984 1.90556641 107.04308594 1.90878906 105.90820312 1.91210938 C104.19020508 1.92467773 104.19020508 1.92467773 102.4375 1.9375 C101.28830078 1.94201172 100.13910156 1.94652344 98.95507812 1.95117188 C96.8273821 1.95989705 94.69969283 1.97067213 92.57202148 1.98413086 C90.71470881 1.99559031 88.85734803 2 87 2 C85.64792856 2.07607342 84.29637465 2.16162732 82.9453125 2.25390625 C82.16542969 2.30353516 81.38554688 2.35316406 80.58203125 2.40429688 C78.95153427 2.50928118 77.32131128 2.61861631 75.69140625 2.73242188 C71.5545156 2.98799584 68.06944957 2.92065494 64 2 C63.34 2.33 62.68 2.66 62 3 C58.38372443 2.82273159 54.79327693 2.48136103 51.1875 2.15625 C48.10350395 1.74388588 48.10350395 1.74388588 46 3 C42.3364663 3.95949692 40.22120706 4.06241734 36.5390625 3.0234375 C31.05377016 1.5718188 25.63497418 1.82242936 20 1.9375 C13.21803612 2.05081252 6.71235387 2.04073756 0 1 C0 0.67 0 0.34 0 0 Z " fill="#F0AA20" transform="translate(720,197)"/>
<path d="M0 0 C0.33 0 0.66 0 1 0 C1.28571429 7.42857143 1.28571429 7.42857143 -1 11 C-1.66 11 -2.32 11 -3 11 C-3.09796875 11.71671875 -3.1959375 12.4334375 -3.296875 13.171875 C-4.10180996 16.40950229 -5.39176319 18.48688266 -7.25 21.25 C-10.01745775 25.45517193 -12.57048253 29.69400169 -14.95703125 34.125 C-15.88821105 35.79903111 -16.93742316 37.40613475 -18 39 C-18.66 39 -19.32 39 -20 39 C-20.33 40.98 -20.66 42.96 -21 45 C-22.485 45.495 -22.485 45.495 -24 46 C-24.33 46.99 -24.66 47.98 -25 49 C-25.66 49 -26.32 49 -27 49 C-25.70799583 45.62974893 -24.25661657 42.46610097 -22.53125 39.296875 C-22.04712646 38.40669678 -21.56300293 37.51651855 -21.06420898 36.59936523 C-20.54802002 35.65907471 -20.03183105 34.71878418 -19.5 33.75 C-18.96898682 32.7794165 -18.43797363 31.80883301 -17.89086914 30.80883789 C-13.41192744 22.66391079 -8.77581516 14.61879253 -3.98779297 6.65185547 C-3.07260811 5.12142028 -2.17796172 3.57875387 -1.28515625 2.03515625 C-0.86105469 1.36355469 -0.43695313 0.69195312 0 0 Z " fill="#C58F31" transform="translate(332,229)"/>
<path d="M0 0 C2.46225954 3.12686411 4.44438454 6.38708348 6.40625 9.84765625 C6.72779053 10.41271378 7.04933105 10.9777713 7.38061523 11.55995178 C8.42294057 13.39271029 9.46155023 15.22754326 10.5 17.0625 C11.93633795 19.59310886 13.37430472 22.12279008 14.8125 24.65234375 C15.16880493 25.27959351 15.52510986 25.90684326 15.89221191 26.55310059 C18.07112869 30.38412736 20.27347534 34.20025995 22.5 38.00390625 C23.01240234 38.87974365 23.52480469 39.75558105 24.05273438 40.65795898 C24.99852027 42.27016656 25.94760243 43.88044614 26.90039062 45.48852539 C30 50.78087942 30 50.78087942 30 53 C25.36363636 51.53588517 25.36363636 51.53588517 23.8125 49.25 C23.17925401 47.49639572 22.60824757 45.72027538 22.0625 43.9375 C21.23785982 41.00795814 21.23785982 41.00795814 19.375 39.375 C18.92125 38.92125 18.4675 38.4675 18 38 C18 36.68 18 35.36 18 34 C16.515 33.505 16.515 33.505 15 33 C14.67 31.02 14.34 29.04 14 27 C13.01 27 12.02 27 11 27 C10.70996094 26.04287109 10.70996094 26.04287109 10.4140625 25.06640625 C10.15367188 24.24011719 9.89328125 23.41382813 9.625 22.5625 C9.36976562 21.73878906 9.11453125 20.91507813 8.8515625 20.06640625 C8.19117773 17.82201984 8.19117773 17.82201984 6 17 C6 15.68 6 14.36 6 13 C5.01 12.67 4.02 12.34 3 12 C3 10.68 3 9.36 3 8 C2.01 7.67 1.02 7.34 0 7 C0 4.69 0 2.38 0 0 Z " fill="#CA902F" transform="translate(1108,535)"/>
<path d="M0 0 C4.95621512 0.49562151 8.70281375 1.44215104 13 4 C13.33 4.66 13.66 5.32 14 6 C14.99 6.33 15.98 6.66 17 7 C20 8 20 8 21 10 C23.02463255 10.65213292 23.02463255 10.65213292 25 11 C25 11.66 25 12.32 25 13 C25.78375 13.144375 26.5675 13.28875 27.375 13.4375 C30 14 30 14 32 15 C32 15.66 32 16.32 32 17 C32.78375 17.144375 33.5675 17.28875 34.375 17.4375 C37 18 37 18 39 19 C39 19.66 39 20.32 39 21 C39.680625 21.0825 40.36125 21.165 41.0625 21.25 C44.8746907 22.22332528 47.64070329 23.95807455 51 26 C50.505 27.485 50.505 27.485 50 29 C46.09928489 27.54731989 42.5925133 25.72731915 38.984375 23.65625 C38.41517334 23.33060562 37.84597168 23.00496124 37.25952148 22.66944885 C35.42105181 21.6163438 33.58540564 20.55843479 31.75 19.5 C30.48868459 18.77517381 29.22729103 18.0504836 27.96582031 17.32592773 C24.87149981 15.54694031 21.78001342 13.76310092 18.68994141 11.97674561 C17.13628614 11.07877012 15.58185212 10.18214238 14.02734375 9.28564453 C11.59855921 7.88301252 9.17322452 6.47471031 6.75 5.0625 C6.04842773 4.65644531 5.34685547 4.25039062 4.62402344 3.83203125 C3.0653311 2.91695399 1.52927108 1.96344078 0 1 C0 0.67 0 0.34 0 0 Z " fill="#D29527" transform="translate(403,1114)"/>
<path d="M0 0 C-2.8442308 2.22242678 -5.74212045 4.06527562 -8.89453125 5.8203125 C-9.84344238 6.35156738 -10.79235352 6.88282227 -11.77001953 7.43017578 C-12.77403809 7.98946777 -13.77805664 8.54875977 -14.8125 9.125 C-24.92483387 14.79583821 -34.95412379 20.57399889 -44.7734375 26.7421875 C-47 28 -47 28 -49 28 C-49 27.01 -49 26.02 -49 25 C-47.865625 24.566875 -46.73125 24.13375 -45.5625 23.6875 C-44.386875 23.130625 -43.21125 22.57375 -42 22 C-41.67 21.01 -41.34 20.02 -41 19 C-39.35 19 -37.7 19 -36 19 C-36 18.34 -36 17.68 -36 17 C-35.01 17 -34.02 17 -33 17 C-33 16.34 -33 15.68 -33 15 C-28.05 13.515 -28.05 13.515 -23 12 C-23 11.34 -23 10.68 -23 10 C-20.69 9.34 -18.38 8.68 -16 8 C-16 7.34 -16 6.68 -16 6 C-14.35 5.67 -12.7 5.34 -11 5 C-11 4.34 -11 3.68 -11 3 C-7.14243493 0.84694043 -4.44870215 -0.39253254 0 0 Z " fill="#B6852E" transform="translate(707,1204)"/>
<path d="M0 0 C2.57568485 2.33531293 4.14122993 4.7622502 5.8203125 7.796875 C6.35188965 8.74925049 6.8834668 9.70162598 7.43115234 10.68286133 C7.99012207 11.69501709 8.5490918 12.70717285 9.125 13.75 C13.43521876 21.49251975 17.79337987 29.1767812 22.54736328 36.65722656 C23.42351865 38.07011462 24.22144579 39.53107038 25 41 C24.67 41.66 24.34 42.32 24 43 C19.69534183 40.05470757 18.49658793 37.91736035 17 33 C16.01 32.34 15.02 31.68 14 31 C13.32215008 28.66989091 12.65583207 26.33640176 12 24 C10.50014391 22.33289654 10.50014391 22.33289654 9 21 C8.66666667 19.66666667 8.33333333 18.33333333 8 17 C7.505 16.505 7.01 16.01 6.5 15.5 C5 14 5 14 4.5625 12.0625 C4.14140917 9.79148139 4.14140917 9.79148139 1.9375 8.125 C0 6 0 6 -0.25 2.75 C-0.1675 1.8425 -0.085 0.935 0 0 Z " fill="#C98F32" transform="translate(1083,492)"/>
<path d="M0 0 C0.721875 0.144375 1.44375 0.28875 2.1875 0.4375 C4.01116056 0.80223211 5.84556859 1.11798631 7.6875 1.375 C10 2 10 2 12 5 C13.99172182 5.69100553 15.99161804 6.35902703 18 7 C18.33 7.66 18.66 8.32 19 9 C20.71568102 9.79852014 20.71568102 9.79852014 22.75 10.4375 C31.22509552 13.45019105 31.22509552 13.45019105 33 17 C33.99 17.33 34.98 17.66 36 18 C39 19 39 19 40 21 C42.01669827 22.13350534 42.01669827 22.13350534 44 23 C41.28808744 24.0828583 40.23712963 24.09715744 37.48901367 22.97119141 C36.09259644 22.1694751 36.09259644 22.1694751 34.66796875 21.3515625 C33.10840454 20.46730591 33.10840454 20.46730591 31.51733398 19.56518555 C30.41848877 18.92492432 29.31964355 18.28466309 28.1875 17.625 C27.06996338 16.9853833 25.95242676 16.3457666 24.80102539 15.68676758 C21.52542245 13.8055619 18.26101081 11.90636596 15 10 C14.12923828 9.49355957 13.25847656 8.98711914 12.36132812 8.46533203 C10.2152025 7.21402107 8.07416639 5.95488237 5.9375 4.6875 C5.31963623 4.32156738 4.70177246 3.95563477 4.06518555 3.57861328 C2.69162764 2.74895284 1.34218341 1.87951206 0 1 C0 0.67 0 0.34 0 0 Z " fill="#C98F2C" transform="translate(513,1177)"/>
<path d="M0 0 C0.33 0.66 0.66 1.32 1 2 C1.99 2.33 2.98 2.66 4 3 C6.73628314 5.63493932 6.99365905 6.873181 7.1875 10.75 C7.125625 11.8225 7.06375 12.895 7 14 C8.2375 14.0928125 8.2375 14.0928125 9.5 14.1875 C13.91070886 15.21141456 17.48441302 17.13577812 21 20 C21 20.66 21 21.32 21 22 C22.32 22 23.64 22 25 22 C25.33 22.66 25.66 23.32 26 24 C27.97888961 24.72693904 29.97954558 25.39816251 32 26 C30.29394531 27.12329102 30.29394531 27.12329102 28 28 C24.31767751 26.90877905 21.06980406 24.84731665 17.75 22.9375 C16.32953369 22.12551147 16.32953369 22.12551147 14.88037109 21.29711914 C7.20401311 16.64395236 1.92135687 11.6766796 -1 3 C-0.67 2.01 -0.34 1.02 0 0 Z " fill="#CF932E" transform="translate(281,1033)"/>
<path d="M0 0 C4.05768553 1.35256184 4.4498933 3.10715948 6.46875 6.828125 C6.79033081 7.4141449 7.11191162 8.00016479 7.4432373 8.60394287 C8.47104435 10.48127154 9.48576031 12.36531277 10.5 14.25 C11.51708056 16.11874687 12.53676212 17.98605614 13.5567627 19.85321045 C14.48536082 21.55645459 15.40787982 23.26300885 16.33007812 24.96972656 C17.41243941 26.93380087 18.55594356 28.86585906 19.76757812 30.75292969 C20.37762695 31.86522949 20.37762695 31.86522949 21 33 C20.1875 35.3125 20.1875 35.3125 19 37 C18.9175 36.401875 18.835 35.80375 18.75 35.1875 C18.18030198 32.82402342 18.18030198 32.82402342 15.9375 31.5625 C14.9784375 30.7890625 14.9784375 30.7890625 14 30 C13.75 27.3125 13.75 27.3125 14 25 C13.34 25 12.68 25 12 25 C11.87625 23.576875 11.87625 23.576875 11.75 22.125 C11.5025 21.09375 11.255 20.0625 11 19 C10.36964844 18.68546875 9.73929688 18.3709375 9.08984375 18.046875 C6.52258207 16.76084485 6.00168979 15.69753302 4.8125 13.125 C4.48894531 12.44695313 4.16539063 11.76890625 3.83203125 11.0703125 C3 9 3 9 2.51171875 6.8046875 C2.34285156 6.20914063 2.17398437 5.61359375 2 5 C1.34 4.67 0.68 4.34 0 4 C0 2.68 0 1.36 0 0 Z " fill="#CC9334" transform="translate(1153,616)"/>
<path d="M0 0 C2.77058766 2.46960604 4.36192727 5.17040632 6.14453125 8.41015625 C6.73943359 9.48330078 7.33433594 10.55644531 7.94726562 11.66210938 C8.87055664 13.34530273 8.87055664 13.34530273 9.8125 15.0625 C11.02583143 17.26255347 12.24065892 19.46178258 13.45703125 21.66015625 C14.04436035 22.72508301 14.63168945 23.79000977 15.23681641 24.88720703 C17.39024627 28.68895596 19.68551013 32.3905528 22.0378418 36.07202148 C22.355354 36.70825439 22.67286621 37.3444873 23 38 C22 40 22 40 20 41 C19.81824219 40.45730469 19.63648438 39.91460937 19.44921875 39.35546875 C19.19785156 38.64003906 18.94648437 37.92460937 18.6875 37.1875 C18.32205078 36.12595703 18.32205078 36.12595703 17.94921875 35.04296875 C16.92875392 32.84665967 15.73401076 31.65799933 14 30 C13.66666667 28.66666667 13.33333333 27.33333333 13 26 C12.525625 25.566875 12.05125 25.13375 11.5625 24.6875 C9.22161761 22.15934702 8.80670456 19.28887243 8 16 C7.01 16 6.02 16 5 16 C4.15787744 14.08717875 3.32661136 12.16957527 2.5 10.25 C2.0359375 9.18265625 1.571875 8.1153125 1.09375 7.015625 C0 4 0 4 0 0 Z " fill="#C78E30" transform="translate(1046,427)"/>
<path d="M0 0 C1.32 0.33 2.64 0.66 4 1 C4.66 3.31 5.32 5.62 6 8 C6.66 8 7.32 8 8 8 C8 9.32 8 10.64 8 12 C8.61875 12.226875 9.2375 12.45375 9.875 12.6875 C12.65659901 14.40554645 13.09559541 15.90995099 14 19 C14 19.99 14 20.98 14 22 C14.66 22 15.32 22 16 22 C16.226875 22.639375 16.45375 23.27875 16.6875 23.9375 C18.48565826 28.13320261 20.73904021 32.03900556 23 36 C22.34 36.66 21.68 37.32 21 38 C20.57702637 37.26475098 20.15405273 36.52950195 19.71826172 35.77197266 C18.11987054 32.99453344 16.52064907 30.21757435 14.92089844 27.44091797 C14.2340518 26.24839573 13.54751835 25.05569303 12.86132812 23.86279297 C9.00292998 17.15572368 5.11924689 10.47685079 1.03564453 3.90380859 C0 2 0 2 0 0 Z " fill="#BE8D40" transform="translate(151,809)"/>
<path d="M0 0 C1.8125 0.125 1.8125 0.125 4 1 C7 6.03571429 7 6.03571429 7 9 C7.99 9.33 8.98 9.66 10 10 C11.3356543 12.65964349 12.51011411 15.25057802 13.625 18 C15.296568 22.84618631 15.296568 22.84618631 18 27 C18.04063832 28.66617115 18.042721 30.33388095 18 32 C15.10342957 28.53862211 12.75349028 25.04778317 10.546875 21.11328125 C9.928125 20.01048828 9.309375 18.90769531 8.671875 17.77148438 C8.03765625 16.63001953 7.4034375 15.48855469 6.75 14.3125 C6.09406902 13.14760677 5.43782183 11.98289153 4.78125 10.81835938 C0 2.25530134 0 2.25530134 0 0 Z " fill="#DA9C37" transform="translate(121,756)"/>
<path d="M0 0 C0.99 0.33 1.98 0.66 3 1 C3.6875 3.0625 3.6875 3.0625 4 5 C4.66 5 5.32 5 6 5 C6 5.99 6 6.98 6 8 C6.99 8 7.98 8 9 8 C9 8.99 9 9.98 9 11 C9.66 11 10.32 11 11 11 C11.33 13.31 11.66 15.62 12 18 C12.66 18 13.32 18 14 18 C14.12375 19.918125 14.12375 19.918125 14.25 21.875 C14.45869931 24.05333418 14.45869931 24.05333418 15 26 C16.92064793 27.5899433 16.92064793 27.5899433 19 28 C18.34 29.32 17.68 30.64 17 32 C16.59160889 31.26885986 16.18321777 30.53771973 15.76245117 29.78442383 C14.23670722 27.05376892 12.71026146 24.32350786 11.18334961 21.59350586 C10.20177404 19.83802811 9.22099827 18.08210323 8.24023438 16.32617188 C7.61826172 15.21435547 6.99628906 14.10253906 6.35546875 12.95703125 C5.78465576 11.93585205 5.21384277 10.91467285 4.62573242 9.86254883 C3.55136517 7.97082995 2.43974595 6.09973743 1.2902832 4.25268555 C0 2 0 2 0 0 Z " fill="#DFA039" transform="translate(230,946)"/>
<path d="M0 0 C8.17554042 1.47993087 15.33858185 5.01397646 22.5625 9 C23.1824585 9.33201416 23.80241699 9.66402832 24.44116211 10.00610352 C28.78962508 12.47542877 28.78962508 12.47542877 29.90234375 15.25 C29.93457031 15.8275 29.96679688 16.405 30 17 C23.9029117 15.35572661 18.73687772 12.19782761 13.3125 9.0625 C11.8884082 8.25522461 11.8884082 8.25522461 10.43554688 7.43164062 C2.76981435 3.03184652 2.76981435 3.03184652 0 0 Z " fill="#D49729" transform="translate(593,1223)"/>
<path d="M0 0 C1.4299614 4.71357646 0.85002767 8.46491272 -1 13 C-3.36807222 16.31429982 -5.94120655 19.30443827 -9 22 C-9.66 22 -10.32 22 -11 22 C-11 22.66 -11 23.32 -11 24 C-11.66 24 -12.32 24 -13 24 C-11.4691271 18.51510109 -8.85170412 14.02252324 -5.9375 9.1875 C-5.47794922 8.41212891 -5.01839844 7.63675781 -4.54492188 6.83789062 C-1.16502638 1.16502638 -1.16502638 1.16502638 0 0 Z " fill="#DCA036" transform="translate(136,573)"/>
<path d="M0 0 C0.33 0 0.66 0 1 0 C1 2.31 1 4.62 1 7 C0.360625 7.226875 -0.27875 7.45375 -0.9375 7.6875 C-3.20241355 8.79391605 -3.20241355 8.79391605 -3.5 11.0625 C-3.665 12.031875 -3.83 13.00125 -4 14 C-4.55998141 15.57887442 -5.16853066 17.14097903 -5.8125 18.6875 C-6.12832031 19.45449219 -6.44414062 20.22148437 -6.76953125 21.01171875 C-8.2363982 23.38198947 -9.53422342 23.82462983 -12 25 C-12.33 25.99 -12.66 26.98 -13 28 C-13.66 28 -14.32 28 -15 28 C-13.70047993 24.59968965 -12.22773876 21.42792599 -10.46875 18.2421875 C-9.98792969 17.36949219 -9.50710937 16.49679687 -9.01171875 15.59765625 C-8.51285156 14.69917969 -8.01398438 13.80070312 -7.5 12.875 C-6.75169922 11.51568359 -6.75169922 11.51568359 -5.98828125 10.12890625 C-4.07855009 6.67295844 -2.19146136 3.28719204 0 0 Z " fill="#CB9533" transform="translate(195,469)"/>
<path d="M0 0 C4.1878844 4.76727617 7.13645904 10.19411135 10.25 15.6875 C11.08144531 17.13092773 11.08144531 17.13092773 11.9296875 18.60351562 C12.45304688 19.52197266 12.97640625 20.44042969 13.515625 21.38671875 C13.99290039 22.22420654 14.47017578 23.06169434 14.96191406 23.92456055 C16 26 16 26 16 28 C14.68 27.67 13.36 27.34 12 27 C12 25.68 12 24.36 12 23 C10.68 22.34 9.36 21.68 8 21 C8 19.68 8 18.36 8 17 C7.34 17 6.68 17 6 17 C3.33333333 11.66666667 0.66666667 6.33333333 -2 1 C-1.34 0.67 -0.68 0.34 0 0 Z " fill="#CC962E" transform="translate(944,248)"/>
<path d="M0 0 C0.33 0 0.66 0 1 0 C1.625 3.375 1.625 3.375 2 7 C1.34 7.66 0.68 8.32 0 9 C-0.99 9 -1.98 9 -3 9 C-2.938125 10.1446875 -2.938125 10.1446875 -2.875 11.3125 C-3 14 -3 14 -5 17 C-5.99 17 -6.98 17 -8 17 C-8.34900558 20.71736641 -8.34900558 20.71736641 -6.5 23.8125 C-6.005 24.204375 -5.51 24.59625 -5 25 C-5.66 26.32 -6.32 27.64 -7 29 C-11.03366248 22.76615799 -11.03366248 22.76615799 -10.90234375 19.77734375 C-9.60992658 15.7993844 -7.59518678 12.35657538 -5.5 8.75 C-5.08363281 8.0178125 -4.66726562 7.285625 -4.23828125 6.53125 C-1.17106331 1.17106331 -1.17106331 1.17106331 0 0 Z " fill="#D09731" transform="translate(87,658)"/>
<path d="M0 0 C0.33 0 0.66 0 1 0 C1.28571429 7.42857143 1.28571429 7.42857143 -1 11 C-1.66 11 -2.32 11 -3 11 C-3.09152344 11.70511719 -3.18304688 12.41023437 -3.27734375 13.13671875 C-4.14007953 16.5550178 -5.61893223 18.87947955 -7.5625 21.8125 C-8.20316406 22.78832031 -8.84382813 23.76414063 -9.50390625 24.76953125 C-9.99761719 25.50558594 -10.49132812 26.24164063 -11 27 C-12.30111383 24.04292311 -11.9578107 22.8812076 -10.85546875 19.77734375 C-8.8904578 15.58897381 -6.61332307 11.57334469 -4.3125 7.5625 C-3.89677734 6.83095703 -3.48105469 6.09941406 -3.05273438 5.34570312 C-2.03843433 3.56193409 -1.01968002 1.78069908 0 0 Z " fill="#DFA633" transform="translate(332,229)"/>
<path d="M0 0 C3.1875 -0.3125 3.1875 -0.3125 7 0 C8.70993434 1.6222454 10.37347684 3.29413425 12 5 C14.04907459 5.96749911 14.04907459 5.96749911 16.25 6.6875 C20 8 20 8 21 10 C21.66 10.165 22.32 10.33 23 10.5 C23.66 10.665 24.32 10.83 25 11 C25.33 11.66 25.66 12.32 26 13 C28.01669827 14.13350534 28.01669827 14.13350534 30 15 C27.2829669 16.08347214 26.23552395 16.09655728 23.48217773 14.96777344 C22.55864502 14.43700195 21.6351123 13.90623047 20.68359375 13.359375 C19.16668945 12.49505859 19.16668945 12.49505859 17.61914062 11.61328125 C16.56919922 10.99839844 15.51925781 10.38351562 14.4375 9.75 C13.38369141 9.15058594 12.32988281 8.55117187 11.24414062 7.93359375 C2.75031428 3.04435867 2.75031428 3.04435867 0 0 Z " fill="#C68D2A" transform="translate(478,1157)"/>
<path d="M0 0 C0.66 0 1.32 0 2 0 C2.8161607 5.41243415 -0.03318676 9.08136274 -2.75 13.5 C-3.1934375 14.24636719 -3.636875 14.99273438 -4.09375 15.76171875 C-6.48873561 19.74162131 -8.98505279 23.44968833 -12 27 C-10.24357935 17.23636755 -5.65253243 8.10289131 0 0 Z " fill="#D39A2F" transform="translate(1161,723)"/>
<path d="M0 0 C-1.73867556 4.91151289 -4.31955972 9.26965775 -6.9375 13.75 C-7.38029297 14.52988281 -7.82308594 15.30976562 -8.27929688 16.11328125 C-8.71177734 16.85449219 -9.14425781 17.59570312 -9.58984375 18.359375 C-9.98034912 19.03452148 -10.37085449 19.70966797 -10.77319336 20.40527344 C-12 22 -12 22 -15 23 C-14.39254603 18.14036821 -12.27241033 14.2594482 -10 10 C-9.01 10 -8.02 10 -7 10 C-6.67 8.02 -6.34 6.04 -6 4 C-5.34 4 -4.68 4 -4 4 C-4 3.01 -4 2.02 -4 1 C-2 0 -2 0 0 0 Z " fill="#D5972A" transform="translate(990,1027)"/>
<path d="M0 0 C1.01641178 3.49383 0.93123643 4.88399164 -0.8125 8.125 C-1.16957031 8.80820312 -1.52664062 9.49140625 -1.89453125 10.1953125 C-3 12 -3 12 -5 14 C-5.50234886 15.27519326 -5.95638903 16.56991875 -6.375 17.875 C-7.62912276 21.41226932 -9.05962671 23.56658763 -12 26 C-13.04867789 19.42391571 -9.36161009 14.93240692 -6 9.625 C-5.42765625 8.69816406 -4.8553125 7.77132813 -4.265625 6.81640625 C-2.85544987 4.53662312 -1.43345549 2.26519008 0 0 Z " fill="#C69033" transform="translate(250,373)"/>
<path d="M0 0 C4.04509692 4.60370555 6.82704657 9.77775974 9.75 15.125 C10.25660156 16.03121094 10.76320313 16.93742187 11.28515625 17.87109375 C11.76339844 18.74121094 12.24164062 19.61132812 12.734375 20.5078125 C13.38744629 21.69334717 13.38744629 21.69334717 14.05371094 22.90283203 C15 25 15 25 15 28 C11.06097283 25.74912733 9.77679505 22.87274422 7.94140625 18.9140625 C7.02687107 16.88655151 7.02687107 16.88655151 5.375 14.9375 C3.41788592 12.17974835 2.81282383 9.2512953 2 6 C1.01 6 0.02 6 -1 6 C-0.67 4.02 -0.34 2.04 0 0 Z " fill="#CA9431" transform="translate(996,339)"/>
<path d="M0 0 C-3.8331384 3.22828956 -7.79902157 5.82164716 -12.125 8.3125 C-12.74503906 8.68439453 -13.36507812 9.05628906 -14.00390625 9.43945312 C-15.62448915 10.37520906 -17.30993886 11.19649427 -19 12 C-19.99 11.67 -20.98 11.34 -22 11 C-22 10.34 -22 9.68 -22 9 C-20.68 9 -19.36 9 -18 9 C-17.77957031 8.40832031 -17.55914063 7.81664062 -17.33203125 7.20703125 C-15.57367834 4.29363126 -13.66027863 3.30864992 -10.6875 1.6875 C-9.74261719 1.15511719 -8.79773438 0.62273437 -7.82421875 0.07421875 C-4.66944677 -1.1257291 -3.17563373 -0.98913182 0 0 Z " fill="#DC9C29" transform="translate(916,1084)"/>
<path d="M0 0 C3.72615287 1.24205096 4.02494476 2.27127114 5.91796875 5.62109375 C6.44970703 6.55630859 6.98144531 7.49152344 7.52929688 8.45507812 C8.07650391 9.43927734 8.62371094 10.42347656 9.1875 11.4375 C9.74630859 12.41783203 10.30511719 13.39816406 10.88085938 14.40820312 C15 21.71603136 15 21.71603136 15 24 C10.36363636 22.53588517 10.36363636 22.53588517 8.8125 20.25 C8.17925401 18.49639572 7.60824757 16.72027538 7.0625 14.9375 C6.23785982 12.00795814 6.23785982 12.00795814 4.375 10.375 C3.92125 9.92125 3.4675 9.4675 3 9 C3 7.68 3 6.36 3 5 C2.01 4.67 1.02 4.34 0 4 C0 2.68 0 1.36 0 0 Z " fill="#CF9637" transform="translate(1123,564)"/>
<path d="M0 0 C4.95621512 0.49562151 8.70281375 1.44215104 13 4 C13.33 4.66 13.66 5.32 14 6 C14.99 6.33 15.98 6.66 17 7 C20 8 20 8 21 10 C23.02463255 10.65213292 23.02463255 10.65213292 25 11 C25.33 12.32 25.66 13.64 26 15 C22.444218 13.65788025 19.20894833 12.07755303 15.91796875 10.1796875 C14.98662109 9.64472656 14.05527344 9.10976562 13.09570312 8.55859375 C12.13599609 8.00300781 11.17628906 7.44742187 10.1875 6.875 C9.20845703 6.31167969 8.22941406 5.74835938 7.22070312 5.16796875 C4.81210445 3.78155585 2.40528605 2.39214945 0 1 C0 0.67 0 0.34 0 0 Z " fill="#C58C2B" transform="translate(403,1114)"/>
<path d="M0 0 C5.82848962 1.94282987 7.94486153 5.35362243 10.80078125 10.48828125 C12.17791761 13.37264176 13 15.78599501 13 19 C12.34 19.66 11.68 20.32 11 21 C9.34999614 18.06482399 7.70572568 15.12647526 6.0625 12.1875 C5.59392578 11.35412109 5.12535156 10.52074219 4.64257812 9.66210938 C3.9706543 8.45844727 3.9706543 8.45844727 3.28515625 7.23046875 C2.87144775 6.49207764 2.45773926 5.75368652 2.03149414 4.99291992 C1 3 1 3 0 0 Z " fill="#CC9337" transform="translate(212,915)"/>
<path d="M0 0 C0.33 0 0.66 0 1 0 C1.40615411 5.16284362 0.23787097 8.18738045 -2.25 12.6875 C-2.85328125 13.80511719 -3.4565625 14.92273438 -4.078125 16.07421875 C-5.86808519 18.79917848 -7.26805322 20.2895112 -10 22 C-11 19 -11 19 -10.11962891 16.9152832 C-9.65991699 16.13499756 -9.20020508 15.35471191 -8.7265625 14.55078125 C-8.2315625 13.70322266 -7.7365625 12.85566406 -7.2265625 11.98242188 C-6.69804687 11.10134766 -6.16953125 10.22027344 -5.625 9.3125 C-5.10421875 8.41982422 -4.5834375 7.52714844 -4.046875 6.60742188 C-1.23329232 1.83672275 -1.23329232 1.83672275 0 0 Z " fill="#CE9833" transform="translate(291,301)"/>
<path d="M0 0 C5.52327725 1.69730591 6.97069968 4.53229327 9.70703125 9.37890625 C11.2835494 12.57480859 12.24458583 15.52509481 13 19 C12.34 19.66 11.68 20.32 11 21 C9.15966024 17.87907566 7.32893744 14.75261783 5.5 11.625 C4.97535156 10.73554687 4.45070312 9.84609375 3.91015625 8.9296875 C3.41386719 8.07890625 2.91757813 7.228125 2.40625 6.3515625 C1.94541016 5.56604004 1.48457031 4.78051758 1.00976562 3.97119141 C0 2 0 2 0 0 Z " fill="#D59A33" transform="translate(139,788)"/>
<path d="M0 0 C2.51186012 2.28798996 4.06562036 4.62702041 5.69921875 7.59765625 C6.42915039 8.92313477 6.42915039 8.92313477 7.17382812 10.27539062 C7.67333984 11.19513672 8.17285156 12.11488281 8.6875 13.0625 C9.19861328 13.98611328 9.70972656 14.90972656 10.23632812 15.86132812 C14 22.74045602 14 22.74045602 14 25 C12.68 24.34 11.36 23.68 10 23 C10 22.01 10 21.02 10 20 C9.34 20 8.68 20 8 20 C6.23537317 16.91190305 6 15.76687864 6 12 C5.01 12 4.02 12 3 12 C2.49166409 10.75336669 1.99368855 9.50250613 1.5 8.25 C1.2215625 7.55390625 0.943125 6.8578125 0.65625 6.140625 C0 4 0 4 0 0 Z " fill="#C49231" transform="translate(960,276)"/>
<path d="M0 0 C0.33 0 0.66 0 1 0 C1 5.94 1 11.88 1 18 C-1.64934011 15.35065989 -3.32794935 13.10515144 -5.25 9.9375 C-5.79140625 9.05964844 -6.3328125 8.18179688 -6.890625 7.27734375 C-7.43976563 6.15005859 -7.43976563 6.15005859 -8 5 C-7.67 4.34 -7.34 3.68 -7 3 C-4 4 -4 4 -2 7 C-2 5.35 -2 3.7 -2 2 C-1.34 2 -0.68 2 0 2 C0 1.34 0 0.68 0 0 Z " fill="#E8A32A" transform="translate(264,989)"/>
<path d="M0 0 C3.79290226 4.36892713 6.48025861 9.14318901 9.25 14.1875 C9.70890625 15.00669922 10.1678125 15.82589844 10.640625 16.66992188 C14 22.74379185 14 22.74379185 14 25 C12.09765625 24.7421875 12.09765625 24.7421875 10 24 C9.05859375 22.2578125 9.05859375 22.2578125 8.4375 20.125 C7.47865425 16.89708448 6.42972201 15.31151932 4 13 C3.64830932 11.67139075 3.31229724 10.33841672 3 9 C2.34 8.67 1.68 8.34 1 8 C0.40644386 5.35139573 0.25790731 2.70802678 0 0 Z " fill="#C58C2E" transform="translate(1020,381)"/>
<path d="M0 0 C1.13818359 1.71582031 1.13818359 1.71582031 2 4 C1.21728516 6.19824219 1.21728516 6.19824219 -0.2109375 8.546875 C-0.71367188 9.39121094 -1.21640625 10.23554687 -1.734375 11.10546875 C-2.27578125 11.97816406 -2.8171875 12.85085938 -3.375 13.75 C-3.90867187 14.63816406 -4.44234375 15.52632812 -4.9921875 16.44140625 C-6.31406767 18.63667154 -7.65019479 20.82183332 -9 23 C-9.96862277 19.62065154 -9.92663319 18.02391967 -8.5625 14.75 C-8.27503906 14.04359375 -7.98757813 13.3371875 -7.69140625 12.609375 C-7.46324219 12.07828125 -7.23507812 11.5471875 -7 11 C-6.34 11 -5.68 11 -5 11 C-4.5978125 9.39125 -4.5978125 9.39125 -4.1875 7.75 C-3.13772173 4.43491072 -2.25387672 2.56122354 0 0 Z " fill="#C28A2E" transform="translate(1007,992)"/>
<path d="M0 0 C0.66 0.99 1.32 1.98 2 3 C-1.63 9.6 -5.26 16.2 -9 23 C-9.66 21.68 -10.32 20.36 -11 19 C-10.34 19 -9.68 19 -9 19 C-9.061875 18.278125 -9.12375 17.55625 -9.1875 16.8125 C-8.96253379 13.43800685 -8.00130237 11.69406089 -6 9 C-5.34 9 -4.68 9 -4 9 C-4 8.01 -4 7.02 -4 6 C-3.02149805 4.97895449 -2.02019573 3.9793879 -1 3 C-0.67 2.01 -0.34 1.02 0 0 Z " fill="#CA9133" transform="translate(1047,922)"/>
<path d="M0 0 C3.75082699 4.35835531 6.5524258 9.08077716 9.375 14.0625 C9.85066406 14.86494141 10.32632813 15.66738281 10.81640625 16.49414062 C11.25597656 17.27080078 11.69554687 18.04746094 12.1484375 18.84765625 C12.55239746 19.54898682 12.95635742 20.25031738 13.37255859 20.97290039 C14 23 14 23 13.11572266 25.25952148 C12.74753418 25.83387939 12.3793457 26.4082373 12 27 C11.896875 26.401875 11.79375 25.80375 11.6875 25.1875 C11.16422699 22.93294399 11.16422699 22.93294399 9.5 21.5 C7.69851305 19.69851305 7.60716097 18.42864387 7 16 C6.54625 15.566875 6.0925 15.13375 5.625 14.6875 C3.21694381 12.18682626 2.29750434 9.18478337 1 6 C0.67 5.67 0.34 5.34 0 5 C-0.04063832 3.33382885 -0.042721 1.66611905 0 0 Z " fill="#C8922D" transform="translate(980,311)"/>
<path d="M0 0 C1.98 0.99 1.98 0.99 4 2 C4 2.99 4 3.98 4 5 C4.66 5 5.32 5 6 5 C6 5.66 6 6.32 6 7 C6.99 7.33 7.98 7.66 9 8 C10.0625 10.75 10.0625 10.75 11 14 C11.37125 14.886875 11.7425 15.77375 12.125 16.6875 C13 19 13 19 13 22 C13.66 22.33 14.32 22.66 15 23 C14.34 23.66 13.68 24.32 13 25 C12.39671875 23.84242188 11.7934375 22.68484375 11.171875 21.4921875 C10.36475769 19.95303356 9.55745624 18.41397616 8.75 16.875 C8.35425781 16.11445312 7.95851563 15.35390625 7.55078125 14.5703125 C5.73852796 11.12406035 3.91463468 7.77836667 1.703125 4.5703125 C0 2 0 2 0 0 Z " fill="#C48E37" transform="translate(85,694)"/>
<path d="M0 0 C1.11572266 1.75854492 1.11572266 1.75854492 2 4 C1.37255859 5.90356445 1.37255859 5.90356445 0.1484375 7.86328125 C-0.29113281 8.58580078 -0.73070312 9.30832031 -1.18359375 10.05273438 C-1.65925781 10.79845703 -2.13492187 11.54417969 -2.625 12.3125 C-3.53413918 13.78758479 -4.44299648 15.26284335 -5.3515625 16.73828125 C-5.79661133 17.44936035 -6.24166016 18.16043945 -6.70019531 18.89306641 C-8.54635527 21.88562095 -10.27567387 24.93588057 -12 28 C-12.33 26.68 -12.66 25.36 -13 24 C-12.34 24 -11.68 24 -11 24 C-11 22.35 -11 20.7 -11 19 C-10.34 19 -9.68 19 -9 19 C-9 18.34 -9 17.68 -9 17 C-8.34 17 -7.68 17 -7 17 C-6.896875 16.34 -6.79375 15.68 -6.6875 15 C-5.8202682 11.21571578 -4.70768426 7.49707589 -3 4 C-2.34 3.67 -1.68 3.34 -1 3 C-0.67 2.01 -0.34 1.02 0 0 Z " fill="#B48330" transform="translate(1115,804)"/>
<path d="M0 0 C3.24822479 2.77687356 5.12183056 6.39061382 7.1875 10.0625 C7.55552734 10.69994141 7.92355469 11.33738281 8.30273438 11.99414062 C11 16.74312964 11 16.74312964 11 19 C10.01 19.33 9.02 19.66 8 20 C7.54625 18.865625 7.0925 17.73125 6.625 16.5625 C5.42904194 12.95278308 5.42904194 12.95278308 3 12 C0.47690261 7.82718509 -0.34731345 4.86238823 0 0 Z " fill="#D09535" transform="translate(1138,588)"/>
<path d="M0 0 C6.92066116 0.65289256 6.92066116 0.65289256 10 4 C11.9959722 4.67863055 13.99568551 5.34641919 16 6 C16.33 6.66 16.66 7.32 17 8 C18.97888961 8.72693904 20.97954558 9.39816251 23 10 C22.67 10.99 22.34 11.98 22 13 C17.04288402 11.26153247 12.68611031 8.60348281 8.1875 5.9375 C7.39923828 5.47794922 6.61097656 5.01839844 5.79882812 4.54492188 C5.05439453 4.10599609 4.30996094 3.66707031 3.54296875 3.21484375 C2.86258545 2.81386475 2.18220215 2.41288574 1.48120117 1.99975586 C0.99240479 1.66983643 0.5036084 1.33991699 0 1 C0 0.67 0 0.34 0 0 Z " fill="#C78E2D" transform="translate(330,1072)"/>
<path d="M0 0 C1.53267991 4.69187728 0.01928178 7.68833686 -2 12 C-5.20827943 17.69210867 -5.20827943 17.69210867 -8.25 18.875 C-8.8275 18.91625 -9.405 18.9575 -10 19 C-8.40376856 14.60616294 -6.21975667 10.71004193 -3.875 6.6875 C-3.50246094 6.04232422 -3.12992187 5.39714844 -2.74609375 4.73242188 C-1.83367787 3.15324055 -0.91724491 1.57638136 0 0 Z " fill="#BE892C" transform="translate(343,210)"/>
<path d="M0 0 C0.99 0 1.98 0 3 0 C3.391875 0.969375 3.78375 1.93875 4.1875 2.9375 C5.83852422 6.82693206 7.88424769 10.43583453 10.01171875 14.08203125 C11 16 11 16 11 18 C11.66 18 12.32 18 13 18 C13.33 20.31 13.66 22.62 14 25 C10.67066816 20.69806123 8.03168839 16.07656444 5.3125 11.375 C4.80138672 10.50359375 4.29027344 9.6321875 3.76367188 8.734375 C3.28091797 7.90164063 2.79816406 7.06890625 2.30078125 6.2109375 C1.85903564 5.45087402 1.41729004 4.69081055 0.9621582 3.90771484 C0 2 0 2 0 0 Z " fill="#BC8A3A" transform="translate(175,850)"/>
<path d="M0 0 C1.33978732 4.70851773 0.0959099 6.64050741 -2 11 C-2.66 11 -3.32 11 -4 11 C-4.0825 11.721875 -4.165 12.44375 -4.25 13.1875 C-5.15713831 16.58926868 -6.60010879 18.45466084 -9 21 C-9.66 21 -10.32 21 -11 21 C-9.3003494 16.26525903 -6.86340973 12.03832889 -4.375 7.6875 C-3.95476562 6.94693359 -3.53453125 6.20636719 -3.1015625 5.44335938 C-2.07051505 3.62730989 -1.03563954 1.81343467 0 0 Z " fill="#C29034" transform="translate(274,331)"/>
<path d="M0 0 C0.99 0 1.98 0 3 0 C3 0.99 3 1.98 3 3 C1.47119141 4.25854492 1.47119141 4.25854492 -0.6484375 5.48046875 C-1.40640625 5.92197266 -2.164375 6.36347656 -2.9453125 6.81835938 C-3.74710938 7.27017578 -4.54890625 7.72199219 -5.375 8.1875 C-6.1690625 8.65091797 -6.963125 9.11433594 -7.78125 9.59179688 C-13.70419505 13 -13.70419505 13 -16 13 C-16 12.01 -16 11.02 -16 10 C-14.865625 9.566875 -13.73125 9.13375 -12.5625 8.6875 C-11.386875 8.130625 -10.21125 7.57375 -9 7 C-8.67 6.01 -8.34 5.02 -8 4 C-6.35 4 -4.7 4 -3 4 C-3 3.34 -3 2.68 -3 2 C-2.01 2 -1.02 2 0 2 C0 1.34 0 0.68 0 0 Z " fill="#D19527" transform="translate(674,1219)"/>
<path d="M0 0 C-1.6996506 4.73474097 -4.13659027 8.96167111 -6.625 13.3125 C-7.04523438 14.05306641 -7.46546875 14.79363281 -7.8984375 15.55664062 C-8.92948495 17.37269011 -9.96436046 19.18656533 -11 21 C-11.66 19.68 -12.32 18.36 -13 17 C-12.34 17 -11.68 17 -11 17 C-10.87625 16.46375 -10.7525 15.9275 -10.625 15.375 C-8.5106383 7.34042553 -8.5106383 7.34042553 -5 5 C-4.63837971 3.67405895 -4.30271961 2.34061543 -4 1 C-2 0 -2 0 0 0 Z " fill="#C89231" transform="translate(1149,750)"/>
<path d="M0 0 C3 1 3 1 4 2.875 C4.33 3.57625 4.66 4.2775 5 5 C5.45375 5.45375 5.9075 5.9075 6.375 6.375 C8.68104017 8.68104017 10.31755888 11.21526987 12 14 C12 14.99 12 15.98 12 17 C10.265625 16.93359375 10.265625 16.93359375 8 16 C6.40234664 13.69389816 5.06469411 11.51903029 3.75 9.0625 C3.38648437 8.41603516 3.02296875 7.76957031 2.6484375 7.10351562 C0 2.30944549 0 2.30944549 0 0 Z " fill="#E0A332" transform="translate(100,720)"/>
<path d="M0 0 C0.81670213 3.17308859 1.4694758 5.71366943 1 9 C-1.3125 12.125 -1.3125 12.125 -4 15 C-4.556875 15.61875 -5.11375 16.2375 -5.6875 16.875 C-7 18 -7 18 -9 18 C-7.65072455 13.46152802 -5.80840652 9.68067754 -3.375 5.625 C-2.74335938 4.56539062 -2.11171875 3.50578125 -1.4609375 2.4140625 C-0.73777344 1.21910156 -0.73777344 1.21910156 0 0 Z " fill="#D39931" transform="translate(158,534)"/>
<path d="M0 0 C-4.32369829 3.87641915 -11.95808443 10 -18 10 C-17.9375 8.25 -17.9375 8.25 -17 6 C-14.65574403 4.45279106 -12.50740588 3.20910481 -10 2 C-9.36835937 1.68546875 -8.73671875 1.3709375 -8.0859375 1.046875 C-3.4164823 -1.13882743 -3.4164823 -1.13882743 0 0 Z " fill="#C18D2D" transform="translate(768,1169)"/>
<path d="M0 0 C1.12231445 1.74316406 1.12231445 1.74316406 2 4 C1.32495117 6.01464844 1.32495117 6.01464844 0.04296875 8.109375 C-0.41013672 8.86347656 -0.86324219 9.61757813 -1.33007812 10.39453125 C-1.81927734 11.17183594 -2.30847656 11.94914063 -2.8125 12.75 C-3.29009766 13.54277344 -3.76769531 14.33554687 -4.25976562 15.15234375 C-6.77726527 19.27834457 -6.77726527 19.27834457 -8 21 C-8.33 21 -8.66 21 -9 21 C-9 19.02 -9 17.04 -9 15 C-8.34 15 -7.68 15 -7 15 C-6.67 13.35 -6.34 11.7 -6 10 C-5.34 10 -4.68 10 -4 10 C-4 8.68 -4 7.36 -4 6 C-3.34 6 -2.68 6 -2 6 C-2 5.01 -2 4.02 -2 3 C-1.34 3 -0.68 3 0 3 C0 2.01 0 1.02 0 0 Z " fill="#C28D30" transform="translate(1178,694)"/>
<path d="M0 0 C1.30192687 4.00387099 0.56904842 6.22636681 -0.97265625 10.02734375 C-2.49459421 12.94969612 -4.47093772 14.92487197 -7 17 C-7.66 17 -8.32 17 -9 17 C-7.51481201 12.95698825 -5.57122002 9.38853744 -3.375 5.6875 C-2.74335938 4.61886719 -2.11171875 3.55023438 -1.4609375 2.44921875 C-0.97882813 1.64097656 -0.49671875 0.83273437 0 0 Z " fill="#CA9030" transform="translate(214,436)"/>
<path d="M0 0 C3.07467957 3.65545238 5.54625024 7.39297501 7.875 11.5625 C8.51179687 12.67753906 9.14859375 13.79257813 9.8046875 14.94140625 C11 18 11 18 10.1953125 20.40234375 C9.80085937 20.92957031 9.40640625 21.45679688 9 22 C8.896875 21.401875 8.79375 20.80375 8.6875 20.1875 C8.17623075 17.95372706 8.17623075 17.95372706 6.58984375 16.6328125 C2.43659441 12.36731318 0.59348307 5.78645992 0 0 Z " fill="#C8932D" transform="translate(927,218)"/>
<path d="M0 0 C4.64855688 1.63327674 4.64855688 1.63327674 6.4375 3.5 C8.63537685 5.60996178 11.13757449 6.06660038 14 7 C14.33 7.66 14.66 8.32 15 9 C17.01669827 10.13350534 17.01669827 10.13350534 19 11 C17.44921875 11.73046875 17.44921875 11.73046875 15 12 C12.44807255 10.87131894 10.19772911 9.72117676 7.8125 8.3125 C6.85053711 7.78366211 6.85053711 7.78366211 5.86914062 7.24414062 C1.23035789 4.56471702 1.23035789 4.56471702 0.07421875 1.73046875 C0.03748047 0.87388672 0.03748047 0.87388672 0 0 Z " fill="#D0952A" transform="translate(538,1189)"/>
<path d="M0 0 C0.99 0.33 1.98 0.66 3 1 C1.23570801 5.97209562 -1.3939166 10.43438061 -4 15 C-4.33 15 -4.66 15 -5 15 C-5.67081836 8.56014376 -3.75430238 5.16216577 0 0 Z " fill="#D79A2E" transform="translate(1054,909)"/>
<path d="M0 0 C0.99 0.33 1.98 0.66 3 1 C1.51481201 5.04301175 -0.42877998 8.61146256 -2.625 12.3125 C-3.25664063 13.38113281 -3.88828125 14.44976563 -4.5390625 15.55078125 C-5.26222656 16.76314453 -5.26222656 16.76314453 -6 18 C-6.578125 16.140625 -6.578125 16.140625 -7 14 C-6.05607981 12.30094366 -5.04349839 10.63978318 -4 9 C-3.43029557 7.59437413 -2.88963434 6.17670905 -2.375 4.75 C-1 1 -1 1 0 0 Z " fill="#CC9630" transform="translate(1076,871)"/>
<path d="M0 0 C-2.55303715 1.5390224 -5.11539935 3.05595193 -7.6875 4.5625 C-8.7693457 5.21895508 -8.7693457 5.21895508 -9.87304688 5.88867188 C-15.3241843 9.04983376 -15.3241843 9.04983376 -19.01953125 8.77734375 C-19.67308594 8.52082031 -20.32664062 8.26429687 -21 8 C-21 7.67 -21 7.34 -21 7 C-17.38026598 5.68373308 -14.90432869 5 -11 5 C-11 4.01 -11 3.02 -11 2 C-10.01 2 -9.02 2 -8 2 C-8 1.34 -8 0.68 -8 0 C-4.90645403 -0.99435406 -3.09720845 -0.87840996 0 0 Z " fill="#C38D2C" transform="translate(651,1237)"/>
<path d="M0 0 C1.32 0.66 2.64 1.32 4 2 C1.21605957 3.70050657 -1.57827525 5.38311625 -4.375 7.0625 C-5.56609375 7.79049805 -5.56609375 7.79049805 -6.78125 8.53320312 C-7.54179688 8.98759766 -8.30234375 9.44199219 -9.0859375 9.91015625 C-9.7876709 10.33433838 -10.4894043 10.75852051 -11.21240234 11.19555664 C-12.09726318 11.5937561 -12.09726318 11.5937561 -13 12 C-13.66 11.67 -14.32 11.34 -15 11 C-14.67 10.01 -14.34 9.02 -14 8 C-12.68 8 -11.36 8 -10 8 C-10 7.34 -10 6.68 -10 6 C-9.01 6 -8.02 6 -7 6 C-7 5.34 -7 4.68 -7 4 C-5.68 4 -4.36 4 -3 4 C-3 3.34 -3 2.68 -3 2 C-2.01 2 -1.02 2 0 2 C0 1.34 0 0.68 0 0 Z " fill="#BE892C" transform="translate(783,1157)"/>
<path d="M0 0 C2.9552728 2.61778794 4.75832727 5.67583335 6.75 9.0625 C7.38421875 10.12597656 8.0184375 11.18945312 8.671875 12.28515625 C9.11015625 13.18105469 9.5484375 14.07695312 10 15 C9.67 15.66 9.34 16.32 9 17 C8.34 16.67 7.68 16.34 7 16 C7 15.34 7 14.68 7 14 C6.01 13.67 5.02 13.34 4 13 C3.67 11.02 3.34 9.04 3 7 C2.34 7 1.68 7 1 7 C0.67 4.69 0.34 2.38 0 0 Z " fill="#C68F2C" transform="translate(917,201)"/>
<path d="M0 0 C0.66 0.33 1.32 0.66 2 1 C-1.07097259 11.1930154 -1.07097259 11.1930154 -4 14 C-4.99 14 -5.98 14 -7 14 C-5.53967505 8.68972746 -3.01679014 4.53669968 0 0 Z " fill="#CD972F" transform="translate(351,196)"/>
<path d="M0 0 C1.98 0.99 1.98 0.99 4 2 C4 2.66 4 3.32 4 4 C4.99 4.33 5.98 4.66 7 5 C8.1875 8.5625 8.1875 8.5625 9 12 C8.34 12.66 7.68 13.32 7 14 C5.82807953 12.04480616 4.6626071 10.0857461 3.5 8.125 C2.8503125 7.03445313 2.200625 5.94390625 1.53125 4.8203125 C0 2 0 2 0 0 Z " fill="#E3A333" transform="translate(111,739)"/>
<path d="M0 0 C1.74461712 5.38709474 -1.04390661 9.12765044 -3.5 13.9375 C-4.2425 14.9584375 -4.2425 14.9584375 -5 16 C-5.99 16 -6.98 16 -8 16 C-6.42986223 10.03347646 -3.24970218 5.17090975 0 0 Z " fill="#CB9135" transform="translate(103,630)"/>
<path d="M0 0 C3.92491136 4.52874388 7.37459686 9.60598991 10 15 C9 17 9 17 7 18 C6.34 15.69 5.68 13.38 5 11 C4.34 11 3.68 11 3 11 C3 9.68 3 8.36 3 7 C2.34 7 1.68 7 1 7 C0.67 4.69 0.34 2.38 0 0 Z " fill="#C18C33" transform="translate(1069,467)"/>
<path d="M0 0 C0.99 0 1.98 0 3 0 C3.83790789 1.78953185 4.67019396 3.58169695 5.5 5.375 C5.9640625 6.37273438 6.428125 7.37046875 6.90625 8.3984375 C8 11 8 11 8 13 C8.66 13 9.32 13 10 13 C10 14.65 10 16.3 10 18 C6.12358085 13.67630171 0 6.04191557 0 0 Z " fill="#BC8832" transform="translate(270,1016)"/>
<path d="M0 0 C2.3125 0.5 2.3125 0.5 5 2 C6.04485042 4.03470872 6.74305767 6.04017962 7.421875 8.22265625 C7.85264364 10.00387843 7.85264364 10.00387843 9 11 C9.04063832 12.66617115 9.042721 14.33388095 9 16 C5.49702126 11.97806144 0 5.60566856 0 0 Z " fill="#B9873C" transform="translate(203,899)"/>
<path d="M0 0 C0.99 0.33 1.98 0.66 3 1 C1.23570801 5.97209562 -1.3939166 10.43438061 -4 15 C-5.3480932 11.339671 -4.6336844 9.33449773 -3.125 5.8125 C-2.75632812 4.93207031 -2.38765625 4.05164063 -2.0078125 3.14453125 C-1 1 -1 1 0 0 Z " fill="#CD9630" transform="translate(1185,681)"/>
<path d="M0 0 C2.30874711 2.16614803 4.05290181 4.39206608 5.75 7.0625 C6.19859375 7.75472656 6.6471875 8.44695313 7.109375 9.16015625 C7.40328125 9.76730469 7.6971875 10.37445312 8 11 C7.67 11.66 7.34 12.32 7 13 C6.01 13 5.02 13 4 13 C1.04952165 8.38987758 -0.5497272 5.63470383 0 0 Z " fill="#CD9332" transform="translate(1180,661)"/>
<path d="M0 0 C7.78571429 0.89835165 7.78571429 0.89835165 11 3 C11.33 3.66 11.66 4.32 12 5 C14.01669827 6.13350534 14.01669827 6.13350534 16 7 C14.390625 7.7109375 14.390625 7.7109375 12 8 C8.984375 6.6015625 8.984375 6.6015625 5.75 4.625 C4.67234375 3.97789063 3.5946875 3.33078125 2.484375 2.6640625 C1.66453125 2.11492187 0.8446875 1.56578125 0 1 C0 0.67 0 0.34 0 0 Z " fill="#C78E2B" transform="translate(377,1099)"/>
<path d="M0 0 C0.33 0 0.66 0 1 0 C1 2.64 1 5.28 1 8 C0.34 8 -0.32 8 -1 8 C-1.33 9.32 -1.66 10.64 -2 12 C-3.32 12.33 -4.64 12.66 -6 13 C-4.58707905 8.1725201 -2.57025846 4.2837641 0 0 Z " fill="#CC9334" transform="translate(113,612)"/>
<path d="M0 0 C0.66 0 1.32 0 2 0 C2.42362933 3.60084929 1.96714943 5.06003725 0.1875 8.3125 C-0.534375 9.199375 -1.25625 10.08625 -2 11 C-2.99 11 -3.98 11 -5 11 C-4.32902328 6.80639551 -2.1441606 3.59665648 0 0 Z " fill="#D89D2E" transform="translate(1161,723)"/>
<path d="M0 0 C-1.76429199 4.97209562 -4.3939166 9.43438061 -7 14 C-8.22419163 10.06204091 -7.48320272 7.83887763 -6 4 C-5.34 4 -4.68 4 -4 4 C-4 3.01 -4 2.02 -4 1 C-2 0 -2 0 0 0 Z " fill="#C98E2A" transform="translate(990,1027)"/>
<path d="M0 0 C0.99 0.33 1.98 0.66 3 1 C1.43358249 5.30764815 -0.68336156 9.06171464 -3 13 C-3.66 11.68 -4.32 10.36 -5 9 C-4.34 9 -3.68 9 -3 9 C-2.87625 8.071875 -2.7525 7.14375 -2.625 6.1875 C-2 3 -2 3 0 0 Z " fill="#CA8F30" transform="translate(1021,967)"/>
<path d="M0 0 C0.99 0.33 1.98 0.66 3 1 C4.1875 3.5625 4.1875 3.5625 5 6 C5.66 6 6.32 6 7 6 C7 7.32 7 8.64 7 10 C7.66 10 8.32 10 9 10 C9 11.65 9 13.3 9 15 C6.36115438 12.59888822 4.63586471 9.99444972 2.8125 6.9375 C2.01779297 5.62072266 2.01779297 5.62072266 1.20703125 4.27734375 C0 2 0 2 0 0 Z " fill="#B98943" transform="translate(189,875)"/>
<path d="M0 0 C1.32 0.33 2.64 0.66 4 1 C4.66 3.31 5.32 5.62 6 8 C6.66 8 7.32 8 8 8 C8 9.98 8 11.96 8 14 C0 4.57142857 0 4.57142857 0 0 Z " fill="#BF8B37" transform="translate(151,809)"/>
<path d="M0 0 C3.1778726 0.49654259 6.20157738 1.30366949 9.25 2.3125 C10.27867187 2.64701172 10.27867187 2.64701172 11.328125 2.98828125 C13 4 13 4 13.734375 6.10546875 C13.82203125 6.73066406 13.9096875 7.35585937 14 8 C9.02790438 6.23570801 4.56561939 3.6060834 0 1 C0 0.67 0 0.34 0 0 Z " fill="#C38B29" transform="translate(593,1223)"/>
<path d="M0 0 C2.43986543 2.25273711 4.13659937 4.5734969 5.8125 7.4375 C6.27269531 8.19933594 6.73289062 8.96117187 7.20703125 9.74609375 C8 12 8 12 7.13671875 14.28515625 C6.57404297 15.13400391 6.57404297 15.13400391 6 16 C5.896875 15.401875 5.79375 14.80375 5.6875 14.1875 C5.16864386 11.94699765 5.16864386 11.94699765 3.5625 10.5625 C1.54829212 8.54829212 0.85661869 6.70164356 0 4 C0 2.68 0 1.36 0 0 Z " fill="#C2882D" transform="translate(1038,413)"/>
<path d="M0 0 C0.59554687 0.35320312 1.19109375 0.70640625 1.8046875 1.0703125 C0.1857879 2.10079287 -1.44063739 3.11945928 -3.0703125 4.1328125 C-3.97523438 4.70128906 -4.88015625 5.26976562 -5.8125 5.85546875 C-6.59882812 6.25636719 -7.38515625 6.65726563 -8.1953125 7.0703125 C-8.8553125 6.7403125 -9.5153125 6.4103125 -10.1953125 6.0703125 C-9.11639409 2.94144912 -8.15472667 2.04384348 -5.3203125 0.1953125 C-2.1953125 -0.9296875 -2.1953125 -0.9296875 0 0 Z " fill="#C58C28" transform="translate(724.1953125,1192.9296875)"/>
<path d="M0 0 C0 0.66 0 1.32 0 2 C-2.5546875 3.7265625 -2.5546875 3.7265625 -5.875 5.625 C-6.96554687 6.25664063 -8.05609375 6.88828125 -9.1796875 7.5390625 C-12 9 -12 9 -14 9 C-14 8.01 -14 7.02 -14 6 C-13.195625 5.71125 -12.39125 5.4225 -11.5625 5.125 C-8.8673532 4.26737432 -8.8673532 4.26737432 -8 2 C-2.77777778 0 -2.77777778 0 0 0 Z " fill="#C38D2F" transform="translate(827,1134)"/>
<path d="M0 0 C-1.56641751 4.30764815 -3.68336156 8.06171464 -6 12 C-8 9 -8 9 -7.625 6.8125 C-7.41875 6.214375 -7.2125 5.61625 -7 5 C-6.01 5 -5.02 5 -4 5 C-4 3.68 -4 2.36 -4 1 C-2 0 -2 0 0 0 Z " fill="#C9932C" transform="translate(1130,783)"/>
<path d="M0 0 C1.11139547 3.78194286 0.82409361 5.43867437 -1 9 C-3 11.8125 -3 11.8125 -5 14 C-5.66 14 -6.32 14 -7 14 C-5.23570801 9.02790438 -2.6060834 4.56561939 0 0 Z " fill="#C18D31" transform="translate(222,422)"/>
<path d="M0 0 C0 0.66 0 1.32 0 2 C-2.28874173 3.33858524 -4.58069656 4.67101014 -6.875 6 C-7.52597656 6.3815625 -8.17695312 6.763125 -8.84765625 7.15625 C-13.7734375 10 -13.7734375 10 -16 10 C-16 9.01 -16 8.02 -16 7 C-9.375 4 -9.375 4 -6 4 C-6 3.34 -6 2.68 -6 2 C-2.25 0 -2.25 0 0 0 Z " fill="#B7842F" transform="translate(749,1179)"/>
<path d="M0 0 C6.15234375 0.5859375 6.15234375 0.5859375 8 1 C8.33 1.66 8.66 2.32 9 3 C10.97888961 3.72693904 12.97954558 4.39816251 15 5 C14.67 5.99 14.34 6.98 14 8 C9.02790438 6.23570801 4.56561939 3.6060834 0 1 C0 0.67 0 0.34 0 0 Z " fill="#C08928" transform="translate(453,1143)"/>
<path d="M0 0 C2.625 0.375 2.625 0.375 5 1 C-4.42857143 9 -4.42857143 9 -9 9 C-9 8.01 -9 7.02 -9 6 C-6.35261084 4.5393715 -5.10551666 4 -2 4 C-2 3.34 -2 2.68 -2 2 C-1.34 1.34 -0.68 0.68 0 0 Z " fill="#C18A2C" transform="translate(883,1099)"/>
<path d="M0 0 C0.99 0.33 1.98 0.66 3 1 C-0.80247803 4.226345 -4.55070439 6.77535219 -9 9 C-9.99 8.67 -10.98 8.34 -12 8 C-12 7.34 -12 6.68 -12 6 C-9.09399739 4.74335022 -7.20395416 4 -4 4 C-4 3.34 -4 2.68 -4 2 C-2.68 2 -1.36 2 0 2 C0 1.34 0 0.68 0 0 Z " fill="#BF892D" transform="translate(927,1075)"/>
<path d="M0 0 C2.75 -0.25 2.75 -0.25 6 0 C8.125 1.875 8.125 1.875 10 4 C12.13309192 5.23512079 12.13309192 5.23512079 14 6 C12.328125 6.6796875 12.328125 6.6796875 10 7 C7.421875 5.8203125 7.421875 5.8203125 4.75 4.125 C3.85796875 3.57070312 2.9659375 3.01640625 2.046875 2.4453125 C1.37140625 1.96835938 0.6959375 1.49140625 0 1 C0 0.67 0 0.34 0 0 Z " fill="#C58A2A" transform="translate(311,1061)"/>
<path d="M0 0 C1.53271273 4.58798777 0.02911182 6.77944742 -2 11 C-2.66 11 -3.32 11 -4 11 C-4.33 11.99 -4.66 12.98 -5 14 C-5.66 14 -6.32 14 -7 14 C-5.23570801 9.02790438 -2.6060834 4.56561939 0 0 Z " fill="#C59033" transform="translate(230,408)"/>
<path d="M0 0 C3.22269618 3.79817765 5.74520378 7.57391854 8 12 C7 14 7 14 5 15 C4.72285156 14.36191406 4.44570313 13.72382813 4.16015625 13.06640625 C3.79792969 12.24011719 3.43570313 11.41382813 3.0625 10.5625 C2.70285156 9.73878906 2.34320312 8.91507812 1.97265625 8.06640625 C1.16877677 6.05589883 1.16877677 6.05589883 0 5 C-0.04063832 3.33382885 -0.042721 1.66611905 0 0 Z " fill="#BF8A30" transform="translate(1012,367)"/>
<path d="M0 0 C1.44926837 4.45552099 0.1032744 6.86856813 -2 11 C-3.5625 12.9375 -3.5625 12.9375 -5 14 C-5.66 14 -6.32 14 -7 14 C-5.53967505 8.68972746 -3.01679014 4.53669968 0 0 Z " fill="#C49033" transform="translate(262,352)"/>
<path d="M0 0 C1.98 0 3.96 0 6 0 C6 0.66 6 1.32 6 2 C7.65 2.33 9.3 2.66 11 3 C11.33 4.32 11.66 5.64 12 7 C7.69235185 5.43358249 3.93828536 3.31663844 0 1 C0 0.67 0 0.34 0 0 Z " fill="#C58E2B" transform="translate(576,1213)"/>
<path d="M0 0 C-2.28874173 1.33858524 -4.58069656 2.67101014 -6.875 4 C-7.52597656 4.3815625 -8.17695312 4.763125 -8.84765625 5.15625 C-13.7734375 8 -13.7734375 8 -16 8 C-16 7.34 -16 6.68 -16 6 C-14.35 5.67 -12.7 5.34 -11 5 C-11 4.34 -11 3.68 -11 3 C-9.68 2.67 -8.36 2.34 -7 2 C-7 1.34 -7 0.68 -7 0 C-3.86650268 -1.04449911 -3.01031744 -0.93423645 0 0 Z " fill="#AF7D2A" transform="translate(874,1109)"/>
<path d="M0 0 C-1.59622656 1.03320481 -3.20229106 2.05122429 -4.8125 3.0625 C-6.15248047 3.91521484 -6.15248047 3.91521484 -7.51953125 4.78515625 C-10 6 -10 6 -13 5 C-13 4.34 -13 3.68 -13 3 C-11.68 3 -10.36 3 -9 3 C-8.67 2.01 -8.34 1.02 -8 0 C-4.99093136 -1.24513185 -3.0590674 -0.84653438 0 0 Z " fill="#C88D2B" transform="translate(907,1090)"/>
<path d="M0 0 C1.65 0.33 3.3 0.66 5 1 C1.81404865 3.63978826 -1.30970546 6.10498388 -5 8 C-5.66 7.67 -6.32 7.34 -7 7 C-7 6.01 -7 5.02 -7 4 C-4.35261084 2.5393715 -3.10551666 2 0 2 C0 1.34 0 0.68 0 0 Z " fill="#C58C2A" transform="translate(970,1049)"/>
<path d="M0 0 C0.66 0 1.32 0 2 0 C0.55049545 3.7910119 -1.15172566 7.3874638 -3 11 C-3.66 10.34 -4.32 9.68 -5 9 C-4.6730244 6.38419521 -4.17960932 4.35921863 -3 2 C-2.01 2 -1.02 2 0 2 C0 1.34 0 0.68 0 0 Z " fill="#C68B31" transform="translate(1031,952)"/>
<path d="M0 0 C3.28465896 2.79196011 5.01321958 6.23196817 7 10 C7 10.66 7 11.32 7 12 C5.68 12 4.36 12 3 12 C2.49166409 10.75336669 1.99368855 9.50250613 1.5 8.25 C1.2215625 7.55390625 0.943125 6.8578125 0.65625 6.140625 C0 4 0 4 0 0 Z " fill="#BC892A" transform="translate(960,276)"/>
<path d="M0 0 C2.86477034 1.05041579 3.83913226 1.70124563 5.3125 4.4375 C6 7 6 7 5 10 C2.9754262 8.06745228 1.57894208 6.36841312 0 4 C0 2.68 0 1.36 0 0 Z " fill="#D49E42" transform="translate(159,821)"/>
<path d="M0 0 C1.17578125 1.671875 1.17578125 1.671875 2 4 C0.91796875 6.578125 0.91796875 6.578125 -0.8125 9.25 C-1.37582031 10.14203125 -1.93914062 11.0340625 -2.51953125 11.953125 C-3.00808594 12.62859375 -3.49664063 13.3040625 -4 14 C-4.33 14 -4.66 14 -5 14 C-5.21952523 10.15830842 -4.72664863 7.45329726 -3 4 C-2.34 3.67 -1.68 3.34 -1 3 C-0.67 2.01 -0.34 1.02 0 0 Z " fill="#C38F2F" transform="translate(1115,804)"/>
<path d="M0 0 C0.67578125 1.671875 0.67578125 1.671875 1 4 C-0.14453125 6.578125 -0.14453125 6.578125 -1.8125 9.25 C-2.35519531 10.14203125 -2.89789063 11.0340625 -3.45703125 11.953125 C-3.96621094 12.62859375 -4.47539062 13.3040625 -5 14 C-5.66 14 -6.32 14 -7 14 C-5.53967505 8.68972746 -3.01679014 4.53669968 0 0 Z " fill="#BD8D3F" transform="translate(166,520)"/>
<path d="M0 0 C1.9375 0.625 1.9375 0.625 4 2 C4.33333333 4 4.66666667 6 5 8 C6.95163118 9.43637698 6.95163118 9.43637698 9 10 C8.34 11.32 7.68 12.64 7 14 C5.82807953 12.04480616 4.6626071 10.0857461 3.5 8.125 C2.8503125 7.03445313 2.200625 5.94390625 1.53125 4.8203125 C0 2 0 2 0 0 Z " fill="#B88539" transform="translate(240,964)"/>
<path d="M0 0 C1.05543251 3.18769143 0.97424908 4.94786631 -0.25 8.0625 C-0.62898438 9.06990234 -0.62898438 9.06990234 -1.015625 10.09765625 C-2.0785986 12.15189491 -3.29068058 13.45873165 -5 15 C-4.54901762 13.06077578 -4.08894441 11.12366406 -3.625 9.1875 C-3.24214844 7.56908203 -3.24214844 7.56908203 -2.8515625 5.91796875 C-2 3 -2 3 0 0 Z " fill="#D49927" transform="translate(343,210)"/>
<path d="M0 0 C1.4800841 0.11362262 2.95910074 0.24122908 4.4375 0.375 C5.26121094 0.44460938 6.08492188 0.51421875 6.93359375 0.5859375 C7.95646484 0.79089844 7.95646484 0.79089844 9 1 C9.33 1.66 9.66 2.32 10 3 C10.99 3.66 11.98 4.32 13 5 C10.34501768 6.0169313 9.30844625 6.13022151 6.640625 5.00390625 C5.85171875 4.52824219 5.0628125 4.05257813 4.25 3.5625 C3.45078125 3.08941406 2.6515625 2.61632813 1.828125 2.12890625 C1.22484375 1.75636719 0.6215625 1.38382813 0 1 C0 0.67 0 0.34 0 0 Z " fill="#BF8727" transform="translate(467,1151)"/>
<path d="M0 0 C3 3.75 3 3.75 3 6 C3.66 6 4.32 6 5 6 C6.5625 8.8125 6.5625 8.8125 8 12 C7.67 12.99 7.34 13.98 7 15 C3.33304789 12.55536526 3.23418341 11.11394469 2 7 C1.62875 6.278125 1.2575 5.55625 0.875 4.8125 C0 3 0 3 0 0 Z " fill="#F3AD30" transform="translate(208,902)"/>
<path d="M0 0 C4.10697526 3.31207682 4.4209152 5.88475093 5 11 C5.66 11.33 6.32 11.66 7 12 C6.34 12.66 5.68 13.32 5 14 C3.96692229 12.23628182 2.94887951 10.46374967 1.9375 8.6875 C1.36902344 7.70136719 0.80054687 6.71523438 0.21484375 5.69921875 C-1 3 -1 3 0 0 Z " fill="#B88539" transform="translate(93,705)"/>
<path d="M0 0 C0.33 0.66 0.66 1.32 1 2 C-2.41176471 8.70588235 -2.41176471 8.70588235 -5 10 C-5.25 4.375 -5.25 4.375 -3 1 C-2.01 0.67 -1.02 0.34 0 0 Z " fill="#DBA030" transform="translate(243,389)"/>
<path d="M0 0 C3.93774177 -0.36630156 5.56539771 -0.30233203 8.875 2 C9.926875 2.99 9.926875 2.99 11 4 C10.67 4.66 10.34 5.32 10 6 C6.40992874 4.66654496 3.20429093 3.1056769 0 1 C0 0.67 0 0.34 0 0 Z " fill="#C48B26" transform="translate(555,1201)"/>
<path d="M0 0 C0.99 0.33 1.98 0.66 3 1 C3.6875 3.0625 3.6875 3.0625 4 5 C4.66 5 5.32 5 6 5 C6 6.65 6 8.3 6 10 C6.66 10.33 7.32 10.66 8 11 C7.01 11 6.02 11 5 11 C4.16151196 9.54462432 3.32936066 8.08559627 2.5 6.625 C1.80390625 5.40683594 1.80390625 5.40683594 1.09375 4.1640625 C0 2 0 2 0 0 Z " fill="#B78437" transform="translate(230,946)"/>
<path d="M0 0 C0.99 0 1.98 0 3 0 C1.43358249 4.30764815 -0.68336156 8.06171464 -3 12 C-3.33 10.68 -3.66 9.36 -4 8 C-3.34 8 -2.68 8 -2 8 C-1.855625 6.865625 -1.71125 5.73125 -1.5625 4.5625 C-1 1 -1 1 0 0 Z " fill="#BB892E" transform="translate(1134,771)"/>
<path d="M0 0 C3.34726719 1.11575573 3.62079748 1.51344622 5.25 4.4375 C5.8275 5.613125 6.405 6.78875 7 8 C6 10 6 10 4 11 C3.71125 10.030625 3.4225 9.06125 3.125 8.0625 C2.35785318 4.89335797 2.35785318 4.89335797 0 4 C0 2.68 0 1.36 0 0 Z " fill="#C28A33" transform="translate(1153,616)"/>
<path d="M0 0 C-1.62170379 1.00533667 -3.24747237 2.00411907 -4.875 3 C-6.23238281 3.8353125 -6.23238281 3.8353125 -7.6171875 4.6875 C-10 6 -10 6 -12 6 C-12 5.01 -12 4.02 -12 3 C-10.75823305 2.29773859 -9.50614401 1.61370891 -8.25 0.9375 C-7.20585938 0.36322266 -7.20585938 0.36322266 -6.140625 -0.22265625 C-3.63859372 -1.1312406 -2.4667645 -0.88336837 0 0 Z " fill="#B5822C" transform="translate(799,1152)"/>
<path d="M0 0 C3.93774177 -0.36630156 5.56539771 -0.30233203 8.875 2 C9.926875 2.99 9.926875 2.99 11 4 C9.4375 4.75 9.4375 4.75 7 5 C4.49713591 3.86915563 2.32992278 2.47860484 0 1 C0 0.67 0 0.34 0 0 Z " fill="#CF9128" transform="translate(368,1094)"/>
<path d="M0 0 C0.57816112 2.23005002 1.06687027 4.4107745 1.4375 6.6875 C1.7159375 7.8321875 1.7159375 7.8321875 2 9 C2.66 9.33 3.32 9.66 4 10 C3.34 11.32 2.68 12.64 2 14 C-2.04945055 7.74175824 -2.04945055 7.74175824 -1.8125 4.1875 C-1 2 -1 2 0 0 Z " fill="#B78534" transform="translate(78,673)"/>
<path d="M0 0 C0.33 0 0.66 0 1 0 C1.3125 3.3125 1.3125 3.3125 1 7 C-1.5 8.9375 -1.5 8.9375 -4 10 C-4 5.75354935 -2.18249194 3.61475228 0 0 Z " fill="#BF8B32" transform="translate(195,469)"/>
<path d="M0 0 C1.57432497 3.14864995 0.71895552 5.64487425 0 9 C-0.99 9.66 -1.98 10.32 -3 11 C-3.66 10.67 -4.32 10.34 -5 10 C-3.66511872 6.40608886 -2.03977277 3.24509304 0 0 Z " fill="#C08D31" transform="translate(320,250)"/>
<path d="M0 0 C-1.59622656 1.03320481 -3.20229106 2.05122429 -4.8125 3.0625 C-6.15248047 3.91521484 -6.15248047 3.91521484 -7.51953125 4.78515625 C-10 6 -10 6 -13 5 C-12.01 4.67 -11.02 4.34 -10 4 C-10 3.34 -10 2.68 -10 2 C-9.01 2 -8.02 2 -7 2 C-7 1.34 -7 0.68 -7 0 C-3.98968256 -0.93423645 -3.13349732 -1.04449911 0 0 Z " fill="#B9842D" transform="translate(954,1063)"/>
<path d="M0 0 C0.33 0.66 0.66 1.32 1 2 C1.99 2.33 2.98 2.66 4 3 C6.32265612 5.58072903 7 6.45176068 7 10 C6.34 10 5.68 10 5 10 C4.67 9.01 4.34 8.02 4 7 C3.01 6.67 2.02 6.34 1 6 C-0.1875 3.4375 -0.1875 3.4375 -1 1 C-0.67 0.67 -0.34 0.34 0 0 Z " fill="#DD9D29" transform="translate(281,1033)"/>
<path d="M0 0 C2.72675159 2.40689803 4.11966596 4.92471023 5.6875 8.1875 C6.12449219 9.08855469 6.56148437 9.98960937 7.01171875 10.91796875 C7.33785156 11.60503906 7.66398438 12.29210937 8 13 C7.34 13 6.68 13 6 13 C5.731875 12.195625 5.46375 11.39125 5.1875 10.5625 C4.795625 9.716875 4.40375 8.87125 4 8 C3.01 7.67 2.02 7.34 1 7 C0.67 4.69 0.34 2.38 0 0 Z " fill="#EEAB2F" transform="translate(188,868)"/>
<path d="M0 0 C0.99 0 1.98 0 3 0 C2.125 4.75 2.125 4.75 1 7 C0.01 7 -0.98 7 -2 7 C-1.125 1.125 -1.125 1.125 0 0 Z " fill="#DB9F34" transform="translate(81,668)"/>
<path d="M0 0 C1.0326802 2.78823655 1.04509293 3.8677274 0.0625 6.75 C-0.288125 7.4925 -0.63875 8.235 -1 9 C-1.66 9 -2.32 9 -3 9 C-3 9.66 -3 10.32 -3 11 C-3.66 11 -4.32 11 -5 11 C-3.77472971 6.94718288 -2.30119506 3.55639236 0 0 Z " fill="#BC8A38" transform="translate(128,586)"/>
<path d="M0 0 C7.50769231 0.61538462 7.50769231 0.61538462 10 2.5625 C10.33 3.036875 10.66 3.51125 11 4 C9.4375 4.75 9.4375 4.75 7 5 C4.49713591 3.86915563 2.32992278 2.47860484 0 1 C0 0.67 0 0.34 0 0 Z " fill="#C98F2B" transform="translate(354,1086)"/>
<path d="M0 0 C0.66 1.32 1.32 2.64 2 4 C1.01 5.485 1.01 5.485 0 7 C-0.99 7 -1.98 7 -3 7 C-3.33 7.66 -3.66 8.32 -4 9 C-3.46930939 5.17902761 -2.50298434 2.93828597 0 0 Z " fill="#DB9C2F" transform="translate(1007,992)"/>
<path d="M0 0 C0.99 0 1.98 0 3 0 C5.15305957 3.85756507 6.39253254 6.55129785 6 11 C2.90407165 7.4912812 1.25805377 4.50802601 0 0 Z " fill="#BE8C3B" transform="translate(133,777)"/>
<path d="M0 0 C-1.44950455 3.7910119 -3.15172566 7.3874638 -5 11 C-5.33 11 -5.66 11 -6 11 C-6.21952523 7.15830842 -5.72664863 4.45329726 -4 1 C-2 0 -2 0 0 0 Z " fill="#B58531" transform="translate(1149,750)"/>
<path d="M0 0 C0.721875 0.144375 1.44375 0.28875 2.1875 0.4375 C3.5796875 0.7159375 3.5796875 0.7159375 5 1 C6.66666667 1.33333333 8.33333333 1.66666667 10 2 C10 3.32 10 4.64 10 6 C6.40992874 4.66654496 3.20429093 3.1056769 0 1 C0 0.67 0 0.34 0 0 Z " fill="#C08928" transform="translate(513,1177)"/>
<path d="M0 0 C0.99 0 1.98 0 3 0 C1.74194623 4.50802601 0.09592835 7.4912812 -3 11 C-2.44894091 7.0507432 -1.61064629 3.65079826 0 0 Z " fill="#BB8B31" transform="translate(1120,795)"/>
<path d="M0 0 C3 1 3 1 4.6875 3.25 C6.06511203 6.1364252 6.26985151 7.85173236 6 11 C2.90407165 7.4912812 1.25805377 4.50802601 0 0 Z " fill="#BF8D37" transform="translate(100,720)"/>
<path d="M0 0 C2.61724095 2.36797991 4.32861729 4.89600354 6 8 C6 8.66 6 9.32 6 10 C4.125 9.8125 4.125 9.8125 2 9 C0.21715186 5.70173093 0 3.8225249 0 0 Z " fill="#C18932" transform="translate(1174,651)"/>
<path d="M0 0 C0.33 0.515625 0.66 1.03125 1 1.5625 C0.67 2.2225 0.34 2.8825 0 3.5625 C-3.3 2.5725 -6.6 1.5825 -10 0.5625 C-10 0.2325 -10 -0.0975 -10 -0.4375 C-2.49230769 -1.79134615 -2.49230769 -1.79134615 0 0 Z " fill="#DFA42F" transform="translate(916,197.4375)"/>
<path d="M0 0 C0.99 0 1.98 0 3 0 C3 0.66 3 1.32 3 2 C1.3203125 3.2890625 1.3203125 3.2890625 -0.875 4.625 C-1.95394531 5.29402344 -1.95394531 5.29402344 -3.0546875 5.9765625 C-5 7 -5 7 -7 7 C-7 6.01 -7 5.02 -7 4 C-4.69 3.34 -2.38 2.68 0 2 C0 1.34 0 0.68 0 0 Z " fill="#BE8D32" transform="translate(684,1214)"/>
<path d="M0 0 C3.09592835 3.5087188 4.74194623 6.49197399 6 11 C4.68 10.67 3.36 10.34 2 10 C1.11064623 6.696686 0.53725895 3.37705625 0 0 Z " fill="#ECAA2F" transform="translate(97,710)"/>
<path d="M0 0 C1.0625 1.8125 1.0625 1.8125 2 4 C1.67 4.99 1.34 5.98 1 7 C-0.65 7.33 -2.3 7.66 -4 8 C-2.87548273 5.0280615 -1.77706209 2.66559313 0 0 Z " fill="#C18D31" transform="translate(122,597)"/>
<path d="M0 0 C0.66 0.99 1.32 1.98 2 3 C1.21718695 4.33855056 0.42348123 5.67073644 -0.375 7 C-0.81585938 7.7425 -1.25671875 8.485 -1.7109375 9.25 C-2.13632813 9.8275 -2.56171875 10.405 -3 11 C-3.66 11 -4.32 11 -5 11 C-3.77472971 6.94718288 -2.30119506 3.55639236 0 0 Z " fill="#BF8C39" transform="translate(154,541)"/>
<path d="M0 0 C2.61500768 2.36595933 4.38999603 4.86049226 6 8 C5.67 8.66 5.34 9.32 5 10 C2 9 2 9 0.8125 6.6875 C0 4 0 4 0 0 Z " fill="#BA8D31" transform="translate(938,238)"/>
<path d="M0 0 C1.32 0.66 2.64 1.32 4 2 C-2.75 6 -2.75 6 -5 6 C-4.67 4.68 -4.34 3.36 -4 2 C-2.68 2 -1.36 2 0 2 C0 1.34 0 0.68 0 0 Z " fill="#C1872A" transform="translate(842,1123)"/>
<path d="M0 0 C0.99 0.33 1.98 0.66 3 1 C3 1.99 3 2.98 3 4 C3.66 4 4.32 4 5 4 C5.33 5.98 5.66 7.96 6 10 C3.38275905 7.63202009 1.67138271 5.10399646 0 2 C0 1.34 0 0.68 0 0 Z " fill="#BB893A" transform="translate(259,997)"/>
<path d="M0 0 C3 1 3 1 4.75 3.4375 C5.36875 4.7059375 5.36875 4.7059375 6 6 C5.67 6.66 5.34 7.32 5 8 C2.5 6.25 2.5 6.25 0 4 C0 2.68 0 1.36 0 0 Z " fill="#C18D35" transform="translate(1102,527)"/>
<path d="M0 0 C3.0916909 2.52956528 3.90931332 5.22454612 5 9 C4.34 9.66 3.68 10.32 3 11 C0 4.5 0 4.5 0 0 Z " fill="#C1892C" transform="translate(1046,427)"/>
<path d="M0 0 C-4.75 4 -4.75 4 -7 4 C-7 3.34 -7 2.68 -7 2 C-7.66 1.67 -8.32 1.34 -9 1 C-5.64919071 -1.10976881 -3.77897651 -1.0497157 0 0 Z " fill="#CB8F27" transform="translate(658,1232)"/>
<path d="M0 0 C-3.42346555 3.14958831 -6.44262737 3.56179109 -11 4 C-8.17267749 -0.24098377 -4.91545957 -1.63848652 0 0 Z " fill="#D59928" transform="translate(768,1169)"/>
<path d="M0 0 C1.65 0.33 3.3 0.66 5 1 C2.44008376 3.01136276 -0.04590299 4.62845496 -3 6 C-3.33 4.68 -3.66 3.36 -4 2 C-2.68 2 -1.36 2 0 2 C0 1.34 0 0.68 0 0 Z " fill="#C48926" transform="translate(831,1129)"/>
<path d="M0 0 C0.99 0.33 1.98 0.66 3 1 C3 1.99 3 2.98 3 4 C3.66 4 4.32 4 5 4 C5 5.32 5 6.64 5 8 C5.66 8.33 6.32 8.66 7 9 C6.01 9 5.02 9 4 9 C0 2.25 0 2.25 0 0 Z " fill="#B57F2F" transform="translate(283,1039)"/>
<path d="M0 0 C0.99 0 1.98 0 3 0 C3.99 2.31 4.98 4.62 6 7 C5.34 7.66 4.68 8.32 4 9 C0 2.25 0 2.25 0 0 Z " fill="#BE8D42" transform="translate(198,890)"/>
<path d="M0 0 C0.33 0 0.66 0 1 0 C0.67 3.3 0.34 6.6 0 10 C-0.99 9.01 -1.98 8.02 -3 7 C-1.125 2.25 -1.125 2.25 0 0 Z " fill="#C99132" transform="translate(94,646)"/>
<path d="M0 0 C0.75 1.6875 0.75 1.6875 1 4 C-0.9375 6.75 -0.9375 6.75 -3 9 C-3.36923077 3.46153846 -3.36923077 3.46153846 -1.5 1.125 C-1.005 0.75375 -0.51 0.3825 0 0 Z " fill="#DCA235" transform="translate(316,259)"/>
<path d="M0 0 C-3.20336822 2.83374881 -5.78087253 3.5205537 -10 4 C-10.33 3.34 -10.66 2.68 -11 2 C-7.17679443 0.57741188 -4.08718695 -0.24042276 0 0 Z " fill="#AC7C2B" transform="translate(641,1242)"/>
<path d="M0 0 C0 0.66 0 1.32 0 2 C-6.75 6 -6.75 6 -9 6 C-9 5.01 -9 4.02 -9 3 C-2.25 0 -2.25 0 0 0 Z " fill="#BE8930" transform="translate(667,1226)"/>
<path d="M0 0 C5.53846154 -0.36923077 5.53846154 -0.36923077 7.875 1.5 C8.24625 1.995 8.6175 2.49 9 3 C7.3125 3.6875 7.3125 3.6875 5 4 C2.25 2.625 2.25 2.625 0 1 C0 0.67 0 0.34 0 0 Z " fill="#C78E27" transform="translate(569,1209)"/>
<path d="M0 0 C2.97 0.99 5.94 1.98 9 3 C8.67 3.99 8.34 4.98 8 6 C4.64532525 4.82133049 2.28780716 3.76945078 0 1 C0 0.67 0 0.34 0 0 Z " fill="#CC932E" transform="translate(344,1079)"/>
<path d="M0 0 C6.75 0.75 6.75 0.75 9 3 C8.67 3.66 8.34 4.32 8 5 C4.62496331 3.8141763 2.35277269 2.72426311 0 0 Z " fill="#BB8527" transform="translate(330,1072)"/>
<path d="M0 0 C-6.75 4 -6.75 4 -9 4 C-9 3.01 -9 2.02 -9 1 C-5.57367167 -0.61798838 -3.61944899 -1.34053666 0 0 Z " fill="#B9832A" transform="translate(963,1058)"/>
<path d="M0 0 C3 1 3 1 4.75 3.875 C6 7 6 7 5 10 C4.16121545 8.71186658 3.32913217 7.41936744 2.5 6.125 C2.0359375 5.40570312 1.571875 4.68640625 1.09375 3.9453125 C0 2 0 2 0 0 Z " fill="#AC7F3C" transform="translate(127,767)"/>
<path d="M0 0 C1.9375 0.6875 1.9375 0.6875 4 2 C4.625 4.5625 4.625 4.5625 5 7 C5.66 7.33 6.32 7.66 7 8 C6.34 8.66 5.68 9.32 5 10 C4.16121545 8.71186658 3.32913217 7.41936744 2.5 6.125 C2.0359375 5.40570312 1.571875 4.68640625 1.09375 3.9453125 C0 2 0 2 0 0 Z " fill="#B78234" transform="translate(113,743)"/>
<path d="M0 0 C4.76058041 5.52841596 4.76058041 5.52841596 5 9 C4.34 9.66 3.68 10.32 3 11 C0 4.5 0 4.5 0 0 Z " fill="#B8852B" transform="translate(927,218)"/>
<path d="M0 0 C1.98 0 3.96 0 6 0 C6 0.66 6 1.32 6 2 C6.99 2.33 7.98 2.66 9 3 C7.3125 3.6875 7.3125 3.6875 5 4 C2.25 2.625 2.25 2.625 0 1 C0 0.67 0 0.34 0 0 Z " fill="#C68C28" transform="translate(391,1107)"/>
<path d="M0 0 C0.99 0.33 1.98 0.66 3 1 C1.92598892 3.91517292 1.22189824 5.77810176 -1 8 C-1.125 2.25 -1.125 2.25 0 0 Z " fill="#C38A33" transform="translate(1010,986)"/>
<path d="M0 0 C0.99 0.33 1.98 0.66 3 1 C1.92598892 3.91517292 1.22189824 5.77810176 -1 8 C-1.125 2.25 -1.125 2.25 0 0 Z " fill="#C48E2F" transform="translate(1066,888)"/>
<path d="M0 0 C0.99 0.33 1.98 0.66 3 1 C1.92598892 3.91517292 1.22189824 5.77810176 -1 8 C-1.125 2.25 -1.125 2.25 0 0 Z " fill="#C38D2A" transform="translate(1088,850)"/>
<path d="M0 0 C0.66 0.66 1.32 1.32 2 2 C1.63318342 4.93453261 1.13562754 5.86437246 -1 8 C-1.66 7.67 -2.32 7.34 -3 7 C-1.125 2.25 -1.125 2.25 0 0 Z " fill="#C48C32" transform="translate(117,605)"/>
<path d="M0 0 C3 1 3 1 4.75 3.4375 C5.36875 4.7059375 5.36875 4.7059375 6 6 C5 8 5 8 3 9 C2.01 6.03 1.02 3.06 0 0 Z " fill="#C48F36" transform="translate(1119,557)"/>
<path d="M0 0 C1.0326802 2.78823655 1.04509293 3.8677274 0.0625 6.75 C-0.288125 7.4925 -0.63875 8.235 -1 9 C-1.99 8.67 -2.98 8.34 -4 8 C-2.87548273 5.0280615 -1.77706209 2.66559313 0 0 Z " fill="#BD8B31" transform="translate(202,457)"/>
<path d="M0 0 C3 1 3 1 4.75 3.4375 C5.36875 4.7059375 5.36875 4.7059375 6 6 C5.67 6.66 5.34 7.32 5 8 C2.21611025 6.29374499 1.14615794 5.52373261 0.25 2.3125 C0.1675 1.549375 0.085 0.78625 0 0 Z " fill="#C79234" transform="translate(1006,359)"/>
<path d="M0 0 C3 1 3 1 4.75 3.4375 C5.36875 4.7059375 5.36875 4.7059375 6 6 C5.67 6.66 5.34 7.32 5 8 C2.5 5.6875 2.5 5.6875 0 3 C0 2.01 0 1.02 0 0 Z " fill="#BB8830" transform="translate(1002,352)"/>
<path d="M0 0 C3 1 3 1 4.75 3.4375 C5.36875 4.7059375 5.36875 4.7059375 6 6 C5.67 6.66 5.34 7.32 5 8 C4.01 7.67 3.02 7.34 2 7 C0.8125 3.4375 0.8125 3.4375 0 0 Z " fill="#C79433" transform="translate(974,303)"/>
<path d="M0 0 C6.75 0.75 6.75 0.75 9 3 C7.3125 3.6875 7.3125 3.6875 5 4 C2.25 2.625 2.25 2.625 0 1 C0 0.67 0 0.34 0 0 Z " fill="#C68D2A" transform="translate(623,1240)"/>
<path d="M0 0 C6.75 0.75 6.75 0.75 9 3 C7.3125 3.6875 7.3125 3.6875 5 4 C2.25 2.625 2.25 2.625 0 1 C0 0.67 0 0.34 0 0 Z " fill="#C08829" transform="translate(323,1068)"/>
<path d="M0 0 C0.66 0 1.32 0 2 0 C0.90931332 3.77545388 0.0916909 6.47043472 -3 9 C-2.5020163 5.26512223 -2.12508244 3.18762365 0 0 Z " fill="#B98A37" transform="translate(1072,880)"/>
<path d="M0 0 C3 1 3 1 5 4 C5.125 6.6875 5.125 6.6875 5 9 C0.57142857 3.85714286 0.57142857 3.85714286 0 0 Z " fill="#AF7E35" transform="translate(143,795)"/>
<path d="M0 0 C0.66 0 1.32 0 2 0 C0.90931332 3.77545388 0.0916909 6.47043472 -3 9 C-2.44271087 5.65626525 -1.64826111 2.96687001 0 0 Z " fill="#BE8C35" transform="translate(1152,741)"/>
<path d="M0 0 C0.6875 1.6875 0.6875 1.6875 1 4 C-0.3125 6.75 -0.3125 6.75 -2 9 C-2.66 9 -3.32 9 -4 9 C-2.94124926 5.59687262 -1.99097846 2.98646769 0 0 Z " fill="#BC8636" transform="translate(103,630)"/>
<path d="M0 0 C0.6875 1.6875 0.6875 1.6875 1 4 C-0.3125 6.75 -0.3125 6.75 -2 9 C-2.66 9 -3.32 9 -4 9 C-2.94124926 5.59687262 -1.99097846 2.98646769 0 0 Z " fill="#B78333" transform="translate(171,511)"/>
<path d="M0 0 C2.11180592 2.57089417 3.66306057 4.63060567 4 8 C3.34 8.66 2.68 9.32 2 10 C0.68373308 6.38026598 0 3.90432869 0 0 Z " fill="#B88430" transform="translate(1079,484)"/>
<path d="M0 0 C1.32 1.65 2.64 3.3 4 5 C3.67 5.66 3.34 6.32 3 7 C1.68 6.67 0.36 6.34 -1 6 C-0.67 4.02 -0.34 2.04 0 0 Z " fill="#BF8825" transform="translate(996,339)"/>
<path d="M0 0 C0.6875 1.6875 0.6875 1.6875 1 4 C-0.3125 6.75 -0.3125 6.75 -2 9 C-2.66 9 -3.32 9 -4 9 C-2.94124926 5.59687262 -1.99097846 2.98646769 0 0 Z " fill="#B38230" transform="translate(279,322)"/>
<path d="M0 0 C0.6875 1.6875 0.6875 1.6875 1 4 C-0.3125 6.75 -0.3125 6.75 -2 9 C-2.66 9 -3.32 9 -4 9 C-2.94124926 5.59687262 -1.99097846 2.98646769 0 0 Z " fill="#B68533" transform="translate(300,285)"/>
<path d="M0 0 C0.6875 1.6875 0.6875 1.6875 1 4 C-0.3125 6.75 -0.3125 6.75 -2 9 C-2.66 9 -3.32 9 -4 9 C-2.94124926 5.59687262 -1.99097846 2.98646769 0 0 Z " fill="#B0822F" transform="translate(332,229)"/>
<path d="M0 0 C3.63 0 7.26 0 11 0 C7 3 7 3 3.25 2.6875 C2.1775 2.460625 1.105 2.23375 0 2 C0 1.34 0 0.68 0 0 Z " fill="#F3B020" transform="translate(359,197)"/>
<path d="M0 0 C2.625 0.375 2.625 0.375 5 1 C0.25 5 0.25 5 -2 5 C-2 2 -2 2 0 0 Z " fill="#B7842A" transform="translate(709,1199)"/>
<path d="M0 0 C0.99 0.33 1.98 0.66 3 1 C1.92598892 3.91517292 1.22189824 5.77810176 -1 8 C-0.67 5.36 -0.34 2.72 0 0 Z " fill="#BB852E" transform="translate(1034,944)"/>
<path d="M0 0 C1.32 0 2.64 0 4 0 C2.92598892 2.91517292 2.22189824 4.77810176 0 7 C0 4.69 0 2.38 0 0 Z " fill="#BC872E" transform="translate(1049,917)"/>
<path d="M0 0 C0.99 0 1.98 0 3 0 C1.92598892 2.91517292 1.22189824 4.77810176 -1 7 C-1.04254356 5.00045254 -1.04080783 2.99958364 -1 1 C-0.67 0.67 -0.34 0.34 0 0 Z " fill="#BD872E" transform="translate(1058,903)"/>
<path d="M0 0 C2.475 0.99 2.475 0.99 5 2 C5 2.99 5 3.98 5 5 C3.68 4.67 2.36 4.34 1 4 C0.67 2.68 0.34 1.36 0 0 Z " fill="#CA9339" transform="translate(203,899)"/>
<path d="M0 0 C2.79872437 2.52788007 4.45773019 4.20411134 5 8 C4.01 8 3.02 8 2 8 C2 6.35 2 4.7 2 3 C1.34 3 0.68 3 0 3 C0 2.01 0 1.02 0 0 Z " fill="#F2AD34" transform="translate(196,882)"/>
</svg>
