<?xml version="1.0" encoding="UTF-8"?>
<svg version="1.1" xmlns="http://www.w3.org/2000/svg" width="431" height="442">
<path d="M0 0 C142.23 0 284.46 0 431 0 C431 145.86 431 291.72 431 442 C288.77 442 146.54 442 0 442 C0 296.14 0 150.28 0 0 Z " fill="#FAA514" transform="translate(0,0)"/>
<path d="M0 0 C142.23 0 284.46 0 431 0 C431 145.86 431 291.72 431 442 C288.77 442 146.54 442 0 442 C0 296.14 0 150.28 0 0 Z M204 16 C202.906875 16.70125 201.81375 17.4025 200.6875 18.125 C197.99957855 19.88353889 197.99957855 19.88353889 196 22 C193.45807551 22.78147003 190.89733238 23.39977155 188.3125 24.0234375 C185.44074548 25.23617167 185.28642037 26.26768566 184 29 C182.0546875 30.046875 182.0546875 30.046875 179.875 30.75 C179.15054688 30.99234375 178.42609375 31.2346875 177.6796875 31.484375 C177.12539062 31.65453125 176.57109375 31.8246875 176 32 C176 32.66 176 33.32 176 34 C175.4225 34.12375 174.845 34.2475 174.25 34.375 C171.92605949 35.02053903 170.05054346 35.72724889 168 37 C167.67 37.99 167.34 38.98 167 40 C164.35535809 41.44706822 161.72922015 42.73059528 159 44 C156.955668 45.01548518 154.91412097 46.03659107 152.875 47.0625 C149.843724 48.578138 146.81229133 50.09328552 143.77734375 51.6015625 C139.47208332 53.76933076 135.50100363 56.3216422 131.5 59 C126.79414853 62.14499974 122.31187245 64.88109108 117.07421875 67.0625 C112.57358166 69.09668626 108.2962544 71.57091883 104 74 C103.03320312 74.54527344 102.06640625 75.09054688 101.0703125 75.65234375 C100.16023438 76.17957031 99.25015625 76.70679687 98.3125 77.25 C97.48363281 77.72953125 96.65476563 78.2090625 95.80078125 78.703125 C95.20652344 79.13109375 94.61226562 79.5590625 94 80 C94 80.66 94 81.32 94 82 C92.824375 82.309375 92.824375 82.309375 91.625 82.625 C87.54416208 84.17290404 84.1163543 86.24778866 80.4140625 88.53515625 C77.67176767 90.1991701 74.89662317 91.62791534 72 93 C72 93.66 72 94.32 72 95 C70.6696875 95.37125 70.6696875 95.37125 69.3125 95.75 C65.97929089 96.80734867 65.97929089 96.80734867 63.625 98.9375 C61.24228426 100.8096338 59.78560704 101.54538186 57 102.5 C53.3580084 103.75491845 50.96095499 105.50656422 48 108 C46 109 44 110 42 111 C37.18878569 113.46897977 37.18878569 113.46897977 34.35827935 117.84521639 C34.11561295 120.12729152 34.10020548 122.31722185 34.15821838 124.61164856 C34.15223741 125.47755023 34.14625644 126.3434519 34.14009422 127.23559302 C34.12856375 130.1370163 34.16705694 133.03560553 34.20532227 135.93676758 C34.20729678 138.01629571 34.20618846 140.09582872 34.20222473 142.175354 C34.20021428 147.82199876 34.24140133 153.46760504 34.29024243 159.11400819 C34.33396817 165.01432181 34.33811093 170.91465861 34.34642029 176.81510925 C34.36818692 187.98891032 34.42564385 199.16223263 34.49586672 210.33582276 C34.5740779 223.05630616 34.61258865 235.77681228 34.64773476 248.49747622 C34.72092511 274.6652497 34.84406904 300.83259804 35 327 C36.09273224 327.61402176 37.18546448 328.22804352 38.31130981 328.860672 C39.76239649 329.67639048 41.21347646 330.49212088 42.66455078 331.30786133 C43.38270462 331.71136055 44.10085846 332.11485977 44.84077454 332.53058624 C50.20632018 335.54735158 55.55183961 338.59648045 60.875 341.6875 C61.62523438 342.12126953 62.37546875 342.55503906 63.1484375 343.00195312 C67.09095748 345.28712952 71.01200192 347.60339526 74.9140625 349.95703125 C80.06252347 353.05517167 85.27369299 356.03559543 90.5 359 C96.56481341 362.44001233 102.58728074 365.93398691 108.55761719 369.53564453 C112.47053349 371.88167332 116.42251471 374.15898915 120.375 376.4375 C122.03910662 377.39966329 123.70316919 378.36190276 125.3671875 379.32421875 C128.07950098 380.89146758 130.79299531 382.45662496 133.5078125 384.01953125 C139.0871665 387.24623337 144.5577528 390.58400471 149.94140625 394.12890625 C153.57432871 396.35134541 157.30422384 398.3559556 161.04907227 400.38256836 C165.81630622 402.99553477 170.49869064 405.74955247 175.1875 408.5 C176.20763184 409.09369385 177.22776367 409.6873877 178.27880859 410.29907227 C183.77790968 413.50344833 189.24754495 416.74827631 194.68359375 420.05859375 C195.76294189 420.70828125 196.84229004 421.35796875 197.9543457 422.02734375 C200.03021713 423.27794959 202.09816771 424.54182155 204.15698242 425.8203125 C205.09775635 426.38363281 206.03853027 426.94695312 207.0078125 427.52734375 C207.82910645 428.02999756 208.65040039 428.53265137 209.49658203 429.05053711 C212.72568143 430.27522675 214.69414193 429.8617823 218 429 C220.65589231 427.61213027 220.65589231 427.61213027 223.1875 425.8125 C227.64884009 422.77659576 232.25726578 420.19838499 237.00073242 417.6394043 C242.08100835 414.86251762 247.06778838 411.92716305 252.0625 409 C253.07376953 408.40960938 254.08503906 407.81921875 255.12695312 407.2109375 C260.70528395 403.94942791 266.25847565 400.64947982 271.79516602 397.31787109 C274.65362735 395.60931453 277.54049928 393.95474882 280.4375 392.3125 C292.73867885 385.31209565 305.02704411 378.28501165 317.10522461 370.90454102 C319.70119138 369.32827149 322.29686707 367.85195101 325.015625 366.49609375 C328.28437859 364.85743848 331.33785651 363.00117258 334.4375 361.0625 C338.91151007 358.28091748 343.41067016 355.58671318 348 353 C349.75133252 351.98145443 351.50113846 350.96028248 353.25 349.9375 C357.06661863 347.70632017 360.88865114 345.48531008 364.71875 343.27734375 C365.96350098 342.55913452 365.96350098 342.55913452 367.23339844 341.82641602 C368.87139569 340.88172319 370.51003492 339.93814232 372.14941406 338.99584961 C376.59487513 336.4305527 380.97539916 333.79425501 385.29443359 331.02075195 C387.43274081 329.74101212 389.67691993 328.8882365 392 328 C394.56741727 325.43258273 394.23921621 323.74489275 394.25816262 320.24548328 C394.25233693 319.43420982 394.24651125 318.62293636 394.24050903 317.78707886 C394.24221788 316.92782401 394.24392673 316.06856917 394.24568737 315.1832763 C394.24899688 312.28730273 394.23795463 309.3915579 394.22705078 306.49560547 C394.22648698 304.42637131 394.22680261 302.35713676 394.22793579 300.28790283 C394.22851153 294.65593471 394.21672154 289.02405113 394.20278788 283.39210272 C394.19031725 277.51174182 394.18911292 271.63137916 394.18673706 265.75100708 C394.18051148 254.6091916 394.16408611 243.4674152 394.14403808 232.32561696 C394.12171257 219.64383424 394.11069409 206.96204969 394.10064721 194.28025222 C394.0797208 168.18681312 394.04452393 142.09340874 394 116 C393.34 116 392.68 116 392 116 C392 116.66 392 117.32 392 118 C391.34 118.2475 390.68 118.495 390 118.75 C387.54245398 119.77397751 385.14697834 120.84462195 382.75 122 C382.06421875 122.33 381.3784375 122.66 380.671875 123 C378.825372 123.90089312 378.825372 123.90089312 378 126 C376.48367205 126.665209 374.93542268 127.25857352 373.375 127.8125 C369.37658899 129.34512996 366.27862539 131.05863088 362.90234375 133.6484375 C358.86440997 136.51727752 354.3661501 138.6771833 350 141 C342.27233857 145.22500007 334.64043688 149.6200625 327 154 C327 154.66 327 155.32 327 156 C326.31164062 156.26554688 325.62328125 156.53109375 324.9140625 156.8046875 C315.57482867 160.63552604 307.40698178 165.19502981 299.375 171.2890625 C296.40580112 173.42805774 293.40951915 174.68404524 290 176 C285.97746825 177.95539738 281.98852776 179.97626424 278 182 C278 182.66 278 183.32 278 184 C277.34 184 276.68 184 276 184 C276 184.66 276 185.32 276 186 C275.34 186.2475 274.68 186.495 274 186.75 C265.75228542 190.18654774 256.9592213 194.28058402 249.8125 199.640625 C247.86689987 201.0998251 246.37365591 201.57613287 244 202 C243.77828125 201.19949219 243.5565625 200.39898437 243.328125 199.57421875 C241.62475508 194.99014971 239.24758651 191.00383774 236.75 186.8125 C235.75678673 185.12299844 234.76459357 183.43289675 233.7734375 181.7421875 C233.29616211 180.92975586 232.81888672 180.11732422 232.32714844 179.28027344 C229.41002212 174.26813955 226.59376384 169.18752769 224 164 C223.34 164 222.68 164 222 164 C221.566875 162.6696875 221.566875 162.6696875 221.125 161.3125 C220.16851252 158.49617576 219.13201054 155.74916844 218 153 C217.34 153 216.68 153 216 153 C215.48046875 150.34375 215.48046875 150.34375 216 147 C218.46549921 144.66602597 221.35382953 143.13587787 224.3125 141.5 C225.13758057 141.02079102 225.96266113 140.54158203 226.81274414 140.04785156 C231.99107185 137.0586572 237.23670841 134.18633007 242.515625 131.37890625 C245.1496705 129.91692817 247.66113247 128.328144 250.1875 126.6875 C255.3207328 123.36298118 260.60096255 120.37986497 265.94482422 117.41357422 C270.30542557 114.9825157 274.57503891 112.45272546 278.8125 109.8125 C283.51072186 106.88621193 288.26881495 104.16414262 293.14453125 101.546875 C298.14880601 98.83594093 303.07918526 95.99598407 308.00683594 93.14892578 C309.41983738 92.33442495 310.83474881 91.52323349 312.25097656 90.71435547 C314.58796283 89.37886539 316.91938745 88.03407614 319.25 86.6875 C319.98943848 86.26694336 320.72887695 85.84638672 321.49072266 85.41308594 C322.17956543 85.01250977 322.8684082 84.61193359 323.578125 84.19921875 C324.19075195 83.84690186 324.80337891 83.49458496 325.43457031 83.1315918 C327.30843306 81.91582321 327.30843306 81.91582321 329 79 C325.90672105 76.02324541 325.90672105 76.02324541 322 75 C322 74.34 322 73.68 322 73 C320.35 72.67 318.7 72.34 317 72 C317 71.34 317 70.68 317 70 C314.04622502 67.63019987 314.04622502 67.63019987 310 68 C310 67.34 310 66.68 310 66 C307.39939496 64.65929682 304.79495084 63.32726646 302.1875 62 C301.44951172 61.6184375 300.71152344 61.236875 299.95117188 60.84375 C298.88286133 60.30234375 298.88286133 60.30234375 297.79296875 59.75 C297.1383667 59.41484375 296.48376465 59.0796875 295.80932617 58.734375 C293.86215451 57.81195737 293.86215451 57.81195737 291 58 C291 57.34 291 56.68 291 56 C288.71329212 54.49360482 286.43601055 53.10693469 284.0625 51.75 C278.86320059 48.72166188 273.8111837 45.62254243 268.9296875 42.09375 C266.64954435 40.80136117 264.57716489 40.39237112 262 40 C262 39.34 262 38.68 262 38 C260.97648438 37.58492187 259.95296875 37.16984375 258.8984375 36.7421875 C255.25482351 35.17959186 251.97595077 33.2514058 248.625 31.125 C244.15173967 28.3158799 239.64590374 25.61955175 235.00390625 23.09765625 C232.99892011 21.99940848 231.03188363 20.84810185 229.0625 19.6875 C226.29082894 17.83913175 226.29082894 17.83913175 224 18 C224 17.34 224 16.68 224 16 C223.38125 15.896875 222.7625 15.79375 222.125 15.6875 C220 15 220 15 218 12 C212.24635338 11.2102838 208.65720673 12.85958996 204 16 Z " fill="#F7F6F5" transform="translate(0,0)"/>
<path d="M0 0 C0.66 0 1.32 0 2 0 C2.07000752 27.32876842 2.12294763 54.65752345 2.15543652 81.98636341 C2.17092102 94.67494004 2.19204077 107.36346103 2.22631836 120.05200195 C2.25617226 131.10827298 2.27556347 142.16450372 2.28226548 153.22081393 C2.28618454 159.07781534 2.2954277 164.93470148 2.31719017 170.79166603 C2.337492 176.29994507 2.3438466 181.80806092 2.33932304 187.31637383 C2.34015108 189.34210724 2.34615408 191.3678459 2.35761642 193.39354706 C2.37246193 196.15150924 2.36898279 198.90884886 2.36076355 201.66682434 C2.36950207 202.47518496 2.3782406 203.28354558 2.38724393 204.11640197 C2.34328097 209.54437537 2.34328097 209.54437537 0.47745228 212.02082348 C-0.01010697 212.34395173 -0.49766623 212.66707998 -1 213 C-1.66 212.67 -2.32 212.34 -3 212 C-2.01 211.01 -2.01 211.01 -1 210 C-0.79444222 207.26756743 -0.71491112 204.6352686 -0.7215271 201.90097046 C-0.7128385 200.63046418 -0.7128385 200.63046418 -0.70397437 199.3342911 C-0.68689134 196.47982151 -0.68409076 193.62551278 -0.68115234 190.77099609 C-0.67185989 188.73131408 -0.66169225 186.6916359 -0.65071106 184.65196228 C-0.62332001 179.100613 -0.60823476 173.54928922 -0.59528303 167.99789 C-0.57969219 162.20157654 -0.55288917 156.40531547 -0.5272522 150.60903931 C-0.48039252 139.62663409 -0.44368328 128.64421909 -0.41057932 117.66176474 C-0.37240862 105.16131928 -0.3229853 92.66092633 -0.27259517 80.16052508 C-0.16916843 54.44038894 -0.07994307 28.72021909 0 3 C-0.66 2.67 -1.32 2.34 -2 2 C-1.34 2 -0.68 2 0 2 C0 1.34 0 0.68 0 0 Z " fill="#F9C55B" transform="translate(392,116)"/>
<path d="M0 0 C0 0.66 0 1.32 0 2 C-0.66 2 -1.32 2 -2 2 C-2.2165625 2.928125 -2.2165625 2.928125 -2.4375 3.875 C-3 6 -3 6 -4 8 C-8.41936373 10.34778698 -13.09879061 10.59423539 -18 11 C-15.28423427 7.91434503 -11.91344172 5.92712681 -8.4375 3.8125 C-7.84775391 3.44447266 -7.25800781 3.07644531 -6.65039062 2.69726562 C-2.25169585 0 -2.25169585 0 0 0 Z " fill="#FAF0DB" transform="translate(274,396)"/>
<path d="M0 0 C0 0.66 0 1.32 0 2 C-0.99 2.33 -1.98 2.66 -3 3 C-3.33 3.66 -3.66 4.32 -4 5 C-4.99 5 -5.98 5 -7 5 C-7.66 6.65 -8.32 8.3 -9 10 C-10.5778125 10.2165625 -10.5778125 10.2165625 -12.1875 10.4375 C-15.15460549 10.87526966 -18.06794366 11.37804866 -21 12 C-19.70168293 9.40336586 -18.35379471 8.92892479 -15.8125 7.5625 C-15.00167969 7.12421875 -14.19085938 6.6859375 -13.35546875 6.234375 C-10.58910403 4.78467143 -7.79340273 3.39670137 -5 2 C-2 0 -2 0 0 0 Z " fill="#FBECC9" transform="translate(333,362)"/>
<path d="M0 0 C0.66 0.33 1.32 0.66 2 1 C-1.58241234 4.02266041 -5.30398125 6.47640998 -9.328125 8.8515625 C-11.15600412 9.90864714 -11.15600412 9.90864714 -12 12 C-13.9609375 12.6328125 -13.9609375 12.6328125 -16.375 13.125 C-17.16648438 13.29257812 -17.95796875 13.46015625 -18.7734375 13.6328125 C-21 14 -21 14 -24 14 C-23.67 13.34 -23.34 12.68 -23 12 C-20.92578125 11.32421875 -20.92578125 11.32421875 -18.3125 10.6875 C-13.32137181 9.28884815 -10.79805973 7.45278157 -7 4 C-5.02288349 2.95548562 -3.02749004 1.94301862 -1 1 C-0.67 0.67 -0.34 0.34 0 0 Z " fill="#F4C466" transform="translate(209,13)"/>
<path d="M0 0 C8.96058866 4.27561083 17.08912724 9.01387084 25 15 C23.35 15 21.7 15 20 15 C20 14.34 20 13.68 20 13 C19.278125 12.73058594 18.55625 12.46117187 17.8125 12.18359375 C15.02424406 11.01020271 12.57552773 9.644035 10 8.0625 C9.175 7.55847656 8.35 7.05445313 7.5 6.53515625 C6.675 6.02855469 5.85 5.52195312 5 5 C4.071875 4.48308594 3.14375 3.96617187 2.1875 3.43359375 C1.465625 2.96050781 0.74375 2.48742187 0 2 C0 1.34 0 0.68 0 0 Z " fill="#FBEDC2" transform="translate(67,345)"/>
<path d="M0 0 C0 0.66 0 1.32 0 2 C-3 4 -3 4 -6 4 C-6 4.66 -6 5.32 -6 6 C-6.50789063 6.24234375 -7.01578125 6.4846875 -7.5390625 6.734375 C-10.99612871 8.41759076 -14.10266612 10.07305089 -17.25 12.3125 C-20 14 -20 14 -22.171875 13.60546875 C-23.07679688 13.30576172 -23.07679688 13.30576172 -24 13 C-23.0821875 12.48050781 -22.164375 11.96101563 -21.21875 11.42578125 C-19.97893778 10.72175709 -18.73937042 10.01730162 -17.5 9.3125 C-16.8615918 8.94962891 -16.22318359 8.58675781 -15.56542969 8.21289062 C-12.07361687 6.21807519 -8.63415605 4.17463361 -5.25 2 C-2 0 -2 0 0 0 Z " fill="#FBE1A9" transform="translate(303,96)"/>
<path d="M0 0 C2.95814719 2.61227152 4.71876108 5.66570307 6.6875 9.0625 C7.31011719 10.12597656 7.93273437 11.18945312 8.57421875 12.28515625 C10 15 10 15 10 17 C8.35 17 6.7 17 5 17 C4.87625 15.948125 4.7525 14.89625 4.625 13.8125 C4.08859218 10.54041229 3.36119965 7.99463924 2 5 C1.34 5 0.68 5 0 5 C0 3.35 0 1.7 0 0 Z " fill="#F4B241" transform="translate(231,179)"/>
<path d="M0 0 C0 0.66 0 1.32 0 2 C-0.99 2 -1.98 2 -3 2 C-3.66 3.98 -4.32 5.96 -5 8 C-5.7425 7.95875 -6.485 7.9175 -7.25 7.875 C-9.97841527 7.80744481 -9.97841527 7.80744481 -12.0625 9.0625 C-14 10 -14 10 -16.25 9.625 C-16.8275 9.41875 -17.405 9.2125 -18 9 C-15.56215717 7.46764165 -13.25484693 6.09801805 -10.5625 5.0625 C-7.79489683 4.01191174 -7.79489683 4.01191174 -4.8125 1.875 C-2 0 -2 0 0 0 Z " fill="#F5B63E" transform="translate(70,96)"/>
<path d="M0 0 C-1 3 -1 3 -4.4375 4.875 C-5.15035156 5.20628906 -5.86320313 5.53757812 -6.59765625 5.87890625 C-10.09452444 7.51077807 -13.48623244 9.3433518 -16.8984375 11.14453125 C-17.59195313 11.42683594 -18.28546875 11.70914063 -19 12 C-19.66 11.67 -20.32 11.34 -21 11 C-18.03421993 7.41634908 -15.29100148 6.23006754 -11.02734375 4.79296875 C-6.86543462 3.16509292 -4.58125289 0 0 0 Z " fill="#F7D083" transform="translate(168,38)"/>
<path d="M0 0 C0.66 0.66 1.32 1.32 2 2 C0.948125 2.268125 -0.10375 2.53625 -1.1875 2.8125 C-4.59924018 3.87517317 -7.02063336 5.09651576 -10 7 C-10.99 7.33 -11.98 7.66 -13 8 C-12.67 7.01 -12.34 6.02 -12 5 C-11.34 5 -10.68 5 -10 5 C-9.67 4.01 -9.34 3.02 -9 2 C-5.54754176 -0.30163882 -4.05261287 -0.34490322 0 0 Z " fill="#FBF2DB" transform="translate(214,10)"/>
<path d="M0 0 C0.66 0.33 1.32 0.66 2 1 C-0.77656293 3.44000985 -3.33694384 5.25274031 -6.75 6.625 C-10.08019566 7.61915311 -10.08019566 7.61915311 -11 10 C-13.32156597 10.40729228 -15.6568787 10.74438677 -18 11 C-15.20517803 9.13678535 -12.39104923 7.31149965 -9.5625 5.5 C-8.61503906 4.8915625 -7.66757813 4.283125 -6.69140625 3.65625 C-2.1875 0.88461538 -2.1875 0.88461538 0 0 Z " fill="#F1BC52" transform="translate(263,192)"/>
<path d="M0 0 C1.485 0.99 1.485 0.99 3 2 C3.66 1.67 4.32 1.34 5 1 C5.16435547 1.88751953 5.16435547 1.88751953 5.33203125 2.79296875 C6.27701195 7.50250673 7.45821934 10.88473607 10 15 C9.67 15.99 9.34 16.98 9 18 C7.87159372 15.93930083 6.74721229 13.87656904 5.625 11.8125 C4.99851563 10.66394531 4.37203125 9.51539063 3.7265625 8.33203125 C2.30306245 5.58486938 1.07941553 2.89479619 0 0 Z " fill="#FCF3DA" transform="translate(225,166)"/>
<path d="M0 0 C0.66 0.33 1.32 0.66 2 1 C1.67 1.66 1.34 2.32 1 3 C0.34 3 -0.32 3 -1 3 C-1.33 3.99 -1.66 4.98 -2 6 C-5.91390601 7.47694566 -8.99434629 8.60226148 -13 7 C-8.375 4 -8.375 4 -5 4 C-5 3.34 -5 2.68 -5 2 C-2.625 0.9375 -2.625 0.9375 0 0 Z " fill="#F2B94A" transform="translate(181,30)"/>
<path d="M0 0 C0 0.66 0 1.32 0 2 C-1.65 2.66 -3.3 3.32 -5 4 C-5 4.66 -5 5.32 -5 6 C-5.886875 6.28875 -6.77375 6.5775 -7.6875 6.875 C-10.50382424 7.83148748 -13.25083156 8.86798946 -16 10 C-16 9.34 -16 8.68 -16 8 C-15.34 8 -14.68 8 -14 8 C-14 7.34 -14 6.68 -14 6 C-12.04414675 4.99515796 -10.08523763 3.99626195 -8.125 3 C-7.03445313 2.443125 -5.94390625 1.88625 -4.8203125 1.3125 C-2 0 -2 0 0 0 Z " fill="#F1BE5B" transform="translate(292,176)"/>
<path d="M0 0 C2.64 0 5.28 0 8 0 C8.103125 0.639375 8.20625 1.27875 8.3125 1.9375 C8.6528125 2.9584375 8.6528125 2.9584375 9 4 C9.99 4.33 10.98 4.66 12 5 C12 5.66 12 6.32 12 7 C7.69235185 5.43358249 3.93828536 3.31663844 0 1 C0 0.67 0 0.34 0 0 Z " fill="#F1AF2A" transform="translate(44,331)"/>
<path d="M0 0 C0.33 0.66 0.66 1.32 1 2 C-0.3125 3.5 -0.3125 3.5 -2 5 C-2.99 5 -3.98 5 -5 5 C-5 5.66 -5 6.32 -5 7 C-7.31 7.33 -9.62 7.66 -12 8 C-8.70219679 4.17454828 -5.59475151 2.82056192 -1 1 C-0.67 0.67 -0.34 0.34 0 0 Z " fill="#FAE7B9" transform="translate(393,326)"/>
<path d="M0 0 C0.66 0.33 1.32 0.66 2 1 C1.34 2.65 0.68 4.3 0 6 C-1.65 5.67 -3.3 5.34 -5 5 C-5 6.98 -5 8.96 -5 11 C-7 8 -7 8 -7 6.0625 C-5.47841502 2.92423097 -2.9308084 1.74601352 0 0 Z " fill="#FCE7BC" transform="translate(222,142)"/>
<path d="M0 0 C0 0.66 0 1.32 0 2 C-1.828125 3.54296875 -1.828125 3.54296875 -4.25 5.1875 C-5.43335938 6.01314453 -5.43335938 6.01314453 -6.640625 6.85546875 C-9 8 -9 8 -11.296875 7.67578125 C-11.85890625 7.45277344 -12.4209375 7.22976563 -13 7 C-11.21190303 5.82786955 -9.41940875 4.66244474 -7.625 3.5 C-6.62726563 2.8503125 -5.62953125 2.200625 -4.6015625 1.53125 C-2 0 -2 0 0 0 Z " fill="#F9DDA0" transform="translate(274,396)"/>
<path d="M0 0 C0.99 0.33 1.98 0.66 3 1 C2.67 2.32 2.34 3.64 2 5 C2.99 5 3.98 5 5 5 C5.33 5.99 5.66 6.98 6 8 C1.69235185 6.43358249 -2.06171464 4.31663844 -6 2 C-4.68 1.67 -3.36 1.34 -2 1 C-2 1.66 -2 2.32 -2 3 C-1.34 3 -0.68 3 0 3 C0 2.01 0 1.02 0 0 Z " fill="#F5AE32" transform="translate(146,386)"/>
<path d="M0 0 C0 0.66 0 1.32 0 2 C-0.99 2.33 -1.98 2.66 -3 3 C-3.33 3.66 -3.66 4.32 -4 5 C-9.17985612 8.10791367 -9.17985612 8.10791367 -12.375 7.6875 C-12.91125 7.460625 -13.4475 7.23375 -14 7 C-11.13068284 4.66203787 -8.44103328 3.32347434 -5 2 C-2 0 -2 0 0 0 Z " fill="#FBE3AE" transform="translate(333,362)"/>
<path d="M0 0 C3.63 1.65 7.26 3.3 11 5 C11 5.66 11 6.32 11 7 C12.65 7.33 14.3 7.66 16 8 C13.50907189 9.24546405 12.58919267 8.7767578 10 8 C10 7.34 10 6.68 10 6 C8.68 6 7.36 6 6 6 C6 5.34 6 4.68 6 4 C4.35 3.67 2.7 3.34 1 3 C0.67 2.01 0.34 1.02 0 0 Z " fill="#F2BD58" transform="translate(299,61)"/>
<path d="M0 0 C1.67542976 0.28604898 3.34385343 0.61781233 5 1 C2.375 5.875 2.375 5.875 -1 7 C-1.04254356 5.00045254 -1.04080783 2.99958364 -1 1 C-0.67 0.67 -0.34 0.34 0 0 Z " fill="#F8AF27" transform="translate(293,174)"/>
<path d="M0 0 C0.66 0.33 1.32 0.66 2 1 C0.28201227 3.8384145 -1.07018456 5.68152621 -4.26953125 6.77734375 C-6.50820309 7.26033279 -8.73321986 7.67548233 -11 8 C-8.83385197 5.69125289 -6.60793392 3.94709819 -3.9375 2.25 C-2.89916016 1.57710937 -2.89916016 1.57710937 -1.83984375 0.890625 C-1.23269531 0.59671875 -0.62554687 0.3028125 0 0 Z " fill="#F2BE58" transform="translate(342,145)"/>
<path d="M0 0 C-1.15173355 2.46800047 -2.04783565 4.04783565 -4 6 C-7.125 6.125 -7.125 6.125 -10 6 C-8.80702902 3.61405803 -7.85642735 3.16265153 -5.5625 1.875 C-4.94503906 1.52179688 -4.32757813 1.16859375 -3.69140625 0.8046875 C-2 0 -2 0 0 0 Z " fill="#FCE5B9" transform="translate(228,423)"/>
<path d="M0 0 C0.86625 0.556875 0.86625 0.556875 1.75 1.125 C1.42 2.445 1.09 3.765 0.75 5.125 C-1.27045442 4.52316251 -3.27111039 3.85193904 -5.25 3.125 C-5.58 2.465 -5.91 1.805 -6.25 1.125 C-2.80384615 -1.09038462 -2.80384615 -1.09038462 0 0 Z " fill="#F7AC26" transform="translate(189.25,410.875)"/>
<path d="M0 0 C1.32 0 2.64 0 4 0 C4 0.66 4 1.32 4 2 C6.97 2.33 9.94 2.66 13 3 C12.34 3.66 11.68 4.32 11 5 C6.12135417 4.7831713 3.56600568 3.25135812 0 0 Z " fill="#F4AF34" transform="translate(205,425)"/>
<path d="M0 0 C-1.78881736 1.00508801 -3.58114696 2.00392736 -5.375 3 C-6.37273437 3.556875 -7.37046875 4.11375 -8.3984375 4.6875 C-11 6 -11 6 -13 6 C-13 5.34 -13 4.68 -13 4 C-9.24329647 0.53227367 -4.98271682 -1.66090561 0 0 Z " fill="#F1AF30" transform="translate(304,379)"/>
<path d="M0 0 C1.32 0.33 2.64 0.66 4 1 C-1.5 5 -1.5 5 -6 5 C-6.33 3.68 -6.66 2.36 -7 1 C-4.69 1.33 -2.38 1.66 0 2 C0 1.34 0 0.68 0 0 Z " fill="#FEECC6" transform="translate(250,197)"/>
<path d="M0 0 C0 0.66 0 1.32 0 2 C-0.99 2.33 -1.98 2.66 -3 3 C-3.99 4.485 -3.99 4.485 -5 6 C-8.125 6.1875 -8.125 6.1875 -11 6 C-7.87921364 2.5324596 -4.85451611 0 0 0 Z " fill="#FAE2B0" transform="translate(264,119)"/>
<path d="M0 0 C5.37305699 0.2642487 5.37305699 0.2642487 8 1 C10 3.5625 10 3.5625 11 6 C7.27566618 4.7874262 3.62197194 3.49140021 0 2 C0 1.34 0 0.68 0 0 Z " fill="#F9E0A9" transform="translate(291,56)"/>
<path d="M0 0 C-0.66 1.32 -1.32 2.64 -2 4 C-2.66 4 -3.32 4 -4 4 C-4.33 4.66 -4.66 5.32 -5 6 C-6.98 6 -8.96 6 -11 6 C-3.28571429 0 -3.28571429 0 0 0 Z " fill="#F1B133" transform="translate(276,186)"/>
<path d="M0 0 C-1.45449401 1.0055761 -2.91372443 2.00430435 -4.375 3 C-5.59316406 3.8353125 -5.59316406 3.8353125 -6.8359375 4.6875 C-9 6 -9 6 -11 6 C-11 4 -11 4 -9.3125 1.9375 C-6.31198492 -0.57644506 -3.66271973 -1.83135986 0 0 Z " fill="#FDE6BA" transform="translate(131,60)"/>
<path d="M0 0 C1.46366342 0.39753821 2.9208935 0.81881384 4.375 1.25 C5.18710937 1.48203125 5.99921875 1.7140625 6.8359375 1.953125 C9.45785454 3.2214892 9.99382318 4.32423308 11 7 C6.89188572 5.55007731 3.53144334 3.54592427 0 1 C0 0.67 0 0.34 0 0 Z " fill="#FDEDC8" transform="translate(267,41)"/>
<path d="M0 0 C0 0.99 0 1.98 0 3 C-3.4352048 5.29013653 -4.985331 5.17842973 -9 5 C-7.36885863 1.73771726 -3.62038485 0 0 0 Z " fill="#FCE8BD" transform="translate(244,414)"/>
<path d="M0 0 C3.7910119 1.44950455 7.3874638 3.15172566 11 5 C8.83032311 5.95465783 7.43671207 6.14401212 5.17578125 5.3984375 C3.4315257 4.64129615 1.71372869 3.82390802 0 3 C0 2.01 0 1.02 0 0 Z " fill="#FDE6B7" transform="translate(116,374)"/>
<path d="M0 0 C1.50559539 1.96382007 2.89131683 3.78263366 4 6 C6.01669827 7.13350534 6.01669827 7.13350534 8 8 C4.37673261 9.2077558 3.35853631 8.54311128 0 7 C0 4.69 0 2.38 0 0 Z " fill="#F4AF31" transform="translate(241,196)"/>
<path d="M0 0 C2.61724095 2.36797991 4.32861729 4.89600354 6 8 C6 8.66 6 9.32 6 10 C5.01 9.67 4.02 9.34 3 9 C2.3125 6.9375 2.3125 6.9375 2 5 C1.34 5 0.68 5 0 5 C0 3.35 0 1.7 0 0 Z " fill="#F3BA51" transform="translate(231,179)"/>
<path d="M0 0 C1.65 0 3.3 0 5 0 C1.53258866 2.95749791 -1.86873527 5.07848152 -6 7 C-6 5.68 -6 4.36 -6 3 C-4.02 2.34 -2.04 1.68 0 1 C0 0.67 0 0.34 0 0 Z " fill="#EFAE2D" transform="translate(226,137)"/>
<path d="M0 0 C0.66 0.33 1.32 0.66 2 1 C-0.37409996 3.62400522 -2.81364829 5.44568209 -6 7 C-8.16015625 6.578125 -8.16015625 6.578125 -10 6 C-8.3811004 4.96951963 -6.75467511 3.95085322 -5.125 2.9375 C-4.22007812 2.36902344 -3.31515625 1.80054688 -2.3828125 1.21484375 C-1.20332031 0.61349609 -1.20332031 0.61349609 0 0 Z " fill="#FBE3AF" transform="translate(238,133)"/>
<path d="M0 0 C-0.886875 0.433125 -1.77375 0.86625 -2.6875 1.3125 C-5.9510585 2.92003881 -5.9510585 2.92003881 -8.75 4.6875 C-11 6 -11 6 -13 6 C-13 5.34 -13 4.68 -13 4 C-12.360625 3.896875 -11.72125 3.79375 -11.0625 3.6875 C-10.381875 3.460625 -9.70125 3.23375 -9 3 C-8.67 2.01 -8.34 1.02 -8 0 C-2.25 -1.125 -2.25 -1.125 0 0 Z " fill="#FBE7BB" transform="translate(147,51)"/>
<path d="M0 0 C3.96 1.98 7.92 3.96 12 6 C8 7 8 7 5.859375 6.07421875 C5.16328125 5.61660156 4.4671875 5.15898437 3.75 4.6875 C3.04359375 4.23761719 2.3371875 3.78773438 1.609375 3.32421875 C1.07828125 2.88722656 0.5471875 2.45023437 0 2 C0 1.34 0 0.68 0 0 Z " fill="#FBE6B5" transform="translate(67,345)"/>
<path d="M0 0 C0 0.66 0 1.32 0 2 C-0.66 2 -1.32 2 -2 2 C-2.33 2.99 -2.66 3.98 -3 5 C-4.98 5 -6.96 5 -9 5 C-6.45523312 2.20075644 -3.92372883 0 0 0 Z " fill="#FBE3B0" transform="translate(381,334)"/>
<path d="M0 0 C0 0.66 0 1.32 0 2 C-2.75 4.1875 -2.75 4.1875 -6 6 C-8.203125 5.61328125 -8.203125 5.61328125 -10 5 C-8.71186658 4.16121545 -7.41936744 3.32913217 -6.125 2.5 C-5.40570313 2.0359375 -4.68640625 1.571875 -3.9453125 1.09375 C-2 0 -2 0 0 0 Z " fill="#F0BC57" transform="translate(374,128)"/>
<path d="M0 0 C1.64936913 0.78427352 3.29441127 1.57765259 4.9375 2.375 C5.85402344 2.81585938 6.77054688 3.25671875 7.71484375 3.7109375 C10 5 10 5 11 7 C7.65626525 6.44271087 4.96687001 5.64826111 2 4 C2 3.34 2 2.68 2 2 C1.34 2 0.68 2 0 2 C0 1.34 0 0.68 0 0 Z " fill="#FCE9B7" transform="translate(149,393)"/>
<path d="M0 0 C0.66 0.33 1.32 0.66 2 1 C0.06745228 3.0245738 -1.63158688 4.42105792 -4 6 C-6.1875 5.625 -6.1875 5.625 -8 5 C-6.71475739 4.13619741 -5.42157581 3.28419631 -4.125 2.4375 C-3.04605469 1.72400391 -3.04605469 1.72400391 -1.9453125 0.99609375 C-1.30335938 0.66738281 -0.66140625 0.33867187 0 0 Z " fill="#FCE3B3" transform="translate(286,388)"/>
<path d="M0 0 C4.19360449 0.67097672 7.40334352 2.8558394 11 5 C10.01 5.495 10.01 5.495 9 6 C2.4375 3.65625 2.4375 3.65625 0 0 Z " fill="#FDE7B4" transform="translate(105,368)"/>
<path d="M0 0 C0.66 0.33 1.32 0.66 2 1 C-0.51830747 4.12270126 -1.7261549 4.94523098 -5.75 5.75 C-7.35875 5.87375 -7.35875 5.87375 -9 6 C-3.30379747 1.25316456 -3.30379747 1.25316456 0 0 Z " fill="#F3B641" transform="translate(85,86)"/>
<path d="M0 0 C3.3 1.65 6.6 3.3 10 5 C6 6 6 6 3.875 5.3125 C2 4 2 4 0 0 Z " fill="#FBE7BA" transform="translate(202,424)"/>
<path d="M0 0 C0 0.66 0 1.32 0 2 C-3 4 -3 4 -6 4 C-6 4.66 -6 5.32 -6 6 C-7.32 5.67 -8.64 5.34 -10 5 C-8.71186658 4.16121545 -7.41936744 3.32913217 -6.125 2.5 C-5.40570313 2.0359375 -4.68640625 1.571875 -3.9453125 1.09375 C-2 0 -2 0 0 0 Z " fill="#FDE3AA" transform="translate(367,342)"/>
<path d="M0 0 C0.66 0.33 1.32 0.66 2 1 C-2.296875 5.00390625 -2.296875 5.00390625 -4 6 C-6.203125 5.65234375 -6.203125 5.65234375 -8 5 C-6.71475739 4.13619741 -5.42157581 3.28419631 -4.125 2.4375 C-3.04605469 1.72400391 -3.04605469 1.72400391 -1.9453125 0.99609375 C-1.30335938 0.66738281 -0.66140625 0.33867188 0 0 Z " fill="#FBE2AD" transform="translate(277,110)"/>
<path d="M0 0 C0.66 0.33 1.32 0.66 2 1 C-1.28804981 3.91227269 -3.59885603 5.49701212 -8 6 C-3.375 1.125 -3.375 1.125 0 0 Z " fill="#F1B544" transform="translate(46,109)"/>
<path d="M0 0 C-0.625 1.9375 -0.625 1.9375 -2 4 C-5.125 4.75 -5.125 4.75 -8 5 C-3.16129032 0 -3.16129032 0 0 0 Z " fill="#FBE3AD" transform="translate(341,357)"/>
<path d="M0 0 C0.66 0 1.32 0 2 0 C1.67 1.32 1.34 2.64 1 4 C-1.64 4.66 -4.28 5.32 -7 6 C-5 3 -5 3 -2.375 2.3125 C-1.59125 2.209375 -0.8075 2.10625 0 2 C0 1.34 0 0.68 0 0 Z " fill="#F4BE53" transform="translate(94,80)"/>
<path d="M0 0 C0.66 0.33 1.32 0.66 2 1 C-0.25 3.0625 -0.25 3.0625 -3 5 C-5.3125 4.75 -5.3125 4.75 -7 4 C-1.7265625 0.77734375 -1.7265625 0.77734375 0 0 Z " fill="#FDE6B0" transform="translate(302,379)"/>
</svg>
