<?xml version="1.0" encoding="UTF-8"?>
<svg version="1.1" xmlns="http://www.w3.org/2000/svg" width="802" height="203">
<path d="M0 0 C0.87454834 0.00523682 1.74909668 0.01047363 2.65014648 0.01586914 C3.59438477 0.0190918 4.53862305 0.02231445 5.51147461 0.02563477 C6.50469727 0.03401367 7.49791992 0.04239258 8.52124023 0.05102539 C9.51833008 0.05553711 10.51541992 0.06004883 11.54272461 0.06469727 C14.01478872 0.07652532 16.48673541 0.0930069 18.95874023 0.11352539 C21.64852615 7.5390514 23.71971112 14.97645013 25.44897461 22.66943359 C26.7779945 28.52854649 28.41984367 34.2322617 30.22436523 39.96508789 C31.04853575 43.49849979 31.25112597 46.49740177 30.95874023 50.11352539 C28.45874023 53.05102539 28.45874023 53.05102539 25.95874023 55.11352539 C24.15873183 52.41351279 23.49570537 50.9011136 22.72192383 47.85742188 C22.50184662 47.00321152 22.28176941 46.14900116 22.05502319 45.26890564 C21.82473419 44.35009109 21.59444519 43.43127655 21.35717773 42.48461914 C20.99518784 41.06645653 20.99518784 41.06645653 20.62588501 39.61964417 C20.11725162 37.62228369 19.61141002 35.62421049 19.1081543 33.62548828 C18.33549986 30.5580112 17.55411899 27.49286031 16.77124023 24.42797852 C16.27853936 22.48865575 15.78633485 20.54920679 15.29467773 18.60961914 C14.94317154 17.22836098 14.94317154 17.22836098 14.58456421 15.81919861 C14.37079132 14.96814041 14.15701843 14.11708221 13.93676758 13.24023438 C13.74738617 12.48983383 13.55800476 11.73943329 13.36288452 10.96629333 C12.95874023 9.11352539 12.95874023 9.11352539 12.95874023 7.11352539 C8.50374023 7.60852539 8.50374023 7.60852539 3.95874023 8.11352539 C3.60477173 9.52939941 3.60477173 9.52939941 3.24365234 10.97387695 C3.08581268 11.60523056 2.92797302 12.23658417 2.76535034 12.8870697 C2.40614892 14.32388576 2.04695735 15.76070428 1.68777466 17.19752502 C0.68058604 21.22646676 -0.32678273 25.25536331 -1.33447266 29.28417969 C-3.1034104 36.35719418 -4.87232404 43.43020601 -6.63276672 50.50534058 C-7.11486144 52.4428546 -7.59746313 54.38024246 -8.08007812 56.31762695 C-8.66519477 58.66699508 -9.24938956 61.01659305 -9.83251953 63.36645508 C-10.2278186 64.95248535 -10.2278186 64.95248535 -10.63110352 66.57055664 C-10.85660889 67.47781494 -11.08211426 68.38507324 -11.31445312 69.31982422 C-12.16766351 72.59939644 -13.11030116 75.85517029 -14.04125977 79.11352539 C-8.76125977 79.11352539 -3.48125977 79.11352539 1.95874023 79.11352539 C2.06831055 77.50993164 2.17788086 75.90633789 2.29077148 74.25415039 C3.6596825 54.52416844 5.28015766 34.81921018 6.95874023 15.11352539 C7.94874023 15.11352539 8.93874023 15.11352539 9.95874023 15.11352539 C10.53682476 21.12268327 11.10610018 27.1325919 11.66772461 33.14331055 C11.85939915 35.18194298 12.0533522 37.22036266 12.24975586 39.25854492 C15.50365529 73.07585684 15.50365529 73.07585684 9.03686523 81.13305664 C6.46438986 83.58464501 3.93927766 84.90614718 0.69311523 86.27758789 C-2.1704742 87.6577864 -2.99118495 89.16018998 -4.04125977 92.11352539 C-4.74838927 96.94706882 -4.53033061 100.18597724 -2.22875977 104.55102539 C0.16732845 107.35787159 1.760056 108.95394823 5.48217773 109.44946289 C11.51635926 109.5734928 11.51635926 109.5734928 17.02124023 107.36352539 C19.89550994 104.02566379 20.87302068 101.69451345 21.52124023 97.30102539 C23.474345 87.74192725 30.59241393 79.08950353 35.95874023 71.11352539 C36.61874023 71.44352539 37.27874023 71.77352539 37.95874023 72.11352539 C38.45374023 75.57852539 38.45374023 75.57852539 38.95874023 79.11352539 C54.13874023 79.11352539 69.31874023 79.11352539 84.95874023 79.11352539 C84.95874023 83.40352539 84.95874023 87.69352539 84.95874023 92.11352539 C81.43829056 95.63397506 78.5744758 96.10881411 73.89624023 97.05102539 C60.68564703 99.95338425 46.91825674 104.42298552 38.95874023 116.11352539 C38.54624023 116.71938477 38.13374023 117.32524414 37.70874023 117.94946289 C34.48402483 123.43595785 33.93570436 128.86569915 34.95874023 135.11352539 C37.42937155 141.9077615 42.95543022 146.40033207 48.95874023 150.11352539 C51.60426253 151.34486863 54.2408518 152.41118844 56.98999023 153.38696289 C58.95874023 154.11352539 58.95874023 154.11352539 59.95874023 155.11352539 C60.05783326 157.44512594 60.08844528 159.77982481 60.08374023 162.11352539 C60.08760742 164.03165039 60.08760742 164.03165039 60.09155273 165.98852539 C59.95874023 169.11352539 59.95874023 169.11352539 58.95874023 170.11352539 C54.44597508 170.45393258 49.92017647 170.43883663 45.39624023 170.48852539 C43.50035156 170.54459961 43.50035156 170.54459961 41.56616211 170.60180664 C33.6508331 170.67628438 29.23277652 169.81858621 22.95874023 165.11352539 C14.35864488 161.44207459 3.47169303 161.8477876 -5.29125977 164.92602539 C-7.83496814 165.95693826 -9.72856156 166.8336594 -11.77587891 168.66601562 C-14.81513143 170.60800595 -16.93353011 170.47091915 -20.52172852 170.44165039 C-21.76760742 170.43649414 -23.01348633 170.43133789 -24.29711914 170.42602539 C-25.59456055 170.40540039 -26.89200195 170.38477539 -28.22875977 170.36352539 C-29.53780273 170.35836914 -30.8468457 170.35321289 -32.19555664 170.34790039 C-41.88735638 170.26742878 -41.88735638 170.26742878 -43.04125977 169.11352539 C-43.11397718 166.76038984 -43.12496844 164.40518871 -43.10375977 162.05102539 C-43.09473633 160.76067383 -43.08571289 159.47032227 -43.07641602 158.14086914 C-43.06481445 157.1418457 -43.05321289 156.14282227 -43.04125977 155.11352539 C-41.88625977 154.53602539 -40.73125977 153.95852539 -39.54125977 153.36352539 C-38.81293945 152.99614258 -38.08461914 152.62875977 -37.33422852 152.25024414 C-35.86796581 151.52335752 -34.39196899 150.81558758 -32.90454102 150.13305664 C-26.23408802 147.02017858 -21.72705543 143.18140871 -19.04125977 136.11352539 C-18.50796306 131.84715171 -18.76583522 129.67496774 -20.66625977 125.80102539 C-26.1981111 119.54129888 -34.09642467 120.72466655 -42.04125977 120.11352539 C-42.04125977 106.58352539 -42.04125977 93.05352539 -42.04125977 79.11352539 C-35.44125977 79.11352539 -28.84125977 79.11352539 -22.04125977 79.11352539 C-21.71125977 76.80352539 -21.38125977 74.49352539 -21.04125977 72.11352539 C-20.65623967 70.26796788 -20.24537673 68.42758291 -19.80688477 66.59399414 C-19.56526611 65.58167725 -19.32364746 64.56936035 -19.07470703 63.52636719 C-18.81616943 62.46200439 -18.55763184 61.3976416 -18.29125977 60.30102539 C-18.02176514 59.18445557 -17.75227051 58.06788574 -17.47460938 56.91748047 C-15.78616613 49.9879421 -13.98199597 43.10653668 -12.01586914 36.2512207 C-9.57126288 27.6404271 -7.48078565 18.93719318 -5.36376953 10.24121094 C-4.93342407 8.48997925 -4.93342407 8.48997925 -4.49438477 6.70336914 C-4.23818359 5.65012451 -3.98198242 4.59687988 -3.71801758 3.51171875 C-2.77051004 0.1540829 -2.77051004 0.1540829 0 0 Z " fill="#F8A622" transform="translate(114.041259765625,12.886474609375)"/>
<path d="M0 0 C0.33 -1.32 0.66 -2.64 1 -4 C6.61 -4 12.22 -4 18 -4 C18.09072902 3.53713871 18.1639612 11.07407101 18.20724869 18.61162472 C18.2280352 22.11246632 18.25618599 25.61291173 18.30175781 29.11352539 C18.35393628 33.14733466 18.37301886 37.18073428 18.390625 41.21484375 C18.41127014 42.45894516 18.43191528 43.70304657 18.45318604 44.98484802 C18.45539907 53.6322426 16.80453888 59.36172415 12.375 66.6875 C4.53441155 74.32175717 -3.27858611 76.17880147 -13.8125 76.1875 C-14.58142578 76.19974609 -15.35035156 76.21199219 -16.14257812 76.22460938 C-23.47637822 76.24317596 -29.81753701 74.87764527 -36.4375 71.5625 C-37.70400391 70.94568359 -37.70400391 70.94568359 -38.99609375 70.31640625 C-41 69 -41 69 -42 66 C-40.78515625 63.51953125 -40.78515625 63.51953125 -39.0625 60.8125 C-38.49660156 59.91144531 -37.93070313 59.01039063 -37.34765625 58.08203125 C-36.90292969 57.39496094 -36.45820312 56.70789063 -36 56 C-32.8646979 56.55108552 -30.5536373 57.2066494 -27.625 58.5625 C-21.51437242 60.93431147 -14.43093325 60.73455229 -8 60 C-4.45999964 58.33009638 -3.1946682 57.2920023 -1 54 C-0.83300768 50.87478167 -0.83300768 50.87478167 -1 48 C-1.721875 48.474375 -2.44375 48.94875 -3.1875 49.4375 C-9.53568613 52.96427007 -17.69259197 53.05151431 -24.65625 51.3515625 C-32.34647398 48.57453717 -38.65494777 44.12529896 -42.4375 36.75 C-45.99941331 28.76364728 -46.41920646 19.92026028 -43.4375 11.625 C-39.89514193 3.89964463 -33.76975544 -1.15050299 -25.9375 -4.1875 C-16.24499956 -6.63169576 -8.41474993 -5.21267695 0 0 Z M-25.875 16.1875 C-27.48186346 20.20465866 -27.66970107 23.73347745 -27 28 C-25.19672394 31.74526566 -23.67282723 33.54125416 -20.25 35.875 C-16.31772995 37.2361704 -13.11137112 37.74677599 -9 37 C-5.054881 34.91578619 -2.33735751 32.79231203 0 29 C0.73238075 24.18208353 0.60981191 19.54057745 -1.1875 15 C-3.98990206 11.90769428 -6.10455679 10.25991027 -10.3359375 9.6796875 C-17.24353422 9.36853449 -21.26622528 10.81059615 -25.875 16.1875 Z " fill="#F8A825" transform="translate(700,106)"/>
<path d="M0 0 C1.58206057 0.00667536 3.16410534 0.0186375 4.74609375 0.03515625 C5.55240234 0.03966797 6.35871094 0.04417969 7.18945312 0.04882812 C9.18753131 0.06065107 11.18557158 0.07858711 13.18359375 0.09765625 C14.19791006 4.27023009 14.28467467 8.15881118 14.24609375 12.4453125 C14.24230713 13.13902451 14.23852051 13.83273651 14.23461914 14.54747009 C14.22246342 16.75176381 14.20383597 18.95592288 14.18359375 21.16015625 C14.15695681 24.06770498 14.13698692 26.9751874 14.12109375 29.8828125 C14.10949219 31.1706665 14.09789062 32.45852051 14.0859375 33.78540039 C14.16479703 36.46011851 14.3745467 38.57137497 15.18359375 41.09765625 C15.82590942 40.44748535 15.82590942 40.44748535 16.48120117 39.78417969 C18.44180839 37.80265579 20.40640765 35.82513566 22.37109375 33.84765625 C23.38139648 32.82478516 23.38139648 32.82478516 24.41210938 31.78125 C25.73275971 30.45415747 27.06424472 29.13774816 28.40698242 27.83300781 C29.80546108 26.46700722 31.15964654 25.05565395 32.49609375 23.62890625 C36.81131247 21.17023512 41.13158659 21.6777742 45.99609375 21.84765625 C46.97513672 21.86570312 47.95417969 21.88375 48.96289062 21.90234375 C51.37080146 21.94932738 53.7766871 22.01499931 56.18359375 22.09765625 C55.78889893 22.5580127 55.3942041 23.01836914 54.98754883 23.49267578 C54.46056396 24.10739746 53.9335791 24.72211914 53.390625 25.35546875 C52.84100098 25.99645508 52.29137695 26.63744141 51.72509766 27.29785156 C50.60858641 28.60145006 49.49484452 29.90742216 48.3828125 31.21484375 C43.89698329 36.43092423 39.09676057 41.28475815 34.18359375 46.09765625 C36.93022201 50.96128702 40.30273142 55.19323071 43.77539062 59.54492188 C47.18359375 63.88674176 47.18359375 63.88674176 47.18359375 66.09765625 C47.84359375 66.09765625 48.50359375 66.09765625 49.18359375 66.09765625 C50.60758065 67.81284702 51.94991535 69.59644745 53.24609375 71.41015625 C54.31537109 72.88935547 54.31537109 72.88935547 55.40625 74.3984375 C57.18359375 77.09765625 57.18359375 77.09765625 58.18359375 80.09765625 C39.23285666 81.8455635 39.23285666 81.8455635 34.35644531 79.05029297 C31.38723064 76.2562804 29.60160281 72.87523239 28.18359375 69.09765625 C28.18359375 68.43765625 28.18359375 67.77765625 28.18359375 67.09765625 C27.52359375 67.09765625 26.86359375 67.09765625 26.18359375 67.09765625 C24.67578125 65.34765625 24.67578125 65.34765625 23.05859375 63.09765625 C22.51976562 62.35515625 21.9809375 61.61265625 21.42578125 60.84765625 C21.01585937 60.27015625 20.6059375 59.69265625 20.18359375 59.09765625 C16.60390903 61.96202927 16.60390903 61.96202927 14.67724609 66.01025391 C14.46959325 68.15802087 14.38936836 70.25177063 14.37109375 72.41015625 C14.27828125 76.21546875 14.27828125 76.21546875 14.18359375 80.09765625 C7.91359375 80.09765625 1.64359375 80.09765625 -4.81640625 80.09765625 C-4.83895756 69.81460696 -4.8573215 59.53157397 -4.86821842 49.24850559 C-4.87344718 44.47417345 -4.88054469 39.69985904 -4.8918457 34.92553711 C-4.90267485 30.32199363 -4.90868314 25.71846726 -4.91128349 21.11491203 C-4.91313769 19.35456002 -4.91675821 17.59420899 -4.92213631 15.83386421 C-4.92934711 13.37693348 -4.93039718 10.9200743 -4.92993164 8.46313477 C-4.93352692 7.7280217 -4.93712219 6.99290863 -4.94082642 6.23551941 C-4.92821797 0.12610588 -4.92821797 0.12610588 0 0 Z " fill="#F8A424" transform="translate(370.81640625,79.90234375)"/>
<path d="M0 0 C1.09783813 -0.00315216 2.19567627 -0.00630432 3.32678223 -0.009552 C5.11892151 -0.00651566 5.11892151 -0.00651566 6.94726562 -0.00341797 C8.16426147 -0.00437469 9.38125732 -0.00533142 10.63513184 -0.00631714 C13.21427461 -0.00699919 15.79341909 -0.00514319 18.37255859 -0.00097656 C22.33630198 0.00437131 26.29993204 -0.00092076 30.26367188 -0.00732422 C32.76237004 -0.00666344 35.26106814 -0.00538229 37.75976562 -0.00341797 C38.95452515 -0.0054422 40.14928467 -0.00746643 41.38024902 -0.009552 C42.47808716 -0.00639984 43.57592529 -0.00324768 44.70703125 0 C46.16477966 0.00119339 46.16477966 0.00119339 47.65197754 0.00241089 C49.85351562 0.12939453 49.85351562 0.12939453 50.85351562 1.12939453 C50.85351562 6.07939453 50.85351562 11.02939453 50.85351562 16.12939453 C38.31351563 16.12939453 25.77351562 16.12939453 12.85351562 16.12939453 C12.85351562 22.06939453 12.85351562 28.00939453 12.85351562 34.12939453 C24.07351563 34.12939453 35.29351563 34.12939453 46.85351562 34.12939453 C46.85351562 38.74939453 46.85351562 43.36939453 46.85351562 48.12939453 C45.85351562 49.12939453 45.85351562 49.12939453 42.71069336 49.24291992 C41.31948865 49.24276086 39.92827802 49.2370696 38.53710938 49.22705078 C37.80605484 49.22563583 37.07500031 49.22422089 36.3217926 49.22276306 C33.9781593 49.21714861 31.63462023 49.20459375 29.29101562 49.19189453 C27.70573054 49.18688139 26.12044397 49.18231816 24.53515625 49.17822266 C20.6412102 49.16802374 16.74746886 49.1484514 12.85351562 49.12939453 C12.85351562 58.03939453 12.85351562 66.94939453 12.85351562 76.12939453 C6.58351563 76.12939453 0.31351562 76.12939453 -6.14648438 76.12939453 C-6.1690363 66.36788053 -6.18739998 56.6063837 -6.19829655 46.84484959 C-6.20352515 42.31265359 -6.21062238 37.78047626 -6.22192383 33.24829102 C-6.23275352 28.87816623 -6.23876138 24.50805945 -6.24136162 20.13792229 C-6.24321572 18.4668849 -6.24683605 16.79584856 -6.25221443 15.1248188 C-6.25942596 12.79241902 -6.26047527 10.4600946 -6.26000977 8.12768555 C-6.26360504 7.42997543 -6.26720032 6.73226532 -6.27090454 6.01341248 C-6.25814074 0.14122459 -5.75100002 0.00470807 0 0 Z " fill="#F7A421" transform="translate(488.146484375,83.87060546875)"/>
<path d="M0 0 C5.0664916 3.72129408 7.27420071 9.19369589 9.19921875 14.96875 C9.28466166 16.30403807 9.316965 17.64318888 9.31274414 18.98120117 C9.31266861 19.78180466 9.31259308 20.58240814 9.31251526 21.40727234 C9.30735397 22.26673965 9.30219269 23.12620697 9.296875 24.01171875 C9.29546005 24.8953157 9.2940451 25.77891266 9.29258728 26.68928528 C9.28698944 29.51164128 9.27443736 32.33391797 9.26171875 35.15625 C9.25670347 37.06966031 9.25214061 38.98307187 9.24804688 40.89648438 C9.23702072 45.58727014 9.21975758 50.27799663 9.19921875 54.96875 C3.58921875 54.96875 -2.02078125 54.96875 -7.80078125 54.96875 C-8.13078125 53.97875 -8.46078125 52.98875 -8.80078125 51.96875 C-9.28546875 52.24589844 -9.77015625 52.52304688 -10.26953125 52.80859375 C-17.8350312 56.89687353 -24.08066053 57.62253376 -32.40625 55.69140625 C-37.31735719 54.20926134 -40.72087801 52.19074577 -44.17578125 48.28125 C-46.82884265 42.87308637 -47.10416264 38.20618778 -46.30078125 32.28125 C-44.04993452 27.31063013 -40.92307053 24.34783873 -35.91870117 22.13745117 C-29.94953135 19.89248257 -24.56526553 19.60021377 -18.23828125 19.78125 C-16.86833008 19.80155273 -16.86833008 19.80155273 -15.47070312 19.82226562 C-13.24674866 19.85719685 -11.02410173 19.90623414 -8.80078125 19.96875 C-10.91404651 15.26032376 -10.91404651 15.26032376 -14.80078125 11.96875 C-22.93889784 11.08950625 -29.04379982 11.31394057 -35.80078125 15.96875 C-39.57219279 14.71161282 -39.85253424 13.62192783 -41.61328125 10.15625 C-42.30357422 8.84720703 -42.30357422 8.84720703 -43.0078125 7.51171875 C-43.80078125 4.96875 -43.80078125 4.96875 -43.2734375 2.78125 C-41.27438475 0.32087738 -39.42055848 -0.23521056 -36.42578125 -1.21875 C-34.99105469 -1.70408203 -34.99105469 -1.70408203 -33.52734375 -2.19921875 C-32.17769531 -2.61107422 -32.17769531 -2.61107422 -30.80078125 -3.03125 C-29.8571875 -3.32708984 -29.8571875 -3.32708984 -28.89453125 -3.62890625 C-19.45859131 -5.4421559 -8.429629 -4.82737973 0 0 Z M-28.80078125 34.96875 C-29.30578368 38.16709873 -29.07409734 39.5473877 -27.30078125 42.28125 C-23.84520445 44.61376434 -20.79067243 44.61327088 -16.80078125 43.96875 C-12.77815955 42.40439712 -11.20929016 41.58151337 -8.80078125 37.96875 C-8.72173061 35.63675612 -8.71279356 33.30042378 -8.80078125 30.96875 C-10.86298605 30.914402 -12.92560941 30.87580039 -14.98828125 30.84375 C-16.13683594 30.82054687 -17.28539062 30.79734375 -18.46875 30.7734375 C-22.86896216 31.03136318 -25.66983076 31.83779951 -28.80078125 34.96875 Z " fill="#F8A724" transform="translate(344.80078125,105.03125)"/>
<path d="M0 0 C0 0.66 0 1.32 0 2 C0.60585938 2.25265625 1.21171875 2.5053125 1.8359375 2.765625 C6.22520855 5.26925253 8.19858566 10.32084615 10.3125 14.75 C11.36560804 19.7283289 11 24.91150365 11 30 C-2.86 30.33 -16.72 30.66 -31 31 C-27.05498053 37.27635087 -27.05498053 37.27635087 -21 40 C-15.06384542 40.89207518 -10.86301878 39.91882594 -5.7265625 36.875 C-4 36 -4 36 -1 36 C1.04296875 37.64453125 1.04296875 37.64453125 3.1875 39.8125 C4.26064453 40.87404297 4.26064453 40.87404297 5.35546875 41.95703125 C7 44 7 44 7 47 C5.27734375 48.53515625 5.27734375 48.53515625 2.9375 50.0625 C2.18339844 50.56910156 1.42929687 51.07570312 0.65234375 51.59765625 C-4.99608333 54.58408529 -10.55984828 55.36422613 -16.875 55.3125 C-17.57608887 55.30831055 -18.27717773 55.30412109 -18.99951172 55.29980469 C-27.85583222 55.10714231 -35.16232841 52.75467232 -41.59375 46.43359375 C-47.70481273 39.73838531 -50.38269823 32.35877592 -50.2109375 23.23828125 C-49.46728143 15.34726407 -46.5812145 8.64174828 -41 3 C-28.32354085 -7.39054029 -14.26881493 -7.13440747 0 0 Z M-29.8125 14 C-31.25526938 16.042265 -31.25526938 16.042265 -31 19 C-22.75 19 -14.5 19 -6 19 C-6.66 17.02 -7.32 15.04 -8 13 C-8.66 13 -9.32 13 -10 13 C-10 12.34 -10 11.68 -10 11 C-17.00340475 7.01393517 -24.39061741 8.017233 -29.8125 14 Z " fill="#F8A825" transform="translate(777,106)"/>
<path d="M0 0 C7.30394429 5.27908845 11.85806078 11.57758755 13.5546875 20.5234375 C14.3321424 28.72836327 13.48247476 36.39359125 8.6328125 43.234375 C3.266695 49.54418903 -2.14133261 53.92989206 -10.4453125 55.5234375 C-22.02362613 56.22433658 -31.35964515 55.66242942 -40.65625 48.19921875 C-46.47548393 42.74845159 -49.63384728 36.69380123 -49.92797852 28.64794922 C-50.00700928 18.67671567 -48.49090264 10.89578967 -41.39453125 3.33984375 C-30.06136178 -6.34266871 -12.80089352 -7.72961302 0 0 Z M-29.4453125 15.5234375 C-32.61963506 20.99680986 -32.8435092 25.43129474 -31.4453125 31.5234375 C-29.58192695 35.62288572 -27.24366582 38.10630357 -23.4453125 40.5234375 C-19.16566008 41.81540804 -16.30262847 41.76767041 -12.2578125 40.0234375 C-8.14946276 37.68606571 -5.85704013 35.05162046 -4.4453125 30.5234375 C-3.58632874 24.85611938 -4.16123826 20.34007972 -7.4453125 15.5234375 C-10.21120844 12.42023718 -11.78131874 10.85894193 -15.84765625 10.0390625 C-21.92650513 9.70998196 -25.35629276 10.73629244 -29.4453125 15.5234375 Z " fill="#F8A825" transform="translate(592.4453125,105.4765625)"/>
<path d="M0 0 C1.91703735 -0.00472824 1.91703735 -0.00472824 3.87280273 -0.009552 C5.27848342 -0.00776222 6.6841638 -0.00571127 8.08984375 -0.00341797 C9.52091488 -0.00409105 10.9519859 -0.00506111 12.38305664 -0.00631714 C15.38591599 -0.00779391 18.38874565 -0.00564023 21.39160156 -0.00097656 C25.24886946 0.00472073 29.10606779 0.00144161 32.96333313 -0.00454903 C35.91947966 -0.00815521 38.87560958 -0.00701579 41.83175659 -0.00442123 C43.25438444 -0.00375212 44.67701378 -0.00457984 46.09963989 -0.00690079 C48.08465549 -0.0094282 50.06967634 -0.00489589 52.0546875 0 C53.75226196 0.00119339 53.75226196 0.00119339 55.48413086 0.00241089 C58.02734375 0.12939453 58.02734375 0.12939453 59.02734375 1.12939453 C59.10054538 3.66217103 59.11961944 6.16043371 59.08984375 8.69189453 C59.06921875 11.14626953 59.04859375 13.60064453 59.02734375 16.12939453 C51.43734375 16.12939453 43.84734375 16.12939453 36.02734375 16.12939453 C36.02734375 35.92939453 36.02734375 55.72939453 36.02734375 76.12939453 C29.75734375 76.12939453 23.48734375 76.12939453 17.02734375 76.12939453 C17.02734375 56.32939453 17.02734375 36.52939453 17.02734375 16.12939453 C9.43734375 16.12939453 1.84734375 16.12939453 -5.97265625 16.12939453 C-6.97265625 15.12939453 -6.97265625 15.12939453 -7.10546875 12.00439453 C-7.10289062 10.72564453 -7.1003125 9.44689453 -7.09765625 8.12939453 C-7.10023438 6.85064453 -7.1028125 5.57189453 -7.10546875 4.25439453 C-6.87905868 -1.07290116 -4.81028145 0.00338161 0 0 Z " fill="#F8A625" transform="translate(238.97265625,83.87060546875)"/>
<path d="M0 0 C2.81256281 -0.02684312 5.62487241 -0.04676188 8.4375 -0.0625 C9.23994141 -0.07087891 10.04238281 -0.07925781 10.86914062 -0.08789062 C12.91295221 -0.0965143 14.95683902 -0.0522815 17 0 C18 1 18 1 18.09765625 4.16015625 C18.06510417 7.7734375 18.03255208 11.38671875 18 15 C22.62 15 27.24 15 32 15 C32 19.62 32 24.24 32 29 C27.38 29 22.76 29 18 29 C18.0866926 33.27185249 18.19355022 37.54152959 18.3125 41.8125 C18.33505859 43.02744141 18.35761719 44.24238281 18.38085938 45.49414062 C18.4340332 47.23920898 18.4340332 47.23920898 18.48828125 49.01953125 C18.51446533 50.09307861 18.54064941 51.16662598 18.56762695 52.27270508 C18.78761929 55.01161891 18.78761929 55.01161891 20.37695312 56.86914062 C22.75367733 58.52512536 24.37162972 58.08976718 27.1875 57.6875 C28.08855469 57.56761719 28.98960937 57.44773438 29.91796875 57.32421875 C30.60503906 57.21722656 31.29210937 57.11023438 32 57 C32.67305018 58.60149886 33.33822227 60.20631029 34 61.8125 C34.37125 62.70582031 34.7425 63.59914062 35.125 64.51953125 C36 67 36 67 36 70 C27.980834 73.77372518 19.05280976 74.59634856 10.5 71.875 C5.42301395 69.15518605 2.11704851 65.43309173 0 60 C-0.22705078 56.70019531 -0.22705078 56.70019531 -0.1953125 52.828125 C-0.1924826 52.1457074 -0.18965271 51.46328979 -0.18673706 50.76019287 C-0.17558098 48.58994693 -0.15048557 46.42012029 -0.125 44.25 C-0.11496426 42.77474556 -0.10583944 41.29948463 -0.09765625 39.82421875 C-0.07565687 36.21601058 -0.04115883 32.60804625 0 29 C-2.97 29 -5.94 29 -9 29 C-9 24.38 -9 19.76 -9 15 C-6.03 15 -3.06 15 0 15 C0 10.05 0 5.1 0 0 Z " fill="#F8A825" transform="translate(438,88)"/>
<path d="M0 0 C0.87454834 0.00523682 1.74909668 0.01047363 2.65014648 0.01586914 C3.59438477 0.0190918 4.53862305 0.02231445 5.51147461 0.02563477 C6.50469727 0.03401367 7.49791992 0.04239258 8.52124023 0.05102539 C9.51833008 0.05553711 10.51541992 0.06004883 11.54272461 0.06469727 C14.01478872 0.07652532 16.48673541 0.0930069 18.95874023 0.11352539 C21.64852615 7.5390514 23.71971112 14.97645013 25.44897461 22.66943359 C26.7779945 28.52854649 28.41984367 34.2322617 30.22436523 39.96508789 C31.04853575 43.49849979 31.25112597 46.49740177 30.95874023 50.11352539 C28.45874023 53.05102539 28.45874023 53.05102539 25.95874023 55.11352539 C24.15873183 52.41351279 23.49570537 50.9011136 22.72192383 47.85742188 C22.50184662 47.00321152 22.28176941 46.14900116 22.05502319 45.26890564 C21.82473419 44.35009109 21.59444519 43.43127655 21.35717773 42.48461914 C20.99518784 41.06645653 20.99518784 41.06645653 20.62588501 39.61964417 C20.11725162 37.62228369 19.61141002 35.62421049 19.1081543 33.62548828 C18.33549986 30.5580112 17.55411899 27.49286031 16.77124023 24.42797852 C16.27853936 22.48865575 15.78633485 20.54920679 15.29467773 18.60961914 C14.94317154 17.22836098 14.94317154 17.22836098 14.58456421 15.81919861 C14.37079132 14.96814041 14.15701843 14.11708221 13.93676758 13.24023438 C13.74738617 12.48983383 13.55800476 11.73943329 13.36288452 10.96629333 C12.95874023 9.11352539 12.95874023 9.11352539 12.95874023 7.11352539 C8.50374023 7.60852539 8.50374023 7.60852539 3.95874023 8.11352539 C3.60477173 9.52939941 3.60477173 9.52939941 3.24365234 10.97387695 C3.08581268 11.60523056 2.92797302 12.23658417 2.76535034 12.8870697 C2.40614892 14.32388576 2.04695735 15.76070428 1.68777466 17.19752502 C0.68058604 21.22646676 -0.32678273 25.25536331 -1.33447266 29.28417969 C-3.1034104 36.35719418 -4.87232404 43.43020601 -6.63276672 50.50534058 C-7.11486144 52.4428546 -7.59746313 54.38024246 -8.08007812 56.31762695 C-8.66519477 58.66699508 -9.24938956 61.01659305 -9.83251953 63.36645508 C-10.09605225 64.42380859 -10.35958496 65.48116211 -10.63110352 66.57055664 C-10.85660889 67.47781494 -11.08211426 68.38507324 -11.31445312 69.31982422 C-12.16766351 72.59939644 -13.11030116 75.85517029 -14.04125977 79.11352539 C-8.76125977 79.11352539 -3.48125977 79.11352539 1.95874023 79.11352539 C2.06831055 77.50993164 2.17788086 75.90633789 2.29077148 74.25415039 C3.6596825 54.52416844 5.28015766 34.81921018 6.95874023 15.11352539 C7.94874023 15.11352539 8.93874023 15.11352539 9.95874023 15.11352539 C10.53682476 21.12268327 11.10610018 27.1325919 11.66772461 33.14331055 C11.85939915 35.18194298 12.0533522 37.22036266 12.24975586 39.25854492 C15.50365529 73.07585684 15.50365529 73.07585684 9.03686523 81.13305664 C6.46317683 83.58580104 3.93541164 84.90641023 0.68920898 86.28149414 C-2.18116578 87.66160661 -2.95062135 89.16238615 -4.04125977 92.11352539 C-4.55239677 95.44102726 -4.85204323 98.75330064 -5.04125977 102.11352539 C-7.04125977 100.11352539 -7.04125977 100.11352539 -7.47875977 96.98852539 C-6.69332898 90.03185268 -2.88963744 85.96190306 1.95874023 81.11352539 C-3.98125977 80.78352539 -9.92125977 80.45352539 -16.04125977 80.11352539 C-15.71125977 75.49352539 -15.38125977 70.87352539 -15.04125977 66.11352539 C-15.70125977 65.78352539 -16.36125977 65.45352539 -17.04125977 65.11352539 C-17.07864258 65.84958008 -17.11602539 66.58563477 -17.15454102 67.34399414 C-17.2202832 68.31981445 -17.28602539 69.29563477 -17.35375977 70.30102539 C-17.41176758 71.26395508 -17.46977539 72.22688477 -17.52954102 73.21899414 C-18.14904318 76.72320103 -18.55536035 78.51463055 -21.04125977 81.11352539 C-24.29141099 81.73896117 -27.43473551 81.58146878 -30.72875977 81.42602539 C-33.80188477 81.32290039 -36.87500977 81.21977539 -40.04125977 81.11352539 C-40.04125977 93.32352539 -40.04125977 105.53352539 -40.04125977 118.11352539 C-37.40125977 118.11352539 -34.76125977 118.11352539 -32.04125977 118.11352539 C-27.03137142 118.96465283 -23.1134102 120.04137495 -19.47875977 123.67602539 C-17.4751843 127.07339248 -16.92267806 128.81280588 -16.97875977 132.73852539 C-16.9877832 133.55579102 -16.99680664 134.37305664 -17.00610352 135.21508789 C-17.01770508 135.84157227 -17.02930664 136.46805664 -17.04125977 137.11352539 C-17.70125977 136.78352539 -18.36125977 136.45352539 -19.04125977 136.11352539 C-18.95875977 135.08227539 -18.87625977 134.05102539 -18.79125977 132.98852539 C-19.08724344 128.40077842 -20.01475196 126.53825791 -23.04125977 123.11352539 C-30.05182487 120.50718633 -30.05182487 120.50718633 -42.04125977 120.11352539 C-42.04125977 106.58352539 -42.04125977 93.05352539 -42.04125977 79.11352539 C-35.44125977 79.11352539 -28.84125977 79.11352539 -22.04125977 79.11352539 C-21.71125977 76.80352539 -21.38125977 74.49352539 -21.04125977 72.11352539 C-20.65623967 70.26796788 -20.24537673 68.42758291 -19.80688477 66.59399414 C-19.56526611 65.58167725 -19.32364746 64.56936035 -19.07470703 63.52636719 C-18.81616943 62.46200439 -18.55763184 61.3976416 -18.29125977 60.30102539 C-18.02176514 59.18445557 -17.75227051 58.06788574 -17.47460938 56.91748047 C-15.78616613 49.9879421 -13.98199597 43.10653668 -12.01586914 36.2512207 C-9.57126288 27.6404271 -7.48078565 18.93719318 -5.36376953 10.24121094 C-4.93342407 8.48997925 -4.93342407 8.48997925 -4.49438477 6.70336914 C-4.23818359 5.65012451 -3.98198242 4.59687988 -3.71801758 3.51171875 C-2.77051004 0.1540829 -2.77051004 0.1540829 0 0 Z " fill="#F7AB2D" transform="translate(114.041259765625,12.886474609375)"/>
<path d="M0 0 C0.02684679 2.64590014 0.04676357 5.29153096 0.0625 7.9375 C0.07087891 8.69224609 0.07925781 9.44699219 0.08789062 10.22460938 C0.09652441 12.14994313 0.05224333 14.07535581 0 16 C-1.52722309 17.52722309 -3.06422645 17.15041598 -5.1875 17.25 C-10.13852548 17.7860983 -12.68837097 19.12297089 -16 23 C-18.32367475 30.67994197 -18.23521405 38.08893757 -18.125 46.0625 C-18.11597656 47.30966797 -18.10695313 48.55683594 -18.09765625 49.84179688 C-18.07426301 52.89461517 -18.03839832 55.94733356 -18 59 C-23.94 59 -29.88 59 -36 59 C-36 39.86 -36 20.72 -36 1 C-30.39 1 -24.78 1 -19 1 C-18.67 2.65 -18.34 4.3 -18 6 C-17.29875 5.38125 -16.5975 4.7625 -15.875 4.125 C-10.64905315 0.26234363 -6.36761928 -0.09032084 0 0 Z " fill="#F8A825" transform="translate(651,101)"/>
<path d="M0 0 C17.82 0 35.64 0 54 0 C54.020625 5.094375 54.04125 10.18875 54.0625 15.4375 C54.071604 17.04681396 54.08070801 18.65612793 54.09008789 20.31420898 C54.09258545 21.57048096 54.09508301 22.82675293 54.09765625 24.12109375 C54.10289307 25.4145874 54.10812988 26.70808105 54.11352539 28.04077148 C54 31 54 31 53 32 C35.26451807 31.06655358 18.23649792 25.21281425 6 12 C0 4.404 0 4.404 0 0 Z " fill="#F8A621" transform="translate(14,99)"/>
<path d="M0 0 C1.06528748 2.73019786 1.07998186 3.79298812 0.00390625 6.578125 C-0.70958984 7.90070312 -0.70958984 7.90070312 -1.4375 9.25 C-1.91058594 10.14203125 -2.38367188 11.0340625 -2.87109375 11.953125 C-3.24363281 12.62859375 -3.61617187 13.3040625 -4 14 C-3.34 14.99 -2.68 15.98 -2 17 C-2.11037108 23.95337774 -2.11037108 23.95337774 -5.125 27.5 C-8.63278258 29.33014743 -11.09658749 29.30615 -15 29 C-15.27602051 29.73017334 -15.55204102 30.46034668 -15.83642578 31.21264648 C-16.93085981 33.834374 -18.16464188 36.16013029 -19.6171875 38.59765625 C-20.39557983 39.90947876 -20.39557983 39.90947876 -21.18969727 41.24780273 C-21.74584717 42.17665283 -22.30199707 43.10550293 -22.875 44.0625 C-23.44855225 45.02679932 -24.02210449 45.99109863 -24.61303711 46.98461914 C-29.06737134 54.46548333 -33.54498872 61.93273774 -38.04052734 69.38891602 C-38.94870999 70.8968031 -39.85408035 72.40638898 -40.75610352 73.91796875 C-41.56641808 75.27427152 -42.38426726 76.62611 -43.21069336 77.97265625 C-45.06805452 81.06757225 -46.42987245 83.47903066 -46.4375 87.125 C-47 91 -47 91 -49.1875 93.9375 C-52.39172045 96.28726166 -54.02627281 97.08109647 -58 97 C-61.69992277 95.00773389 -63.66334961 93.50497559 -66 90 C-66.44836168 85.96474486 -66.42313621 83.73235113 -64.375 80.1875 C-62 78 -62 78 -59.125 77.25 C-55.60760083 75.84304033 -55.19560167 75.14420212 -53.2734375 72.0390625 C-49.94453495 66.85004192 -46.26609318 62.00213452 -42.5 57.125 C-41.09417305 55.28713039 -39.68924542 53.44857257 -38.28515625 51.609375 C-36.15051087 48.81503621 -34.01585888 46.02071691 -31.87841797 43.22851562 C-29.88723552 40.6186997 -27.91059527 37.99850477 -25.9375 35.375 C-25.32390625 34.57594238 -24.7103125 33.77688477 -24.078125 32.95361328 C-23.52511719 32.21353027 -22.97210938 31.47344727 -22.40234375 30.7109375 C-21.91241943 30.06431152 -21.42249512 29.41768555 -20.91772461 28.75146484 C-20.46345093 27.88448975 -20.46345093 27.88448975 -20 27 C-20.495 25.515 -20.495 25.515 -21 24 C-21.68284519 16.94393305 -21.68284519 16.94393305 -18.875 13.0625 C-15.74381453 10.81621477 -13.82247829 10.16988792 -10 10 C-9.34 10.33 -8.68 10.66 -8 11 C-7.7525 10.46375 -7.505 9.9275 -7.25 9.375 C-3.14285714 1.57142857 -3.14285714 1.57142857 0 0 Z " fill="#F7A727" transform="translate(179,23)"/>
<path d="M0 0 C1.09783813 -0.00315216 2.19567627 -0.00630432 3.32678223 -0.009552 C5.11892151 -0.00651566 5.11892151 -0.00651566 6.94726562 -0.00341797 C8.16426147 -0.00437469 9.38125732 -0.00533142 10.63513184 -0.00631714 C13.21427461 -0.00699919 15.79341909 -0.00514319 18.37255859 -0.00097656 C22.33630198 0.00437131 26.29993204 -0.00092076 30.26367188 -0.00732422 C32.76237004 -0.00666344 35.26106814 -0.00538229 37.75976562 -0.00341797 C38.95452515 -0.0054422 40.14928467 -0.00746643 41.38024902 -0.009552 C42.47808716 -0.00639984 43.57592529 -0.00324768 44.70703125 0 C46.16477966 0.00119339 46.16477966 0.00119339 47.65197754 0.00241089 C49.85351562 0.12939453 49.85351562 0.12939453 50.85351562 1.12939453 C50.85351562 6.07939453 50.85351562 11.02939453 50.85351562 16.12939453 C38.31351563 16.12939453 25.77351562 16.12939453 12.85351562 16.12939453 C12.85351562 22.06939453 12.85351562 28.00939453 12.85351562 34.12939453 C24.07351563 34.12939453 35.29351563 34.12939453 46.85351562 34.12939453 C46.85351562 38.74939453 46.85351562 43.36939453 46.85351562 48.12939453 C45.85351562 49.12939453 45.85351562 49.12939453 42.71069336 49.24291992 C41.31948865 49.24276086 39.92827802 49.2370696 38.53710938 49.22705078 C37.80605484 49.22563583 37.07500031 49.22422089 36.3217926 49.22276306 C33.9781593 49.21714861 31.63462023 49.20459375 29.29101562 49.19189453 C27.70573054 49.18688139 26.12044397 49.18231816 24.53515625 49.17822266 C20.6412102 49.16802374 16.74746886 49.1484514 12.85351562 49.12939453 C12.85351562 58.03939453 12.85351562 66.94939453 12.85351562 76.12939453 C6.58351563 76.12939453 0.31351562 76.12939453 -6.14648438 76.12939453 C-6.1690363 66.36788053 -6.18739998 56.6063837 -6.19829655 46.84484959 C-6.20352515 42.31265359 -6.21062238 37.78047626 -6.22192383 33.24829102 C-6.23275352 28.87816623 -6.23876138 24.50805945 -6.24136162 20.13792229 C-6.24321572 18.4668849 -6.24683605 16.79584856 -6.25221443 15.1248188 C-6.25942596 12.79241902 -6.26047527 10.4600946 -6.26000977 8.12768555 C-6.26360504 7.42997543 -6.26720032 6.73226532 -6.27090454 6.01341248 C-6.25814074 0.14122459 -5.75100002 0.00470807 0 0 Z M-4.14648438 2.12939453 C-4.14648438 26.21939453 -4.14648438 50.30939453 -4.14648438 75.12939453 C0.80351562 75.12939453 5.75351562 75.12939453 10.85351562 75.12939453 C10.85351562 65.88939453 10.85351562 56.64939453 10.85351562 47.12939453 C22.07351563 47.12939453 33.29351563 47.12939453 44.85351562 47.12939453 C44.85351562 43.16939453 44.85351562 39.20939453 44.85351562 35.12939453 C33.96351563 34.79939453 23.07351563 34.46939453 11.85351562 34.12939453 C11.85351562 27.85939453 11.85351562 21.58939453 11.85351562 15.12939453 C24.39351562 14.79939453 36.93351563 14.46939453 49.85351562 14.12939453 C50.59887162 5.24742852 50.59887162 5.24742852 48.85351562 2.12939453 C31.36351562 2.12939453 13.87351562 2.12939453 -4.14648438 2.12939453 Z " fill="#FCB73F" transform="translate(488.146484375,83.87060546875)"/>
<path d="M0 0 C1.58206057 0.00667536 3.16410534 0.0186375 4.74609375 0.03515625 C5.55240234 0.03966797 6.35871094 0.04417969 7.18945312 0.04882812 C9.18753131 0.06065107 11.18557158 0.07858711 13.18359375 0.09765625 C12.85359375 0.75765625 12.52359375 1.41765625 12.18359375 2.09765625 C7.23359375 2.09765625 2.28359375 2.09765625 -2.81640625 2.09765625 C-2.81640625 27.50765625 -2.81640625 52.91765625 -2.81640625 79.09765625 C2.13359375 79.09765625 7.08359375 79.09765625 12.18359375 79.09765625 C12.18359375 79.42765625 12.18359375 79.75765625 12.18359375 80.09765625 C6.57359375 80.09765625 0.96359375 80.09765625 -4.81640625 80.09765625 C-4.83895756 69.81460696 -4.8573215 59.53157397 -4.86821842 49.24850559 C-4.87344718 44.47417345 -4.88054469 39.69985904 -4.8918457 34.92553711 C-4.90267485 30.32199363 -4.90868314 25.71846726 -4.91128349 21.11491203 C-4.91313769 19.35456002 -4.91675821 17.59420899 -4.92213631 15.83386421 C-4.92934711 13.37693348 -4.93039718 10.9200743 -4.92993164 8.46313477 C-4.93352692 7.7280217 -4.93712219 6.99290863 -4.94082642 6.23551941 C-4.92821797 0.12610588 -4.92821797 0.12610588 0 0 Z " fill="#F8B233" transform="translate(370.81640625,79.90234375)"/>
<path d="M0 0 C17.82 0 35.64 0 54 0 C54 10.23 54 20.46 54 31 C52.35 31.33 50.7 31.66 49 32 C49 31.34 49 30.68 49 30 C49.99 30 50.98 30 52 30 C52 20.43 52 10.86 52 1 C35.5 1 19 1 2 1 C4.71519976 5.75159958 6.54111404 8.92329156 10.0625 12.75 C10.73410156 13.48734375 11.40570313 14.2246875 12.09765625 14.984375 C13.70456348 16.68697075 15.33176773 18.35775265 17 20 C10.10277256 17.6369499 5.20488412 12.38428126 1.5 6.1875 C0 3 0 3 0 0 Z " fill="#FDB942" transform="translate(14,99)"/>
<path d="M0 0 C0.33 0 0.66 0 1 0 C1.2624454 26.50698516 1.2624454 26.50698516 -2 34 C-0.35 33.01 1.3 32.02 3 31 C2.7421875 32.87890625 2.7421875 32.87890625 2 35 C0.2578125 36.08984375 0.2578125 36.08984375 -1.875 36.9375 C-5.68993894 38.71871478 -7.48457558 39.8994398 -9 44 C-9.511137 47.32750187 -9.81078346 50.63977525 -10 54 C-12 52 -12 52 -12.4375 48.875 C-11.65206921 41.91832729 -7.84837767 37.84837767 -3 33 C-8.94 32.67 -14.88 32.34 -21 32 C-20.34 28.04 -19.68 24.08 -19 20 C-18.34 20 -17.68 20 -17 20 C-17.50452219 23.74787912 -18.08159233 27.32636934 -19 31 C-13.72 31 -8.44 31 -3 31 C-2.86722656 29.01355469 -2.73445313 27.02710937 -2.59765625 24.98046875 C-2.46553371 23.05426116 -2.33338331 21.12805537 -2.20043945 19.2019043 C-2.06383896 17.20705356 -1.93131328 15.21192515 -1.79882812 13.21679688 C-1.71181641 11.96318359 -1.62480469 10.70957031 -1.53515625 9.41796875 C-1.456604 8.26063232 -1.37805176 7.1032959 -1.29711914 5.91088867 C-1 3 -1 3 0 0 Z " fill="#F7B338" transform="translate(119,61)"/>
<path d="M0 0 C5.7026426 2.3781233 7.75776981 7.39723199 10.3125 12.75 C11.36560804 17.7283289 11 22.91150365 11 28 C-9.79 28.495 -9.79 28.495 -31 29 C-27.05498053 35.27635087 -27.05498053 35.27635087 -21 38 C-15.28955289 38.65649301 -10.40258778 37.83917882 -5 36 C-7.66059496 38.91398495 -9.64436651 39.85941579 -13.63671875 40.2734375 C-19.95559415 40.48379699 -24.20805744 40.08563162 -29.4765625 36.484375 C-31.25346823 34.75303095 -32.11984235 33.31803895 -33 31 C-33 29.68 -33 28.36 -33 27 C-18.81 27 -4.62 27 10 27 C9.34 23.37 8.68 19.74 8 16 C7.01 16.495 7.01 16.495 6 17 C5.664061 15.5422647 5.33133376 14.08378894 5 12.625 C4.814375 11.81289062 4.62875 11.00078125 4.4375 10.1640625 C4 8 4 8 4 6 C2.70427617 3.97543152 1.3726682 1.97321053 0 0 Z " fill="#FDC13B" transform="translate(777,108)"/>
<path d="M0 0 C0.66 0.33 1.32 0.66 2 1 C2.41932726 3.70550409 2.70999471 6.32671255 2.921875 9.05078125 C2.99037659 9.86113327 3.05887817 10.67148529 3.12945557 11.50639343 C3.27190238 13.22514626 3.40943395 14.94431232 3.54248047 16.66381836 C3.74842516 19.29239946 3.97666333 21.91838229 4.20703125 24.54492188 C4.34250509 26.21343186 4.47666256 27.88204935 4.609375 29.55078125 C4.6790448 30.33632889 4.7487146 31.12187653 4.82049561 31.93122864 C5.13383712 36.22840398 4.98712243 38.02575513 3 42 C2.67 37.71 2.34 33.42 2 29 C1.34 29 0.68 29 0 29 C-0.33 29.66 -0.66 30.32 -1 31 C-2.85498095 29.14501905 -2.13232478 26.53402807 -2.13891602 24.06811523 C-2.13432373 23.26188721 -2.12973145 22.45565918 -2.125 21.625 C-2.12234131 20.81168213 -2.11968262 19.99836426 -2.11694336 19.16040039 C-1.98232697 1.98232697 -1.98232697 1.98232697 0 0 Z " fill="#F8B135" transform="translate(122,27)"/>
<path d="M0 0 C1.70209877 0.00333092 1.70209877 0.00333092 3.43858337 0.00672913 C4.71983597 0.00680466 6.00108856 0.00688019 7.32116699 0.00695801 C8.73001646 0.01206542 10.13886554 0.01728143 11.54771423 0.02259827 C12.98118033 0.02446249 14.41464706 0.02588637 15.84811401 0.02688599 C19.62765755 0.03071079 23.40716288 0.04054075 27.18669128 0.05158997 C31.04075097 0.06180489 34.8948168 0.06638378 38.74888611 0.07142639 C46.31596085 0.08216306 53.88300407 0.09923903 61.45005798 0.12025452 C61.45005798 0.45025452 61.45005798 0.78025452 61.45005798 1.12025452 C40.66005798 1.12025452 19.87005798 1.12025452 -1.54994202 1.12025452 C-1.54994202 5.41025452 -1.54994202 9.70025452 -1.54994202 14.12025452 C6.04005798 14.12025452 13.63005798 14.12025452 21.45005798 14.12025452 C21.45005798 17.09025452 21.45005798 20.06025452 21.45005798 23.12025452 C21.12005798 23.12025452 20.79005798 23.12025452 20.45005798 23.12025452 C20.45005798 20.81025452 20.45005798 18.50025452 20.45005798 16.12025452 C19.75855652 16.12549133 19.06705505 16.13072815 18.354599 16.13612366 C15.24059446 16.15682952 12.12660437 16.16989415 9.01255798 16.18275452 C7.9239447 16.19113342 6.83533142 16.19951233 5.71372986 16.20814514 C4.6792572 16.2113678 3.64478455 16.21459045 2.57896423 16.21791077 C1.62062683 16.22314758 0.66228943 16.2283844 -0.3250885 16.23377991 C-2.54994202 16.12025452 -2.54994202 16.12025452 -3.54994202 15.12025452 C-3.64903504 12.78865397 -3.67964706 10.4539551 -3.67494202 8.12025452 C-3.67752014 6.84150452 -3.68009827 5.56275452 -3.68275452 4.24525452 C-3.50936498 0.16550062 -3.50936498 0.16550062 0 0 Z " fill="#FACC1A" transform="translate(235.54994201660156,83.87974548339844)"/>
<path d="M0 0 C0.66 0.33 1.32 0.66 2 1 C1.67 1.66 1.34 2.32 1 3 C0.76666713 9.08516056 0.76666713 9.08516056 2 15 C2.66 15 3.32 15 4 15 C3.3318084 18.49895906 1.92073923 21.12367702 0.12109375 24.18359375 C-0.46704102 25.1883374 -1.05517578 26.19308105 -1.66113281 27.22827148 C-2.28858398 28.28731689 -2.91603516 29.3463623 -3.5625 30.4375 C-4.19639648 31.51394775 -4.83029297 32.59039551 -5.48339844 33.69946289 C-7.31555127 36.80368402 -9.1559706 39.90282261 -11 43 C-11.46583496 43.78503906 -11.93166992 44.57007813 -12.41162109 45.37890625 C-18.61901697 55.80950848 -18.61901697 55.80950848 -21 57 C-19.48612127 52.89234238 -17.49192541 49.1645307 -15.3046875 45.38671875 C-14.77622726 44.46509697 -14.77622726 44.46509697 -14.23709106 43.52485657 C-13.1194353 41.57730491 -11.99729638 39.63238041 -10.875 37.6875 C-10.11298289 36.36149954 -9.351261 35.03532938 -8.58984375 33.70898438 C-6.72997479 30.4706854 -4.8660782 27.23472577 -3 24 C-3.99 24 -4.98 24 -6 24 C-6 20.04670117 -4.40600588 18.69685279 -1.99609375 15.71875 C-1.66738281 15.1515625 -1.33867187 14.584375 -1 14 C-1.33 13.01 -1.66 12.02 -2 11 C-2.16796875 9.0625 -2.16796875 9.0625 -2.1875 7 C-2.20167969 6.319375 -2.21585938 5.63875 -2.23046875 4.9375 C-2 3 -2 3 0 0 Z M-3 19 C-2 21 -2 21 -2 21 Z " fill="#F9B737" transform="translate(160,36)"/>
<path d="M0 0 C0.33 0 0.66 0 1 0 C1.02685938 2.14576637 1.04633088 4.29162645 1.0625 6.4375 C1.07410156 7.63246094 1.08570313 8.82742187 1.09765625 10.05859375 C1 13 1 13 0 14 C-2.52094076 14.08847743 -5.01430893 14.11527301 -7.53515625 14.09765625 C-8.66503212 14.09553383 -8.66503212 14.09553383 -9.81773376 14.09336853 C-12.2326956 14.08775376 -14.64756601 14.07519883 -17.0625 14.0625 C-18.69596221 14.0574869 -20.32942586 14.05292366 -21.96289062 14.04882812 C-25.9753243 14.03862875 -29.98755936 14.01905645 -34 14 C-34 22.58 -34 31.16 -34 40 C-34.33 40 -34.66 40 -35 40 C-35 30.76 -35 21.52 -35 12 C-23.78 12 -12.56 12 -1 12 C-1 8.37 -1 4.74 -1 1 C-0.67 0.67 -0.34 0.34 0 0 Z " fill="#FBB031" transform="translate(534,119)"/>
<path d="M0 0 C23.265 0.495 23.265 0.495 47 1 C47 5.29 47 9.58 47 14 C44 17 44 17 40.8125 17.1875 C39.4203125 17.0946875 39.4203125 17.0946875 38 17 C38.598125 16.731875 39.19625 16.46375 39.8125 16.1875 C42.84068566 14.57635245 42.84068566 14.57635245 45 12 C45 9.36 45 6.72 45 4 C23.22 3.505 23.22 3.505 1 3 C0.67 2.01 0.34 1.02 0 0 Z " fill="#F6AD34" transform="translate(152,91)"/>
<path d="M0 0 C3.92835183 2.61890122 4.26323121 4.76982699 5.50390625 9.1796875 C6.27621045 13.57026726 5.76999766 17.63977231 5 22 C3.68 21.67 2.36 21.34 1 21 C-3.53340757 7.06681514 -3.53340757 7.06681514 0 0 Z " fill="#F8AB30" transform="translate(134,32)"/>
<path d="M0 0 C0.02684679 2.64590014 0.04676357 5.29153096 0.0625 7.9375 C0.07087891 8.69224609 0.07925781 9.44699219 0.08789062 10.22460938 C0.09652441 12.14994313 0.05224333 14.07535581 0 16 C-1.52722309 17.52722309 -3.06422645 17.15041598 -5.1875 17.25 C-10.32996346 17.77407271 -12.48901808 19.23211696 -16 23 C-17.39819512 25.6514482 -17.39819512 25.6514482 -18 28 C-18.33 28 -18.66 28 -19 28 C-19.36643538 23.7249206 -18.72720148 21.34302117 -16 18 C-10.78377992 15.03391407 -6.8217654 14.69359129 -1 15 C-1 10.71 -1 6.42 -1 2 C-2.60875 2.0825 -4.2175 2.165 -5.875 2.25 C-6.77992188 2.29640625 -7.68484375 2.3428125 -8.6171875 2.390625 C-11.17110544 2.75611148 -11.17110544 2.75611148 -12.3203125 5.046875 C-12.54460938 5.69140625 -12.76890625 6.3359375 -13 7 C-13 6.34 -13 5.68 -13 5 C-14.98 6.32 -16.96 7.64 -19 9 C-17.12371934 4.46565507 -14.65458138 2.69860103 -10.1875 0.8125 C-6.67976448 -0.08162866 -3.60593637 -0.05547594 0 0 Z " fill="#FDC63A" transform="translate(651,101)"/>
<path d="M0 0 C1.06528748 2.73019786 1.07998186 3.79298812 0.00390625 6.578125 C-0.47175781 7.45984375 -0.94742188 8.3415625 -1.4375 9.25 C-2.14712891 10.58804688 -2.14712891 10.58804688 -2.87109375 11.953125 C-3.24363281 12.62859375 -3.61617187 13.3040625 -4 14 C-3.01 15.485 -3.01 15.485 -2 17 C-1.84242985 20.72165689 -2.2513366 24.04171085 -4.5625 27 C-5.036875 27.33 -5.51125 27.66 -6 28 C-6.99 27.67 -7.98 27.34 -9 27 C-8.34 26.505 -7.68 26.01 -7 25.5 C-4.1172783 21.89659788 -4.69799003 19.53014958 -5 15 C-5.66 15 -6.32 15 -7 15 C-7 14.01 -7 13.02 -7 12 C-11.455 12.495 -11.455 12.495 -16 13 C-16 12.34 -16 11.68 -16 11 C-10.25 9.875 -10.25 9.875 -8 11 C-7.62875 10.195625 -7.62875 10.195625 -7.25 9.375 C-3.14285714 1.57142857 -3.14285714 1.57142857 0 0 Z " fill="#FAB635" transform="translate(179,23)"/>
<path d="M0 0 C0.66 0.33 1.32 0.66 2 1 C1.67 5.62 1.34 10.24 1 15 C-1.64 15 -4.28 15 -7 15 C-7 18.63 -7 22.26 -7 26 C-4.36 26 -1.72 26 1 26 C1 35.9 1 45.8 1 56 C0.67 56 0.34 56 0 56 C0 46.76 0 37.52 0 28 C-2.97 28 -5.94 28 -9 28 C-9 23.38 -9 18.76 -9 14 C-6.03 14 -3.06 14 0 14 C0 9.38 0 4.76 0 0 Z " fill="#FCBA38" transform="translate(438,89)"/>
<path d="M0 0 C4.62 0 9.24 0 14 0 C14.17595333 7.49296923 14.34309371 14.98603601 14.49477577 22.47953415 C14.56556111 25.95916237 14.64018807 29.43861927 14.72363281 32.91796875 C14.81942179 36.91908312 14.89843157 40.92037659 14.9765625 44.921875 C15.00875885 46.16990906 15.0409552 47.41794312 15.0741272 48.70379639 C15.10438492 50.44514862 15.10438492 50.44514862 15.13525391 52.22167969 C15.15746002 53.24316101 15.17966614 54.26464233 15.20254517 55.31707764 C14.99538688 58.06110556 14.41209169 59.66605683 13 62 C12.67 62 12.34 62 12 62 C12.33 41.87 12.66 21.74 13 1 C8.71 1 4.42 1 0 1 C0 0.67 0 0.34 0 0 Z " fill="#F6AB32" transform="translate(703,103)"/>
<path d="M0 0 C-0.33 2.64 -0.66 5.28 -1 8 C-3 5 -3 5 -4 3 C-7.63 2.67 -11.26 2.34 -15 2 C-15 20.15 -15 38.3 -15 57 C-15.33 57 -15.66 57 -16 57 C-16 38.52 -16 20.04 -16 1 C-1 0 -1 0 0 0 Z " fill="#F2A62A" transform="translate(632,102)"/>
<path d="M0 0 C0.99 0.33 1.98 0.66 3 1 C1.13637352 5.09997826 -0.72028399 7.93187857 -4 11 C-6.13377515 14.20066273 -6.26172447 15.53421032 -6.625 19.25 C-7.54339213 24.92596446 -9.6443859 27.31498769 -14.125 30.7578125 C-18.22751697 33.47572999 -21.14152659 33.07836247 -26 33 C-23.68378663 31.75280819 -21.6128179 30.89290708 -19.0625 30.1875 C-15.16292317 28.67541919 -13.53467852 27.35673642 -11 24 C-10.50460633 22.34961546 -10.07371286 20.67929261 -9.6875 19 C-8.00006247 11.72416641 -4.11421745 6.14689496 0 0 Z " fill="#FAB538" transform="translate(145,92)"/>
<path d="M0 0 C-0.33 1.32 -0.66 2.64 -1 4 C-0.34 4 0.32 4 1 4 C-0.64178265 8.77609498 -3.26546702 12.79382904 -6 17 C-6.99 15.68 -7.98 14.36 -9 13 C-9.99 13.495 -9.99 13.495 -11 14 C-10.33333333 12.66666667 -9.66666667 11.33333333 -9 10 C-8.505 8.989375 -8.01 7.97875 -7.5 6.9375 C-3.95744681 0 -3.95744681 0 0 0 Z " fill="#F8A422" transform="translate(148,70)"/>
<path d="M0 0 C0.99 0.33 1.98 0.66 3 1 C2.67 1.33 2.34 1.66 2 2 C1.84417697 3.34015221 1.74955858 4.68758903 1.68359375 6.03515625 C1.64548584 6.76355713 1.60737793 7.49195801 1.56811523 8.24243164 C1.52501221 9.1730542 1.48190918 10.10367676 1.4375 11.0625 C1.293125 14.011875 1.14875 16.96125 1 20 C12.22 20 23.44 20 35 20 C33 22 33 22 29.75952148 22.15112305 C28.37972152 22.11555438 27.00019217 22.06829277 25.62109375 22.01171875 C24.89382584 21.98906448 24.16655792 21.96641022 23.41725159 21.94306946 C21.87964591 21.89309596 20.34219567 21.83812842 18.80493164 21.77856445 C16.44376635 21.68774104 14.08250752 21.61309236 11.72070312 21.54101562 C10.22913416 21.49053489 8.73759599 21.43913398 7.24609375 21.38671875 C6.53569443 21.36373215 5.8252951 21.34074554 5.09336853 21.31706238 C0.11619148 21.11619148 0.11619148 21.11619148 -1 20 C-1.09860131 18.59651265 -1.13078937 17.18819523 -1.1328125 15.78125 C-1.13410156 14.93175781 -1.13539063 14.08226563 -1.13671875 13.20703125 C-1.13285156 12.31371094 -1.12898438 11.42039062 -1.125 10.5 C-1.12886719 9.60667969 -1.13273437 8.71335937 -1.13671875 7.79296875 C-1.13542969 6.94347656 -1.13414062 6.09398438 -1.1328125 5.21875 C-1.13168457 4.43435547 -1.13055664 3.64996094 -1.12939453 2.84179688 C-1 1 -1 1 0 0 Z " fill="#FBBB43" transform="translate(500,98)"/>
<path d="M0 0 C0.85658203 0.42925781 0.85658203 0.42925781 1.73046875 0.8671875 C2.47941406 1.24101562 3.22835937 1.61484375 4 2 C5.01513672 2.52980469 5.01513672 2.52980469 6.05078125 3.0703125 C13.50980261 6.54861261 20.86811613 7.09450272 29 6 C31.5304861 4.92926723 33.43943635 3.79647442 35.58203125 2.09375 C37 1 37 1 39 1 C39 3.31 39 5.62 39 8 C38.01 7.01 37.02 6.02 36 5 C35.278125 5.474375 34.55625 5.94875 33.8125 6.4375 C27.44468843 9.97517309 19.20125695 10.09339643 12.23828125 8.28125 C7.0654499 6.36366827 3.53275763 4.23930916 0 0 Z " fill="#FBB136" transform="translate(663,149)"/>
<path d="M0 0 C0.598125 0.20625 1.19625 0.4125 1.8125 0.625 C0.4925 0.955 -0.8275 1.285 -2.1875 1.625 C-2.04654936 3.2504308 -1.89957913 4.87534051 -1.75 6.5 C-1.62818359 7.85738281 -1.62818359 7.85738281 -1.50390625 9.2421875 C-1.31760715 11.63610861 -1.31760715 11.63610861 -0.1875 13.625 C2.33983235 14.28055119 2.33983235 14.28055119 4.8125 14.625 C4.4825 15.285 4.1525 15.945 3.8125 16.625 C-2.33984375 16.72265625 -2.33984375 16.72265625 -4.1875 16.625 C-6.12673052 14.68576948 -5.40616472 11.25960405 -5.4375 8.6875 C-5.46328125 7.42035156 -5.4890625 6.15320313 -5.515625 4.84765625 C-5.40734375 3.78417969 -5.2990625 2.72070312 -5.1875 1.625 C-2.1875 -0.375 -2.1875 -0.375 0 0 Z " fill="#FCBE2D" transform="translate(76.1875,166.375)"/>
<path d="M0 0 C1.49341969 2.98683937 0.40648676 4.95160978 -0.4375 8.125 C-0.72496094 9.22070312 -1.01242188 10.31640625 -1.30859375 11.4453125 C-1.65083984 12.70988281 -1.65083984 12.70988281 -2 14 C-2.66 14 -3.32 14 -4 14 C-4.66 15.32 -5.32 16.64 -6 18 C-7.45606519 13.47907032 -6.27032841 10.48351204 -5 6 C-5.66 5.67 -6.32 5.34 -7 5 C-5 2 -5 2 -2.9375 1.375 C-2.298125 1.25125 -1.65875 1.1275 -1 1 C-0.67 0.67 -0.34 0.34 0 0 Z " fill="#F6A01E" transform="translate(108,47)"/>
<path d="M0 0 C6.93 0 13.86 0 21 0 C20.4140625 8.49609375 20.4140625 8.49609375 20 11 C19.01 11.495 19.01 11.495 18 12 C15.91664224 8.87496336 15 6.72863529 15 3 C12.16730334 1.58365167 9.52533562 1.6536995 6.375 1.4375 C5.18648438 1.35371094 3.99796875 1.26992188 2.7734375 1.18359375 C1.40058594 1.09271484 1.40058594 1.09271484 0 1 C0 0.67 0 0.34 0 0 Z " fill="#F6A523" transform="translate(113,15)"/>
<path d="M0 0 C0.66 0.99 1.32 1.98 2 3 C2.66 2.67 3.32 2.34 4 2 C4.3125 5.1875 4.3125 5.1875 4 9 C1.5 11.9375 1.5 11.9375 -1 14 C-3.19398856 10.70901716 -3.21503664 10.15167419 -2.75 6.4375 C-2.66234375 5.65246094 -2.5746875 4.86742187 -2.484375 4.05859375 C-2 2 -2 2 0 0 Z " fill="#FA9F21" transform="translate(141,54)"/>
<path d="M0 0 C5.7026426 2.3781233 7.75776981 7.39723199 10.3125 12.75 C11.38266265 17.80895071 11.15001478 22.84949268 11 28 C10.67 28 10.34 28 10 28 C9.34 24.04 8.68 20.08 8 16 C7.34 16.33 6.68 16.66 6 17 C5.664061 15.5422647 5.33133376 14.08378894 5 12.625 C4.814375 11.81289062 4.62875 11.00078125 4.4375 10.1640625 C4 8 4 8 4 6 C2.70427617 3.97543152 1.3726682 1.97321053 0 0 Z " fill="#FBB235" transform="translate(777,108)"/>
<path d="M0 0 C0.33 0 0.66 0 1 0 C1.06058594 1.09699219 1.12117187 2.19398437 1.18359375 3.32421875 C1.26804498 4.77865654 1.35269066 6.23308305 1.4375 7.6875 C1.47681641 8.40873047 1.51613281 9.12996094 1.55664062 9.87304688 C1.78185678 13.66707282 2.12839305 17.28651492 3 21 C3.99 21 4.98 21 6 21 C6.33 23.31 6.66 25.62 7 28 C2.71164542 24.2911528 0.14214497 20.66575849 -1 15 C-1.74170124 3.48340249 -1.74170124 3.48340249 0 0 Z " fill="#FBB830" transform="translate(656,121)"/>
<path d="M0 0 C0.87454834 0.00523682 1.74909668 0.01047363 2.65014648 0.01586914 C3.59438477 0.0190918 4.53862305 0.02231445 5.51147461 0.02563477 C6.50469727 0.03401367 7.49791992 0.04239258 8.52124023 0.05102539 C9.51833008 0.05553711 10.51541992 0.06004883 11.54272461 0.06469727 C14.01478872 0.07652532 16.48673541 0.0930069 18.95874023 0.11352539 C18.62874023 1.10352539 18.29874023 2.09352539 17.95874023 3.11352539 C11.68874023 2.78352539 5.41874023 2.45352539 -1.04125977 2.11352539 C-1.70125977 3.43352539 -2.36125977 4.75352539 -3.04125977 6.11352539 C-3.08398077 4.44740634 -3.08189809 2.77969654 -3.04125977 1.11352539 C-2.04125977 0.11352539 -2.04125977 0.11352539 0 0 Z " fill="#F8B23C" transform="translate(114.041259765625,12.886474609375)"/>
<path d="M0 0 C3 2 3 2 3.58203125 4.09375 C3.65808594 4.8878125 3.73414063 5.681875 3.8125 6.5 C3.90144531 7.2940625 3.99039063 8.088125 4.08203125 8.90625 C4 11 4 11 2 13 C1.34 11.68 0.68 10.36 0 9 C-0.99 9.495 -0.99 9.495 -2 10 C-1.125 2.25 -1.125 2.25 0 0 Z " fill="#F79E1D" transform="translate(134,32)"/>
<path d="M0 0 C0.66 0.33 1.32 0.66 2 1 C2.08097324 3.27024968 2.13917704 5.54132075 2.1875 7.8125 C2.22230469 9.07707031 2.25710937 10.34164062 2.29296875 11.64453125 C2 15 2 15 0.48828125 16.94921875 C-0.00285156 17.29597656 -0.49398437 17.64273438 -1 18 C-2.38678807 12.29876016 -1.88127264 6.74785597 -1 1 C-0.67 0.67 -0.34 0.34 0 0 Z " fill="#F0B64A" transform="translate(122,27)"/>
<path d="M0 0 C0.66 0 1.32 0 2 0 C1.855625 1.134375 1.71125 2.26875 1.5625 3.4375 C0.99698633 7.95353056 0.49225191 12.47547181 0 17 C-0.66 17 -1.32 17 -2 17 C-2.33 18.65 -2.66 20.3 -3 22 C-3.33 22 -3.66 22 -4 22 C-4.2248832 16.5957757 -3.4886411 12.18724757 -2 7.0625 C-1.80921875 6.37865234 -1.6184375 5.69480469 -1.421875 4.99023438 C-0.95595063 3.32455474 -0.47911589 1.66193325 0 0 Z " fill="#F9B437" transform="translate(101,53)"/>
<path d="M0 0 C-0.66 0 -1.32 0 -2 0 C-2.33 0.99 -2.66 1.98 -3 3 C-6.5625 4.1875 -6.5625 4.1875 -10 5 C-10.33 6.32 -10.66 7.64 -11 9 C-11.66 7.35 -12.32 5.7 -13 4 C-4.95935583 -1.53911043 -4.95935583 -1.53911043 0 0 Z " fill="#F9B331" transform="translate(314,104)"/>
<path d="M0 0 C0.68513672 -0.01224609 1.37027344 -0.02449219 2.07617188 -0.03710938 C3.86484112 -0.04237533 5.65298848 0.06549979 7.4375 0.1875 C8.0975 0.8475 8.7575 1.5075 9.4375 2.1875 C2.8375 2.5175 -3.7625 2.8475 -10.5625 3.1875 C-10.5625 2.5275 -10.5625 1.8675 -10.5625 1.1875 C-6.99164986 -0.00278338 -3.7164317 0.00351602 0 0 Z " fill="#F8B142" transform="translate(325.5625,100.8125)"/>
<path d="M0 0 C0.66 0 1.32 0 2 0 C2.7425 1.4540625 2.7425 1.4540625 3.5 2.9375 C6.97192343 9.04758748 12.01774235 14.09534761 17 19 C10.08080648 16.62942413 5.17606663 11.3651558 1.5 5.125 C0 2 0 2 0 0 Z " fill="#FBB73B" transform="translate(14,100)"/>
<path d="M0 0 C-0.33 0.66 -0.66 1.32 -1 2 C-3.55411213 2.31532249 -6.08082828 2.37953701 -8.65234375 2.4609375 C-11.17650857 2.75324964 -11.17650857 2.75324964 -12.31640625 5.0390625 C-12.54199219 5.68617187 -12.76757812 6.33328125 -13 7 C-13 6.34 -13 5.68 -13 5 C-14.98 6.32 -16.96 7.64 -19 9 C-17.12371934 4.46565507 -14.65458138 2.69860103 -10.1875 0.8125 C-6.68008422 -0.08154716 -3.60519968 -0.14420799 0 0 Z " fill="#F8B436" transform="translate(651,101)"/>
<path d="M0 0 C0.99 0.66 1.98 1.32 3 2 C1.68 4.31 0.36 6.62 -1 9 C-1.66 9 -2.32 9 -3 9 C-3 8.01 -3 7.02 -3 6 C-3.66 6 -4.32 6 -5 6 C-4.1875 3.5625 -4.1875 3.5625 -3 1 C-2.01 0.67 -1.02 0.34 0 0 Z " fill="#F8A828" transform="translate(155,58)"/>
<path d="M0 0 C0.99 0.33 1.98 0.66 3 1 C2.36191406 1.34933594 1.72382812 1.69867188 1.06640625 2.05859375 C0.24011719 2.51363281 -0.58617188 2.96867188 -1.4375 3.4375 C-2.26121094 3.88996094 -3.08492187 4.34242188 -3.93359375 4.80859375 C-5.92308798 5.83662397 -5.92308798 5.83662397 -7 7 C-11.16464926 7.16017882 -14.94726192 6.98248196 -19 6 C-19 5.67 -19 5.34 -19 5 C-18.21496094 4.97421875 -17.42992188 4.9484375 -16.62109375 4.921875 C-9.82089934 4.55474794 -5.701298 3.63912639 0 0 Z " fill="#FBAF35" transform="translate(107,176)"/>
<path d="M0 0 C-2.83148603 1.55088212 -5.329931 2.36753896 -8.5 2.9375 C-12.08923138 3.66711425 -14.1327151 4.68411605 -17 7 C-17.99 6.67 -18.98 6.34 -20 6 C-20.33 4.35 -20.66 2.7 -21 1 C-19.68 1.99 -18.36 2.98 -17 4 C-16.0925 3.525625 -15.185 3.05125 -14.25 2.5625 C-9.21845443 0.1434877 -5.61104609 -0.10790473 0 0 Z " fill="#FABB3D" transform="translate(326,114)"/>
<path d="M0 0 C3.96 0 7.92 0 12 0 C12.33 0.99 12.66 1.98 13 3 C12.34 3 11.68 3 11 3 C11 2.34 11 1.68 11 1 C6.545 1.495 6.545 1.495 2 2 C1.01 5.3 0.02 8.6 -1 12 C-1.33 12 -1.66 12 -2 12 C-1.85831863 10.56208484 -1.71148957 9.1246763 -1.5625 7.6875 C-1.48128906 6.88699219 -1.40007812 6.08648437 -1.31640625 5.26171875 C-1 3 -1 3 0 0 Z " fill="#FDC342" transform="translate(116,19)"/>
<path d="M0 0 C1.01126953 0.41378906 1.01126953 0.41378906 2.04296875 0.8359375 C5.4415473 2.17381915 8.87071093 3.40268239 12.3125 4.625 C12.95767578 4.85445313 13.60285156 5.08390625 14.26757812 5.3203125 C15.84474179 5.8810818 17.42232784 6.44066291 19 7 C18.34 7.66 17.68 8.32 17 9 C15.10171843 8.40357022 13.20646499 7.79749837 11.3125 7.1875 C10.25675781 6.85105469 9.20101562 6.51460938 8.11328125 6.16796875 C5.11945003 5.0448125 2.60979506 3.84477165 0 2 C0 1.34 0 0.68 0 0 Z " fill="#FCBE31" transform="translate(32,119)"/>
<path d="M0 0 C0 0.99 0 1.98 0 3 C-5.11301324 5.44998551 -9.31099076 6.72021266 -15 7 C-17.23828125 6.01171875 -17.23828125 6.01171875 -19 5 C-17.57107422 4.83564453 -17.57107422 4.83564453 -16.11328125 4.66796875 C-14.85902344 4.50941406 -13.60476563 4.35085937 -12.3125 4.1875 C-11.07113281 4.03667969 -9.82976562 3.88585937 -8.55078125 3.73046875 C-5.06482218 3.01333526 -2.89391214 2.01965188 0 0 Z " fill="#FAB43B" transform="translate(335,155)"/>
<path d="M0 0 C0.75 1.625 0.75 1.625 1 4 C-0.9375 7.25 -0.9375 7.25 -3 10 C-4.32 9.34 -5.64 8.68 -7 8 C-6.21366078 6.85050412 -5.42073742 5.70551011 -4.625 4.5625 C-4.18414062 3.92441406 -3.74328125 3.28632813 -3.2890625 2.62890625 C-2 1 -2 1 0 0 Z " fill="#F0A941" transform="translate(179,23)"/>
<path d="M0 0 C1.32 0.33 2.64 0.66 4 1 C4 5.62 4 10.24 4 15 C3.34 15 2.68 15 2 15 C1.90912109 13.62714844 1.90912109 13.62714844 1.81640625 12.2265625 C1.69072266 10.44378906 1.69072266 10.44378906 1.5625 8.625 C1.48128906 7.44164062 1.40007812 6.25828125 1.31640625 5.0390625 C1.18915064 2.08481099 1.18915064 2.08481099 0 0 Z " fill="#FDC933" transform="translate(170,167)"/>
<path d="M0 0 C-1.98 0.99 -1.98 0.99 -4 2 C-4 2.99 -4 3.98 -4 5 C-4.66 5 -5.32 5 -6 5 C-6 4.34 -6 3.68 -6 3 C-6.66 3 -7.32 3 -8 3 C-8 3.66 -8 4.32 -8 5 C-9.375 6.5 -9.375 6.5 -11 8 C-11.66 8.66 -12.32 9.32 -13 10 C-12.84817368 7.34303932 -12.52675976 5.55765476 -10.66796875 3.58984375 C-4.68300986 -1.40490296 -4.68300986 -1.40490296 0 0 Z " fill="#F9B535" transform="translate(313,128)"/>
<path d="M0 0 C0.67578125 1.7734375 0.67578125 1.7734375 1 4 C-0.14453125 5.8515625 -0.14453125 5.8515625 -1.8125 7.625 C-2.35519531 8.21539062 -2.89789062 8.80578125 -3.45703125 9.4140625 C-4.62877641 10.61843854 -5.81182738 11.81182738 -7 13 C-6.65986985 7.55791766 -3.29703472 4.06331802 0 0 Z " fill="#FCC231" transform="translate(552,108)"/>
<path d="M0 0 C1.13888672 0.2165625 1.13888672 0.2165625 2.30078125 0.4375 C3.29464844 0.623125 4.28851562 0.80875 5.3125 1 C6.29863281 1.185625 7.28476562 1.37125 8.30078125 1.5625 C11.03781805 2.07999796 11.03781805 2.07999796 14 2 C14 2.66 14 3.32 14 4 C11.36 4.66 8.72 5.32 6 6 C5.67 5.34 5.34 4.68 5 4 C3.34051852 2.98812105 1.67419438 1.9873454 0 1 C0 0.67 0 0.34 0 0 Z " fill="#FBB335" transform="translate(565,144)"/>
<path d="M0 0 C0.33 0 0.66 0 1 0 C0.03644647 10.55808656 0.03644647 10.55808656 -1 15 C-1.66 15 -2.32 15 -3 15 C-2.88623383 12.87436897 -2.75864369 10.7494739 -2.625 8.625 C-2.55539063 7.44164063 -2.48578125 6.25828125 -2.4140625 5.0390625 C-2 2 -2 2 0 0 Z " fill="#F8B73B" transform="translate(105,63)"/>
<path d="M0 0 C-0.33 3.3 -0.66 6.6 -1 10 C-2.32 9.67 -3.64 9.34 -5 9 C-5.8125 7.3125 -5.8125 7.3125 -6 5 C-1.68181818 0 -1.68181818 0 0 0 Z " fill="#F1A228" transform="translate(140,44)"/>
<path d="M0 0 C8.57142857 2.85714286 8.57142857 2.85714286 12 7 C9.03 6.505 9.03 6.505 6 6 C6 5.34 6 4.68 6 4 C4.68 4 3.36 4 2 4 C2 3.34 2 2.68 2 2 C1.34 2 0.68 2 0 2 C0 1.34 0 0.68 0 0 Z " fill="#FABA2E" transform="translate(336,102)"/>
<path d="M0 0 C-0.33 2.64 -0.66 5.28 -1 8 C-3 5 -3 5 -4 3 C-6.32156597 2.59270772 -8.6568787 2.25561323 -11 2 C-11 1.67 -11 1.34 -11 1 C-9.35422741 0.83273455 -7.70838013 0.66620388 -6.0625 0.5 C-4.68771484 0.36078125 -4.68771484 0.36078125 -3.28515625 0.21875 C-1 0 -1 0 0 0 Z " fill="#F9AE32" transform="translate(632,102)"/>
<path d="M0 0 C0 2.31 0 4.62 0 7 C-0.99 6.01 -1.98 5.02 -3 4 C-3.598125 4.350625 -4.19625 4.70125 -4.8125 5.0625 C-7 6 -7 6 -10 5 C-8.71186658 4.16121545 -7.41936744 3.32913217 -6.125 2.5 C-5.40570312 2.0359375 -4.68640625 1.571875 -3.9453125 1.09375 C-2 0 -2 0 0 0 Z " fill="#FDC43D" transform="translate(702,150)"/>
<path d="M0 0 C3.40424844 1.13474948 4.21653709 1.96811304 6 5 C5.67 5.99 5.34 6.98 5 8 C2.21611025 6.29374499 1.14615794 5.52373261 0.25 2.3125 C0.1675 1.549375 0.085 0.78625 0 0 Z " fill="#F9B134" transform="translate(419,148)"/>
<path d="M0 0 C0.99 0.33 1.98 0.66 3 1 C0.25 6.875 0.25 6.875 -2 8 C-2.33 7.01 -2.66 6.02 -3 5 C-1.5625 2.3125 -1.5625 2.3125 0 0 Z " fill="#F9AE2F" transform="translate(145,92)"/>
<path d="M0 0 C0.66 0 1.32 0 2 0 C2 0.66 2 1.32 2 2 C2.99 2 3.98 2 5 2 C5.33 4.31 5.66 6.62 6 9 C0.42857143 3.85714286 0.42857143 3.85714286 0 0 Z " fill="#FBAE38" transform="translate(657,140)"/>
<path d="M0 0 C-3.4019487 2.09350689 -6.05272412 2.17942163 -10 2 C-10 1.34 -10 0.68 -10 0 C-6.30581799 -1.231394 -3.7943739 -0.64432764 0 0 Z " fill="#F6B133" transform="translate(325,102)"/>
<path d="M0 0 C1.5 1.3125 1.5 1.3125 3 3 C3 3.99 3 4.98 3 6 C1.68 5.67 0.36 5.34 -1 5 C-0.67 3.35 -0.34 1.7 0 0 Z " fill="#FAB32D" transform="translate(770,117)"/>
<path d="M0 0 C0.66 0 1.32 0 2 0 C1.8125 1.875 1.8125 1.875 1 4 C-1.5625 5.25 -1.5625 5.25 -4 6 C-2.84826645 3.53199953 -1.95216435 1.95216435 0 0 Z " fill="#FCB62C" transform="translate(395,112)"/>
<path d="M0 0 C0.33 0.66 0.66 1.32 1 2 C1.66 2.33 2.32 2.66 3 3 C1.35 4.65 -0.3 6.3 -2 8 C-1.125 1.125 -1.125 1.125 0 0 Z " fill="#FBC030" transform="translate(415,109)"/>
<path d="M0 0 C0.33 0.99 0.66 1.98 1 3 C-0.65 4.65 -2.3 6.3 -4 8 C-4.33 6.35 -4.66 4.7 -5 3 C-4.01 3 -3.02 3 -2 3 C-1.34 2.01 -0.68 1.02 0 0 Z " fill="#FCBA48" transform="translate(144,60)"/>
<path d="M0 0 C0.66 0 1.32 0 2 0 C1.25 6.75 1.25 6.75 -1 9 C-0.67 6.03 -0.34 3.06 0 0 Z " fill="#F7B739" transform="translate(115,22)"/>
</svg>
